<?xml version="1.0" encoding="utf-8"?>
<!-- Generator: Adobe Illustrator 21.0.2, SVG Export Plug-In . SVG Version: 6.00 Build 0)  -->
<svg version="1.1" id="Layer_2" xmlns="http://www.w3.org/2000/svg" xmlns:xlink="http://www.w3.org/1999/xlink" x="0px" y="0px"
	 viewBox="0 0 123.2 123.2" style="enable-background:new 0 0 123.2 123.2;" xml:space="preserve">
<style type="text/css">
	.st0{fill:#B36D49;}
	.st1{fill:#C3D962;}
	.st2{fill:#BF744E;}
	.st3{fill:#FFFFFF;}
</style>
<g>
	<path d="M27.4,50.6c-2.1,0-3.8-1.7-3.8-3.8c0-2.1,1.7-3.8,3.8-3.8c2.1,0,3.8,1.7,3.8,3.8C31.2,48.9,29.5,50.6,27.4,50.6z
		 M27.4,44.5c-1.3,0-2.3,1-2.3,2.3c0,1.3,1,2.3,2.3,2.3c1.3,0,2.3-1,2.3-2.3C29.7,45.5,28.7,44.5,27.4,44.5z"/>
	<circle cx="87.4" cy="96.9" r="1.4"/>
	<g>
		<polygon class="st0" points="51.9,113.3 56.4,114 101.9,68.6 101.9,63.3 		"/>
		<polygon class="st1" points="56.4,114 57.9,112.6 57.9,107.3 51.9,113.3 		"/>
		<path d="M56.5,114.7c-0.2,0-0.4-0.1-0.5-0.2c-0.3-0.3-0.3-0.8,0-1.1l45.2-45.2v-5c0-0.4,0.3-0.8,0.8-0.8s0.8,0.3,0.8,0.8v5.3
			c0,0.2-0.1,0.4-0.2,0.5l-45.4,45.4C56.9,114.6,56.7,114.7,56.5,114.7z"/>
		<g>
			<path class="st2" d="M28.8,74.3l10.9,3.4l-1.8,11.3l10.9,3.4L47,103.8l8.5,2.7l43.2-43.2L79.2,43.7c-0.8,0.7-1.7,1.2-2.7,1.4
				c-0.5,0.1-0.9,0.2-1.4,0.2c-1.1,0-2.2-0.3-3.2-0.9c-1.3,1.7-3.4,2.8-5.7,2.8c-2.3,0-4.4-1.1-5.7-2.8c-0.5,0.3-1.1,0.6-1.8,0.7
				c-0.5,0.1-0.9,0.2-1.4,0.2c-1.6,0-3-0.6-4.1-1.6l-23,23L28.8,74.3z"/>
		</g>
		<g>
			<g>
				<path class="st3" d="M78.4,74.9c-0.2,0-0.4-0.1-0.5-0.2L70,66.9c-0.3-0.3-0.3-0.8,0-1.1s0.8-0.3,1.1,0l7.8,7.8
					c0.3,0.3,0.3,0.8,0,1.1C78.8,74.8,78.6,74.9,78.4,74.9z"/>
				<path class="st3" d="M63.8,60.3c-0.2,0-0.4-0.1-0.5-0.2l-7.8-7.9c-0.3-0.3-0.3-0.8,0-1.1c0.3-0.3,0.8-0.3,1.1,0l7.8,7.9
					c0.3,0.3,0.3,0.8,0,1.1C64.2,60.2,64,60.3,63.8,60.3z"/>
				<path class="st3" d="M62.7,90.7c-0.2,0-0.4-0.1-0.5-0.2l-7.8-7.8c-0.3-0.3-0.3-0.8,0-1.1s0.8-0.3,1.1,0l7.8,7.8
					c0.3,0.3,0.3,0.8,0,1.1C63,90.6,62.9,90.7,62.7,90.7z"/>
				<path class="st3" d="M48.1,76.1c-0.2,0-0.4-0.1-0.5-0.2L39.7,68c-0.3-0.3-0.3-0.8,0-1.1s0.8-0.3,1.1,0l7.8,7.9
					c0.3,0.3,0.3,0.8,0,1.1C48.4,76,48.3,76.1,48.1,76.1z"/>
				<path class="st3" d="M47,106.4c-0.2,0-0.4-0.1-0.5-0.2l-7.8-7.9c-0.3-0.3-0.3-0.8,0-1.1s0.8-0.3,1.1,0l7.8,7.9
					c0.3,0.3,0.3,0.8,0,1.1C47.4,106.3,47.2,106.4,47,106.4z"/>
				<path class="st3" d="M32.4,91.8c-0.2,0-0.4-0.1-0.5-0.2L24,83.7c-0.3-0.3-0.3-0.8,0-1.1s0.8-0.3,1.1,0l7.8,7.9
					c0.3,0.3,0.3,0.8,0,1.1C32.8,91.7,32.6,91.8,32.4,91.8z"/>
			</g>
			<path d="M39.8,90.3c-0.2,0-0.4-0.1-0.5-0.2c-0.3-0.3-0.3-0.8,0-1.1l39.4-39.4c0.3-0.3,0.8-0.3,1.1,0s0.3,0.8,0,1.1L40.4,90.1
				C40.2,90.2,40,90.3,39.8,90.3z"/>
			<path class="st3" d="M27.5,105.6c-0.2,0-0.4-0.1-0.5-0.2c-0.3-0.3-0.3-0.8,0-1.1l53.2-53.2c0.3-0.3,0.8-0.3,1.1,0s0.3,0.8,0,1.1
				l-53.2,53.2C27.9,105.6,27.7,105.6,27.5,105.6z"/>
			<path d="M81.4,74.9c-0.2,0-0.4-0.1-0.5-0.2L54.7,48.5c-0.3-0.3-0.3-0.8,0-1.1s0.8-0.3,1.1,0L82,73.6c0.3,0.3,0.3,0.8,0,1.1
				C81.8,74.8,81.6,74.9,81.4,74.9z"/>
			<path d="M65.7,90.6c-0.2,0-0.4-0.1-0.5-0.2L39,64.2c-0.3-0.3-0.3-0.8,0-1.1s0.8-0.3,1.1,0l26.2,26.2c0.3,0.3,0.3,0.8,0,1.1
				C66.1,90.5,65.9,90.6,65.7,90.6z"/>
		</g>
		<g>
			<path d="M57.9,108c-0.1,0-0.2,0-0.2,0l-10.9-3.4c-0.4-0.1-0.6-0.5-0.5-0.8L48,93l-10.3-3.2c-0.4-0.1-0.6-0.5-0.5-0.8l1.7-10.7
				L28.6,75c-0.4-0.1-0.6-0.5-0.5-0.8l1.8-11.3c0.1-0.4,0.4-0.7,0.9-0.6c0.4,0.1,0.7,0.5,0.6,0.9l-1.7,10.7L40,77
				c0.4,0.1,0.6,0.5,0.5,0.8l-1.7,10.7L49,91.8c0.4,0.1,0.6,0.5,0.5,0.8l-1.7,10.7l10.3,3.2c0.4,0.1,0.6,0.5,0.5,0.9
				C58.5,107.8,58.2,108,57.9,108z"/>
		</g>
		<g>
			<path d="M60.3,31.9c-0.2,0-0.4-0.1-0.5-0.2l-4.3-4.3c-0.3-0.3-0.3-0.8,0-1.1s0.8-0.3,1.1,0l4.3,4.3c0.3,0.3,0.3,0.8,0,1.1
				C60.7,31.8,60.5,31.9,60.3,31.9z"/>
			<path d="M71.9,31.9c-0.2,0-0.4-0.1-0.5-0.2c-0.3-0.3-0.3-0.8,0-1.1l4.3-4.3c0.3-0.3,0.8-0.3,1.1,0c0.3,0.3,0.3,0.8,0,1.1
				l-4.3,4.3C72.3,31.8,72.1,31.9,71.9,31.9z"/>
			<path d="M66.1,29.5c-0.4,0-0.8-0.3-0.8-0.8v-6.1c0-0.4,0.3-0.8,0.8-0.8s0.8,0.3,0.8,0.8v6.1C66.8,29.1,66.5,29.5,66.1,29.5z"/>
		</g>
	</g>
	<path d="M9.6,84.8c-0.2,0-0.4-0.1-0.5-0.2c-0.3-0.3-0.3-0.8,0-1.1l2.9-2.9c0.3-0.3,0.8-0.3,1.1,0s0.3,0.8,0,1.1l-2.9,2.9
		C10,84.7,9.8,84.8,9.6,84.8z"/>
	<path d="M49,117c-0.2,0-0.4-0.1-0.5-0.2c-0.3-0.3-0.3-0.8,0-1.1l2.9-2.9c0.3-0.3,0.8-0.3,1.1,0s0.3,0.8,0,1.1l-2.9,2.9
		C49.4,117,49.2,117,49,117z"/>
	<path class="st1" d="M44.4,105.4L46.3,94l-10.9-3.4l1.8-11.3l-10.9-3.4l1-6.3L13.6,83.3c6.6,14.7,19.8,25.7,35.7,29.5l4.5-4.5
		L44.4,105.4z"/>
	<path d="M61.6,115C32.1,115,8.1,91,8.1,61.6c0-29.5,24-53.4,53.4-53.4c29.5,0,53.4,24,53.4,53.4C115,91,91,115,61.6,115z M61.6,9.6
		C32.9,9.6,9.6,32.9,9.6,61.6c0,28.6,23.3,51.9,51.9,51.9c28.6,0,51.9-23.3,51.9-51.9C113.5,32.9,90.2,9.6,61.6,9.6z"/>
	<path d="M57.9,113.3c-0.4,0-0.8-0.3-0.8-0.8v-5.3c0-0.4,0.3-0.8,0.8-0.8s0.8,0.3,0.8,0.8v5.3C58.7,113,58.3,113.3,57.9,113.3z"/>
	<path d="M42.1,97.7c-0.1,0-0.1,0-0.2,0l-10.9-3.4c-0.4-0.1-0.6-0.5-0.5-0.8l1.7-10.7l-10.3-3.2c-0.4-0.1-0.6-0.5-0.5-0.9l1.6-8.8
		c0.1-0.4,0.5-0.7,0.9-0.6c0.4,0.1,0.7,0.5,0.6,0.9l-1.5,8.2l10.3,3.2c0.4,0.1,0.6,0.5,0.5,0.8L32,93l10.3,3.2
		c0.4,0.1,0.6,0.5,0.5,0.9C42.7,97.5,42.4,97.7,42.1,97.7z"/>
	<path d="M51.8,114.1c-0.2,0-0.4-0.1-0.5-0.2c-0.3-0.3-0.3-0.8,0-1.1l49.6-49.6L79.1,41.5c-0.6,1.1-1.7,1.9-3,2.2
		c-1.8,0.4-3.5-0.2-4.6-1.5c-0.9,2.1-3,3.5-5.4,3.5c-2.4,0-4.5-1.4-5.4-3.5c-0.6,0.7-1.5,1.3-2.5,1.5c-2,0.5-4.1-0.5-5.1-2.2l-40,40
		c-0.3,0.3-0.8,0.3-1.1,0s-0.3-0.8,0-1.1l40.8-40.8c0.2-0.2,0.5-0.3,0.7-0.2c0.3,0.1,0.5,0.3,0.5,0.5c0.5,1.7,2.1,2.6,3.8,2.2
		c1.2-0.3,2.1-1.2,2.4-2.3c0.1-0.4,0.4-0.6,0.8-0.6c0.4,0,0.7,0.3,0.7,0.7c0.1,2.3,2,4.2,4.3,4.2c2.3,0,4.2-1.8,4.3-4.1
		c0-0.4,0.3-0.7,0.7-0.7c0.4,0,0.7,0.2,0.8,0.5c0.5,1.7,2.1,2.7,3.8,2.3c1.1-0.3,2-1.1,2.4-2.3c0.1-0.3,0.3-0.5,0.5-0.5
		c0.3-0.1,0.5,0,0.7,0.2l23.1,23.1c0.3,0.3,0.3,0.8,0,1.1l-50.1,50.1C52.2,114,52,114.1,51.8,114.1z"/>
</g>
</svg>
