<?xml version="1.0" encoding="utf-8"?>
<!-- Generator: Adobe Illustrator 21.0.2, SVG Export Plug-In . SVG Version: 6.00 Build 0)  -->
<svg version="1.1" id="Layer_2" xmlns="http://www.w3.org/2000/svg" xmlns:xlink="http://www.w3.org/1999/xlink" x="0px" y="0px"
	 viewBox="0 0 123.2 123.2" style="enable-background:new 0 0 123.2 123.2;" xml:space="preserve">
<style type="text/css">
	.st0{fill:#6EBF4C;}
	.st1{fill:#C3D962;}
</style>
<g>
	<g>
		<path d="M63.3,115C33.8,115,9.9,91,9.9,61.6c0-29.5,24-53.4,53.4-53.4c29.5,0,53.4,24,53.4,53.4C116.7,91,92.8,115,63.3,115z
			 M63.3,9.6c-28.6,0-51.9,23.3-51.9,51.9c0,28.6,23.3,51.9,51.9,51.9c28.6,0,51.9-23.3,51.9-51.9C115.2,32.9,91.9,9.6,63.3,9.6z"/>
	</g>
	<g>
		<path d="M53.3,90.8H44c-0.4,0-0.8-0.3-0.8-0.8V34.8c0-0.4,0.3-0.8,0.8-0.8h9.2c0.4,0,0.8,0.3,0.8,0.8v55.2
			C54,90.5,53.7,90.8,53.3,90.8z M44.8,89.3h7.8V35.6h-7.8V89.3z"/>
		<rect x="46.3" y="37.1" class="st0" width="4.8" height="50.7"/>
		<path d="M53.3,63.2c-0.2,0-0.4-0.1-0.5-0.2c-0.3-0.3-0.3-0.7-0.1-1.1l24.5-27.6c0.3-0.3,0.7-0.3,1.1-0.1c0.3,0.3,0.3,0.7,0.1,1.1
			L53.8,63C53.7,63.1,53.5,63.2,53.3,63.2z"/>
		<path d="M57,35.6H40.3c-0.4,0-0.8-0.3-0.8-0.8s0.3-0.8,0.8-0.8H57c0.4,0,0.8,0.3,0.8,0.8S57.4,35.6,57,35.6z"/>
		<path d="M57,90.8H40.3c-0.4,0-0.8-0.3-0.8-0.8s0.3-0.8,0.8-0.8H57c0.4,0,0.8,0.3,0.8,0.8S57.4,90.8,57,90.8z"/>
		<path d="M86.3,90.8H69.6c-0.4,0-0.8-0.3-0.8-0.8s0.3-0.8,0.8-0.8h16.8c0.4,0,0.8,0.3,0.8,0.8S86.7,90.8,86.3,90.8z"/>
		<path d="M82.6,35.6H70.3c-0.4,0-0.8-0.3-0.8-0.8s0.3-0.8,0.8-0.8h12.3c0.4,0,0.8,0.3,0.8,0.8S83,35.6,82.6,35.6z"/>
		<path d="M84,90.8H73.2c-0.2,0-0.5-0.1-0.6-0.3L52.7,62.9c-0.2-0.3-0.2-0.8,0.2-1c0.3-0.2,0.8-0.2,1,0.2l19.7,27.3h9L59,55.7
			c-0.2-0.3-0.2-0.8,0.2-1c0.3-0.2,0.8-0.2,1,0.2l24.4,34.8c0.2,0.2,0.2,0.5,0.1,0.8S84.2,90.8,84,90.8z"/>
		<polygon class="st1" points="74.3,87.8 56.2,62.6 59.4,58.9 79.6,87.8 		"/>
	</g>
	<g>
		<path d="M28.1,61.9c-0.4,0-0.8-0.3-0.8-0.8V55c0-0.4,0.3-0.8,0.8-0.8s0.8,0.3,0.8,0.8v6.1C28.9,61.5,28.6,61.9,28.1,61.9z"/>
		<path d="M31.2,58.8h-6.1c-0.4,0-0.8-0.3-0.8-0.8s0.3-0.8,0.8-0.8h6.1c0.4,0,0.8,0.3,0.8,0.8S31.6,58.8,31.2,58.8z"/>
	</g>
	<path d="M95.8,80.9c-2.1,0-3.8-1.7-3.8-3.8s1.7-3.8,3.8-3.8s3.8,1.7,3.8,3.8S97.9,80.9,95.8,80.9z M95.8,74.8c-1.3,0-2.3,1-2.3,2.3
		s1,2.3,2.3,2.3s2.3-1,2.3-2.3S97,74.8,95.8,74.8z"/>
	<circle cx="57" cy="24.5" r="1.4"/>
</g>
</svg>
