<?xml version="1.0" encoding="UTF-8" standalone="no"?>
<!-- Generator: Adobe Illustrator 22.1.0, SVG Export Plug-In . SVG Version: 6.00 Build 0)  -->

<svg
   xmlns:dc="http://purl.org/dc/elements/1.1/"
   xmlns:cc="http://creativecommons.org/ns#"
   xmlns:rdf="http://www.w3.org/1999/02/22-rdf-syntax-ns#"
   xmlns:svg="http://www.w3.org/2000/svg"
   xmlns="http://www.w3.org/2000/svg"
   xmlns:sodipodi="http://sodipodi.sourceforge.net/DTD/sodipodi-0.dtd"
   xmlns:inkscape="http://www.inkscape.org/namespaces/inkscape"
   version="1.1"
   id="Слой_1"
   x="0px"
   y="0px"
   viewBox="0 0 1332 266"
   style="enable-background:new 0 0 1332 266;"
   xml:space="preserve"
   sodipodi:docname="логотип орех русский.svg"
   inkscape:version="0.92.3 (2405546, 2018-03-11)"><metadata
   id="metadata506"><rdf:RDF><cc:Work
       rdf:about=""><dc:format>image/svg+xml</dc:format><dc:type
         rdf:resource="http://purl.org/dc/dcmitype/StillImage" /></cc:Work></rdf:RDF></metadata><defs
   id="defs504" /><sodipodi:namedview
   pagecolor="#ffffff"
   bordercolor="#666666"
   borderopacity="1"
   objecttolerance="10"
   gridtolerance="10"
   guidetolerance="10"
   inkscape:pageopacity="0"
   inkscape:pageshadow="2"
   inkscape:window-width="1766"
   inkscape:window-height="912"
   id="namedview502"
   showgrid="false"
   inkscape:zoom="1.7057057"
   inkscape:cx="778.15462"
   inkscape:cy="-117.13159"
   inkscape:window-x="1440"
   inkscape:window-y="0"
   inkscape:window-maximized="0"
   inkscape:current-layer="g499" />
<style
   type="text/css"
   id="style2">
	.st0{fill:#AAB7B2;}
	.st1{fill:#859D93;}
	.st2{fill:#575A67;}
	.st3{fill:#D2D5E0;}
	.st4{fill:#FFFFFF;}
	.st5{fill:#BFBEBE;}
	.st6{fill:url(#SVGID_1_);}
	.st7{fill:url(#SVGID_2_);}
	.st8{fill:url(#SVGID_3_);}
	.st9{fill:url(#SVGID_4_);}
	.st10{fill:url(#SVGID_5_);}
	.st11{fill:#9B4A19;}
	.st12{fill:#E89E3A;}
	.st13{fill:#E68938;}
	.st14{fill:#434141;stroke:#000000;stroke-miterlimit:10;}
	.st15{fill:#292828;stroke:#000000;stroke-miterlimit:10;}
	.st16{fill:#383838;stroke:#000000;stroke-miterlimit:10;}
	.st17{fill:#6C6969;stroke:#000000;stroke-miterlimit:10;}
	.st18{fill:#282929;stroke:#000000;stroke-miterlimit:10;}
	.st19{opacity:0.3;fill:#D7E1F2;enable-background:new    ;}
	.st20{opacity:0.4;fill:#F2F6FB;enable-background:new    ;}
	.st21{opacity:0.9;fill:#FFFFFF;enable-background:new    ;}
	.st22{fill:#4B9BD4;}
	.st23{fill:#257EBC;}
	.st24{fill:#EDEB7B;}
	.st25{fill:#4B9D45;}
	.st26{fill:none;}
	.st27{fill:#A72D3A;}
	.st28{fill:none;stroke:#A72D3A;stroke-width:4;stroke-miterlimit:10;}
</style>
<g
   id="g499">
	<g
   id="g493">
		<g
   id="g10">
			<path
   class="st0"
   d="M224.7,130c0,0,24.7,3.4,28.8,17.9c3.9,14.1-10,30-10,30l-12.7-9.6c0,0,27.4-25.2-12.2-30     C216.9,130.3,224.7,130,224.7,130z"
   id="path4" />
			<path
   class="st1"
   d="M253.5,147.9c-4-14.5-28.8-17.9-28.8-17.9s-2.4,0.1-4.3,1.6c5,0.9,24,5.1,27.5,17.7     c2.8,10.1-3.5,21.1-7.3,26.5l2.8,2.1C243.4,177.9,257.4,162,253.5,147.9z"
   id="path6" />
			<path
   class="st2"
   d="M243.6,179.8l-15.2-11.4l1.3-1.2c0.1-0.1,10.9-10.2,8.4-18c-1.6-4.9-8.3-8.1-19.8-9.5l-1-0.1l-0.2-1     c-0.6-2.8-0.2-5.2,1.2-7c2.2-2.9,6.2-3.1,6.3-3.1h0.1h0.1c1,0.1,25.7,3.7,29.9,18.9c4.1,14.7-9.7,30.7-10.3,31.3L243.6,179.8z      M232.9,168.2l10.3,7.8c2.9-3.7,12-16.4,8.9-27.7c-3.6-12.9-25.4-16.5-27.4-16.9c-0.5,0.1-2.9,0.4-4.1,2c-0.7,0.9-1,2.1-0.8,3.6     c12.1,1.6,19.2,5.4,21.1,11.4C243.4,156.2,235.9,165,232.9,168.2z"
   id="path8" />
		</g>
		<g
   id="g86">
			<g
   id="g18">
				<path
   class="st0"
   d="M77.2,123.9c0,0-18.9,18.9-28.1,3.8c-3.7,3.8-13.9,4.8-13.9,4.8s18,32.5,46.6-1.8      C84,123.2,77.2,123.9,77.2,123.9z"
   id="path12" />
				<path
   class="st1"
   d="M39.1,131.9c-2.2,0.4-3.9,0.6-3.9,0.6s18,32.5,46.6-1.8c0.7-2.5,0.4-4.1-0.3-5.1      C60.8,150,45.7,139.3,39.1,131.9z"
   id="path14" />
				<path
   class="st2"
   d="M56.2,147.8L56.2,147.8c-14,0-22-14-22.3-14.6l-1.1-1.9l2.2-0.2c2.7-0.3,10.2-1.5,13-4.3l1.3-1.3l1,1.6      c2.1,3.5,4.9,5.2,8.4,5.2l0,0c8.1,0,17.4-9.1,17.5-9.2l0.4-0.4l0.5-0.1c0,0,0.2,0,0.6,0c1,0,3.6,0.2,5,2.2      c1.1,1.5,1.3,3.7,0.5,6.4l-0.1,0.3l-0.2,0.2C73.9,142.3,64.9,147.8,56.2,147.8z M37.6,133.6c2.5,3.6,9.1,11.4,18.6,11.4      c7.7,0,15.9-5,24.3-15c0.3-1.2,0.5-2.7-0.2-3.6c-0.6-0.9-2-1-2.6-1c-2,1.9-10.7,9.7-19.1,9.7l0,0c-4,0-7.3-1.7-9.9-5.2      C45.6,132,40.6,133.1,37.6,133.6z"
   id="path16" />
			</g>
			<g
   id="g28">
				<g
   id="g22">
					<path
   class="st3"
   d="M26,126.3c0,0-0.3,8.9,10.4,8.8c10.7-0.2,25.9-9,15.8-25.1C44.1,110.8,26,126.3,26,126.3z"
   id="path20" />
				</g>
				<g
   id="g26">
					<path
   class="st2"
   d="M36.2,136.5c-3.8,0-6.8-1.1-8.8-3.2c-2.9-3-2.8-6.9-2.8-7v-0.6l0.5-0.4c0.8-0.6,18.5-15.7,27-16.7l0.9-0.1       l0.5,0.8c5,7.9,3.8,13.8,1.9,17.3c-3.7,6.8-12.4,9.9-18.9,10L36.2,136.5z M27.5,126.9c0.1,1,0.5,2.9,1.9,4.4       c1.5,1.5,3.7,2.3,6.7,2.3h0.3c5.9-0.1,13.4-3,16.4-8.5c2.1-3.9,1.7-8.4-1.3-13.6C45.1,113,32.6,122.6,27.5,126.9z"
   id="path24" />
				</g>
			</g>
			<g
   id="g42">
				<g
   id="g32">
					<path
   class="st4"
   d="M31.8,78c0,0-3.3-13.8,11.3-18.2c3.1-0.6,10.6,1.4,9.9,6.1c0,0-8.6,6-6.2,12.9c2.4,7,12.9,20.8,4.9,32       c1.4,15.5-25.8,31.5-35.5,3.1C18,92.2,20.7,78.3,31.8,78z"
   id="path30" />
				</g>
				<g
   id="g36">
					<path
   class="st3"
   d="M46.7,78.8c-2.4-7,6.2-12.9,6.2-12.9c0.7-4.6-6.8-6.6-9.9-6.1c-0.4,0.1-0.8,0.2-1.1,0.4       c3,0.8,5.9,2.7,5.5,5.7c0,0-8.6,6-6.2,12.9c2.4,7,12.9,20.8,4.9,32c0.8,8.4-6.9,16.9-15.5,18.5c10.7,2,22-8.3,21.1-18.5       C59.6,99.6,49.1,85.7,46.7,78.8z"
   id="path34" />
				</g>
				<g
   id="g40">
					<path
   class="st2"
   d="M33.3,130.9c-4.8,0-13.6-2.2-18.5-16.6l-0.1-0.3v-0.3c1.6-19.3,3.9-35.4,15.4-37       c-0.4-4.1-0.1-14.5,12.5-18.3h0.2c0.4-0.1,0.9-0.1,1.4-0.1c2.9,0,6.9,1.2,8.9,3.5c1.1,1.2,1.5,2.7,1.3,4.3l-0.1,0.6L53.8,67       c-0.1,0.1-7.7,5.4-5.7,11.3c0.5,1.4,1.4,3.2,2.4,5.2c3.6,7.3,8.9,18.3,2.7,27.6c0.2,4.4-1.6,9.1-5.1,12.8       C44.1,128.3,38.6,130.9,33.3,130.9z M17.7,113.7c3.2,9.3,8.8,14.4,15.7,14.4c4.5,0,9.2-2.2,12.6-6c3.1-3.4,4.6-7.4,4.3-11.2       v-0.5l0.3-0.4c5.7-8,0.9-17.9-2.6-25.1c-1-2.1-2-4-2.5-5.6c-2.3-6.8,4.2-12.6,6.2-14.1c0-0.5-0.2-1-0.6-1.5       c-1.3-1.6-4.5-2.5-6.7-2.5c-0.3,0-0.6,0-0.8,0.1c-13.1,4-10.4,16-10.2,16.5l0.4,1.7H32C22.4,79.7,19.6,91.6,17.7,113.7z"
   id="path38" />
				</g>
			</g>
			<g
   id="g56">
				<g
   id="g46">
					<path
   class="st3"
   d="M32.8,82.8c0,0-11.3-3.3-14.8-2.4S3.2,89.8,4.3,94.7s1.2,8.6,3.2,8.4c2-0.1,11.2-8.1,24.8-7.4       C36.6,94.7,36.3,86.1,32.8,82.8z"
   id="path44" />
				</g>
				<g
   id="g50">
					<path
   class="st4"
   d="M4.8,97.4c2.9-4.5,10-9.6,12.6-10.2c3.5-0.9,14.8,2.4,14.8,2.4c1.1,1.1,1.9,2.7,2.4,4.4       c1.8-2.9,1-8.7-1.8-11.2c0,0-11.3-3.3-14.8-2.4S3.2,89.8,4.3,94.7C4.5,95.6,4.6,96.5,4.8,97.4z"
   id="path48" />
				</g>
				<g
   id="g54">
					<path
   class="st2"
   d="M7.3,104.5c-2.6,0-3.2-2.9-3.9-6.6C3.2,97,3,96,2.8,94.9c-1.3-6,10.9-15.1,14.8-16       c0.5-0.1,1.1-0.2,1.9-0.2c4.6,0,13.3,2.5,13.7,2.7l0.3,0.1l0.2,0.2c2.6,2.4,3.8,7.3,2.8,11.1c-0.6,2.3-2,3.9-4,4.3h-0.2h-0.2       C22.5,96.6,15,100.8,11,103c-1.7,0.9-2.7,1.5-3.5,1.5C7.5,104.5,7.4,104.5,7.3,104.5z M7.3,101.7v1.4V101.7L7.3,101.7z        M19.5,81.6c-0.6,0-1,0.1-1.2,0.1c-3.5,0.9-13.5,9-12.7,12.6c0.2,1.1,0.4,2.1,0.6,3.1c0.3,1.6,0.7,3.7,1.1,4.2       c0.3-0.1,1.3-0.7,2.2-1.2c3.9-2.2,11.3-6.2,20.9-6.2c0.5,0,1.1,0,1.6,0c1-0.3,1.5-1.4,1.7-2.2c0.7-2.6-0.1-6.2-1.8-8       C30.4,83.6,23.2,81.6,19.5,81.6z"
   id="path52" />
				</g>
			</g>
			<g
   id="g70">
				<g
   id="g60">
					<path
   class="st3"
   d="M36.1,94.7c0,0-12.5-3.8-16-2.9s-14.8,9.4-13.7,14.3s1.2,8.6,3.2,8.4c2-0.1,11.2-8.1,24.8-7.4       C38.8,106.1,39.7,98,36.1,94.7z"
   id="path58" />
				</g>
				<g
   id="g64">
					<path
   class="st4"
   d="M21.3,98.6c3.5-0.9,16,2.9,16,2.9c0.3,0.3,0.6,0.6,0.8,0.9c0.5-2.7-0.1-6-2-7.8c0,0-12.5-3.8-16-2.9       S5.3,101.1,6.4,106c0.5,2.3,0.8,4.2,1.2,5.7C8.1,106.9,18.1,99.4,21.3,98.6z"
   id="path62" />
				</g>
				<g
   id="g68">
					<path
   class="st2"
   d="M9.5,116c-2.6,0-3.2-2.9-3.9-6.6c-0.2-0.9-0.4-1.9-0.6-3c-1.3-6,10.9-15.1,14.8-16c0.5-0.1,1-0.2,1.7-0.2       c4.7,0,14.6,3,15.1,3.1l0.3,0.1l0.2,0.2c2.3,2.1,3.2,6.2,2.3,9.8c-0.7,2.8-2.4,4.6-4.6,5.2h-0.2h-0.2       c-9.7-0.5-17.3,3.7-21.2,5.8c-1.7,0.9-2.7,1.5-3.5,1.5C9.6,116,9.6,116,9.5,116z M9.5,113.1v1.4V113.1L9.5,113.1z M21.5,93.1       c-0.5,0-0.8,0-1,0.1C17,94,7,102.2,7.8,105.8c0.2,1.1,0.4,2.1,0.6,3.1c0.3,1.6,0.7,3.7,1.1,4.2c0.3-0.1,1.3-0.7,2.2-1.2       c3.9-2.2,11.3-6.2,20.9-6.2c0.5,0,1.1,0,1.6,0c1.5-0.5,2.1-2.3,2.3-3.1c0.7-2.5,0.1-5.2-1.2-6.7C33.6,95.4,25.3,93.1,21.5,93.1       z"
   id="path66" />
				</g>
			</g>
			<g
   id="g84">
				<g
   id="g74">
					<path
   class="st3"
   d="M39.1,104.4c0,0-12.1-2-15.6-1.1C20,104.2,8.1,112.1,9,116.2c0.9,3.7,0.8,4.7,2.7,6l0,0       c0,0,4,1.8,11.6,1.2l-2.6-3.3l2.5-3.6c0,0,12.1,0.1,15-1C42.6,114.5,42.6,107.1,39.1,104.4z"
   id="path72" />
				</g>
				<g
   id="g78">
					<path
   class="st4"
   d="M24.2,111.5c3.5-0.8,15.6,1.1,15.6,1.1c0.3,0.3,0.6,0.6,0.9,0.9c1.6-2.6,0.9-7.1-1.6-9.1       c0,0-12.1-2-15.6-1.1C20,104.2,8.1,112.1,9,116.2c0.7,2.9,0.8,4.1,1.6,5.1C13.5,117.2,21.5,112.1,24.2,111.5z"
   id="path76" />
				</g>
				<g
   id="g82">
					<path
   class="st2"
   d="M40,103.3l-0.3-0.2l-0.4-0.1c-1.3-0.2-12.5-2-16.2-1.1c-3.4,0.8-16.8,9.1-15.6,14.6c0.1,0.6,0.2,1,0.3,1.5       c0.5,2.5,0.8,3.8,2.8,5.3c0.6,0.5,3,2.6,8.8,2.6c0.7,0,1.5,0,2.3-0.1l1.1-2.8l-1.3-0.1c-4.3,0.4-6.8-0.5-8-1.1l-1.1-0.8       c-1.2-0.8-1.2-1.2-1.8-3.6c-0.1-0.4-0.2-1-0.3-1.5c-0.6-2.7,9.6-10.3,13.4-11.2c2.6-0.6,11.1,0.5,14.7,1.1       c1.1,1,1.7,2.8,1.7,4.5l0,0c0,0,1.4,6.3-17.7,6.1c0.8,0,6.5,3,16.1,0.5c2.1-0.5,3.7-2.2,4.2-4.7       C43.6,108.9,42.4,105.2,40,103.3z"
   id="path80" />
				</g>
			</g>
		</g>
		<g
   id="g149">
			<path
   class="st5"
   d="M206,203.7c-2.8,3-5.9,5.7-9.4,8.1c-8.7,6-19,9.9-31.3,11.8h-0.1c-4.1,0.5-9.7,0.7-16.6,0.7l0,0     c-10.2,0-19.7-0.5-20.1-0.6h-0.1c-7.7-1.1-15-3-21.6-5.9c-8.6-3.7-15.9-9-21.7-15.8c-25.7,3.2-42.6,8.6-42.6,14.7     c0,9.8,43.6,17.7,97.4,17.7s97.4-7.9,97.4-17.7C237.3,211.6,225.3,206.9,206,203.7z"
   id="path88" />
			
				<linearGradient
   id="SVGID_1_"
   gradientUnits="userSpaceOnUse"
   x1="163.7008"
   y1="-393.2903"
   x2="88.2492"
   y2="-328.4727"
   gradientTransform="matrix(1 0 0 -1 0 -256)">
				<stop
   offset="0"
   style="stop-color:#CE6E28"
   id="stop90" />
				<stop
   offset="1"
   style="stop-color:#C8872E"
   id="stop92" />
			</linearGradient>
			<path
   class="st6"
   d="M113.4,32.5C102.1,48.2,93.6,65.3,87,83.4c-3.6,9.9-6.7,20-8.7,30.3c-1.1,5.7-1.8,11.5-2.6,17.3     c-0.3,2.4-0.4,4.8-0.6,7.2c0,0.2-0.1,0.4-0.1,0.6c0,3.4,0,6.9,0,10.3c0.1,1.4,0.2,2.8,0.3,4.3c0.5,7.8,1.7,15.5,3.9,23     c2.5,8.5,6.3,16.3,11.9,23.2c0.5,0.6,0.9,1.1,1.4,1.6c5.6-0.6,11.6-1,17.8-1.4c-0.2-0.5-0.3-0.9-0.5-1.4s-0.3-0.9-0.5-1.4     s-0.3-0.9-0.5-1.4c-0.1-0.5-0.3-0.9-0.4-1.4c-0.6-1.9-1.1-3.8-1.5-5.7c-0.1-0.5-0.2-0.9-0.3-1.4c-0.1-0.5-0.2-0.9-0.3-1.4     c-0.1-0.5-0.2-0.9-0.3-1.4c-0.1-0.5-0.2-0.9-0.2-1.4c-0.1-0.5-0.1-0.9-0.2-1.4c-0.1-0.4-0.1-0.9-0.2-1.3     c-0.1-0.9-0.2-1.7-0.3-2.6c0-0.4-0.1-0.8-0.1-1.2s-0.1-0.8-0.1-1.2c-0.1-0.8-0.1-1.6-0.2-2.3c0-0.7-0.1-1.4-0.1-2.1     c0-0.3,0-0.7,0-1s0-0.6,0-0.9c0-0.6,0-1.2,0-1.7c0-0.3,0-0.5,0-0.7s0-0.5,0-0.7c0-1.7,0.1-2.7,0.1-2.7s0,1,0.1,2.7     c0,0.2,0,0.4,0,0.7c0,0.2,0,0.5,0,0.7c0,0.5,0.1,1.1,0.1,1.7c0,0.3,0,0.6,0.1,0.9c0,0.3,0.1,0.6,0.1,1c0.1,0.7,0.1,1.4,0.2,2.1     c0.1,0.7,0.2,1.5,0.3,2.3c0.1,0.4,0.1,0.8,0.2,1.2s0.1,0.8,0.2,1.2c0.1,0.8,0.3,1.7,0.5,2.5c0.1,0.4,0.2,0.9,0.3,1.3     c0.1,0.4,0.2,0.9,0.3,1.3c0.1,0.4,0.2,0.9,0.3,1.3c0.1,0.5,0.2,0.9,0.3,1.4c0.1,0.5,0.2,0.9,0.4,1.4c0.1,0.5,0.2,0.9,0.4,1.4     c0.5,1.8,1.1,3.7,1.8,5.5c0.2,0.5,0.3,0.9,0.5,1.4s0.4,0.9,0.5,1.4c0.2,0.4,0.3,0.9,0.5,1.3c0.2,0.4,0.4,0.9,0.6,1.3     c0.1,0.2,0.2,0.4,0.3,0.7c8.7-0.5,17.9-0.7,27.4-0.7c1.7,0,3.4,0,5.1,0l1-33.2l1,33.2c12.3,0.2,23.9,0.7,34.5,1.7     c0.2-0.3,0.3-0.6,0.5-0.9c0.3-0.6,0.7-1.2,1-1.8s0.6-1.2,0.9-1.8c0.3-0.6,0.5-1.2,0.8-1.7c0.1-0.1,0.1-0.3,0.2-0.4     c0.1-0.1,0.1-0.3,0.2-0.4c0.1-0.3,0.2-0.5,0.3-0.8c0.2-0.5,0.4-1,0.6-1.5c0.2-0.5,0.4-1,0.5-1.4c0.1-0.2,0.2-0.5,0.2-0.7     c0.1-0.2,0.1-0.4,0.2-0.6c0.3-0.8,0.5-1.5,0.7-2.1c0.4-1.2,0.6-1.9,0.6-1.9s-0.1,0.7-0.4,1.9c-0.1,0.6-0.3,1.4-0.5,2.2     c-0.1,0.2-0.1,0.4-0.2,0.7c-0.1,0.2-0.1,0.5-0.2,0.7c-0.1,0.5-0.3,1-0.4,1.5c-0.1,0.5-0.3,1.1-0.5,1.6c-0.1,0.3-0.2,0.6-0.3,0.8     c0,0.1-0.1,0.3-0.1,0.4c-0.1,0.1-0.1,0.3-0.2,0.4c-0.2,0.6-0.4,1.2-0.6,1.8c-0.2,0.6-0.5,1.2-0.7,1.8c-0.3,0.6-0.5,1.2-0.8,1.9     c-0.1,0.1-0.1,0.3-0.2,0.4c6.7,0.6,13,1.3,18.7,2.2c5-4.8,9-10.7,12.1-17.4c2.9-6.4,5-13.4,6.1-20.7c0.4-2.7,0.7-5.5,1-8.2     c0.1-1.3,0.3-2.6,0.4-3.9c0-0.3,0.1-0.5,0.1-0.7v-15.9c0-0.5-0.1-1-0.1-1.4c-0.1-1.1-0.2-2.3-0.3-3.4c-0.5-5.7-1.4-11.6-2.8-18     c-3-14.4-7.8-29.1-14.2-43.5c-6.3-14.3-13.2-26.3-21-36.9c-2.3-3.1-4.8-6.2-7.4-9.2c-4.6-5.3-9.2-9.5-14.1-12.7     c-1.3-0.9-2.6-1.6-3.8-2.3c0.4,0.8,0.9,1.6,1.4,2.6c0.6,1.1,1.3,2.3,1.9,3.6c0.3,0.6,0.7,1.3,1,2s0.7,1.4,1,2.1s0.7,1.4,1,2.2     c0.2,0.4,0.3,0.7,0.5,1.1s0.3,0.8,0.5,1.1c0.7,1.5,1.3,3.1,1.9,4.7c0.3,0.8,0.6,1.6,0.9,2.4c0.1,0.4,0.3,0.8,0.4,1.2     c0.1,0.4,0.3,0.8,0.4,1.2c0.3,0.8,0.5,1.6,0.8,2.4c0.2,0.8,0.5,1.6,0.7,2.3c0.1,0.4,0.2,0.8,0.3,1.1c0.1,0.4,0.2,0.8,0.3,1.1     c0.1,0.4,0.2,0.7,0.3,1.1c0.1,0.4,0.2,0.7,0.2,1.1c0.2,0.7,0.3,1.4,0.4,2.1c0.1,0.3,0.1,0.7,0.2,1c0,0.2,0.1,0.3,0.1,0.5     s0,0.3,0.1,0.5c0.1,0.6,0.2,1.2,0.3,1.8s0.1,1.1,0.2,1.6c0.1,0.5,0.1,1,0.1,1.4s0.1,0.9,0.1,1.2c0,0.7,0,1.3,0.1,1.7     c0,0.4,0,0.6,0,0.6s0-0.2-0.1-0.6c0-0.4-0.1-1-0.2-1.7c-0.1-0.4-0.1-0.8-0.2-1.2c-0.1-0.4-0.1-0.9-0.2-1.4     c-0.1-0.5-0.2-1-0.3-1.6s-0.3-1.1-0.4-1.8c0-0.2-0.1-0.3-0.1-0.5s-0.1-0.3-0.1-0.5c-0.1-0.3-0.2-0.6-0.2-1     c-0.2-0.7-0.4-1.3-0.6-2c-0.1-0.3-0.2-0.7-0.3-1c-0.1-0.4-0.2-0.7-0.3-1.1c-0.1-0.4-0.2-0.7-0.4-1.1c-0.1-0.4-0.3-0.7-0.4-1.1     c-0.3-0.7-0.5-1.5-0.8-2.2c-0.3-0.8-0.6-1.5-0.9-2.3c-0.2-0.4-0.3-0.8-0.5-1.1c-0.2-0.4-0.3-0.8-0.5-1.1c-0.3-0.8-0.7-1.5-1-2.3     c-0.7-1.5-1.4-3-2.2-4.5c-0.2-0.4-0.4-0.7-0.6-1.1c-0.2-0.4-0.4-0.7-0.6-1.1c-0.4-0.7-0.8-1.4-1.1-2.1c-0.4-0.7-0.8-1.3-1.1-2     c-0.4-0.6-0.8-1.3-1.1-1.9c-0.7-1.2-1.5-2.4-2.1-3.4c-0.7-1.1-1.3-2-1.9-2.8c-0.6-0.8-1.1-1.6-1.5-2.2s-0.7-1-1-1.3     c-0.5-0.1-0.9-0.3-1.4-0.4c-0.7-0.2-1.4-0.3-2.1-0.4c-0.3-0.1-0.6-0.1-0.8-0.2H148c0,0.1,0,0.1,0,0.2c0,1.3,0,3.2,0.1,5.4     c0,1.1,0,2.3,0,3.6s0,2.6,0,4s0,2.8,0,4.3c0,0.7,0,1.5,0,2.2s0,1.5-0.1,2.2c0,0.7,0,1.5-0.1,2.2c0,0.7-0.1,1.5-0.1,2.2     c0,1.5-0.1,2.9-0.2,4.3c-0.1,1.4-0.2,2.7-0.2,4c0,0.3,0,0.6-0.1,0.9c0,0.3-0.1,0.6-0.1,0.9c-0.1,0.6-0.1,1.2-0.1,1.7     c-0.1,1.1-0.2,2.1-0.3,3c0,0.5-0.1,0.9-0.1,1.3c-0.1,0.4-0.1,0.7-0.2,1.1c-0.2,1.3-0.3,2-0.3,2s0.1-0.7,0.1-2     c0-0.3,0-0.7,0.1-1.1c0-0.4,0-0.8,0-1.3c0-0.9,0.1-1.9,0.1-3c0-0.6,0-1.1,0-1.7c0-0.3,0-0.6,0-0.9c0-0.3,0-0.6,0-0.9     c0-1.3,0-2.6-0.1-4c0-1.4-0.1-2.8-0.1-4.3c0-0.7-0.1-1.5-0.1-2.2s-0.1-1.5-0.1-2.2S146,26,146,25.3s-0.1-1.5-0.1-2.2     c-0.1-1.5-0.2-2.9-0.3-4.3s-0.2-2.7-0.3-4s-0.2-2.5-0.3-3.6c-0.2-2.2-0.3-4.1-0.5-5.4c0-0.1,0-0.2,0-0.3     c-0.4,0.1-0.9,0.2-1.3,0.3c-0.5,0.1-0.9,0.2-1.4,0.3c-1.3,0.6-2.6,1.2-3.9,2c-0.4,0.6-0.8,1.2-1.3,1.9c-0.7,1-1.4,2.1-2.2,3.4     s-1.6,2.6-2.5,4.1c-0.4,0.7-0.8,1.5-1.3,2.3c-0.4,0.8-0.9,1.6-1.3,2.4c-0.2,0.4-0.4,0.8-0.7,1.2c-0.2,0.4-0.4,0.8-0.6,1.3     c-0.4,0.8-0.9,1.7-1.3,2.6s-0.8,1.8-1.3,2.7c-0.4,0.9-0.8,1.8-1.2,2.7c-0.8,1.8-1.6,3.6-2.3,5.5c-0.4,0.9-0.7,1.8-1,2.7     s-0.7,1.8-1,2.7c-0.6,1.8-1.2,3.5-1.7,5.1c-0.2,0.8-0.5,1.6-0.7,2.4c-0.2,0.8-0.4,1.5-0.6,2.2s-0.4,1.4-0.5,2.1     c-0.2,0.7-0.3,1.3-0.5,1.9c-0.1,0.6-0.3,1.1-0.4,1.7c-0.1,0.5-0.2,1-0.3,1.4c-0.3,1.7-0.5,2.7-0.5,2.7s0.1-1,0.4-2.7     c0.1-0.4,0.1-0.9,0.2-1.4s0.2-1.1,0.3-1.7c0.1-0.6,0.2-1.2,0.4-1.9c0.1-0.7,0.2-1.4,0.4-2.1c0.2-0.7,0.3-1.5,0.5-2.3     s0.4-1.6,0.6-2.4c0.4-1.7,0.9-3.4,1.4-5.2c0.2-0.9,0.5-1.8,0.8-2.7s0.6-1.9,0.9-2.8c0.6-1.9,1.3-3.8,2-5.6     c0.4-0.9,0.7-1.9,1.1-2.8s0.7-1.9,1.1-2.8s0.8-1.8,1.2-2.7c0.2-0.4,0.4-0.9,0.6-1.3s0.4-0.9,0.6-1.3c0.4-0.9,0.8-1.7,1.2-2.5     c0.4-0.8,0.8-1.6,1.2-2.4c0.6-1.3,1.3-2.5,1.9-3.6C124.5,18.4,118.7,25.2,113.4,32.5z M95,125.4c0.5,10.3,0.6,20,2,29.9     c1.1,7.3,2.3,19.9-2,25.9c-6.5-2.5-5.4-12.4-6.1-17.8c-1.2-8.5-2.2-16.7-2.6-25.4c-0.8-21.8,7.6-41.1,12.2-62.2l-3,25.3     C94.8,109.2,94.6,117.3,95,125.4z M188.4,63.3c0.1,0.2,0.3,0.4,0.5,0.7c0.4,0.6,1,1.5,1.7,2.7s1.6,2.6,2.5,4.3     c0.5,0.8,0.9,1.7,1.5,2.7c0.5,1,1,2,1.5,3c0.5,1.1,1,2.2,1.6,3.4c0.3,0.6,0.5,1.2,0.8,1.8c0.3,0.6,0.5,1.2,0.8,1.9     c1,2.5,2.1,5.2,3,8c0.2,0.7,0.5,1.4,0.7,2.1s0.5,1.4,0.7,2.2c0.4,1.5,0.9,3,1.3,4.5c0.4,1.5,0.8,3,1.1,4.6s0.6,3.1,0.9,4.7     c0.5,3.1,1,6.3,1.2,9.4c0.1,0.8,0.1,1.6,0.2,2.3c0,0.8,0.1,1.6,0.1,2.3c0.1,1.5,0.1,3.1,0,4.6c0,3-0.2,5.9-0.6,8.6     c-0.3,2.7-0.8,5.3-1.3,7.6s-1.1,4.4-1.7,6.3c-0.1,0.5-0.3,0.9-0.5,1.3c-0.1,0.4-0.3,0.8-0.4,1.2c-0.3,0.8-0.6,1.5-0.8,2.1     c-0.3,0.6-0.5,1.2-0.7,1.7s-0.4,0.9-0.6,1.2c-0.3,0.7-0.5,1-0.5,1s0.1-0.4,0.3-1.1c0.1-0.4,0.2-0.8,0.4-1.3     c0.1-0.5,0.3-1.1,0.5-1.8s0.3-1.4,0.5-2.2c0.1-0.4,0.2-0.8,0.3-1.3c0.1-0.4,0.2-0.9,0.3-1.4s0.2-0.9,0.3-1.4s0.2-1,0.3-1.5     c0-0.3,0.1-0.5,0.1-0.8s0.1-0.5,0.1-0.8c0.1-0.6,0.2-1.1,0.2-1.7c0.1-0.6,0.1-1.2,0.2-1.8c0.1-0.6,0.1-1.2,0.2-1.8     c0.1-1.2,0.2-2.5,0.3-3.9c0.1-2.7,0.2-5.5,0.1-8.4c0-1.4-0.1-2.9-0.2-4.4c-0.1-1.5-0.2-3-0.4-4.5c-0.3-3-0.8-6.1-1.3-9.1     c-0.5-3.1-1.2-6.1-1.9-9.1c-0.1-0.4-0.2-0.7-0.3-1.1s-0.2-0.7-0.3-1.1c-0.2-0.7-0.4-1.5-0.6-2.2c-0.4-1.4-0.8-2.9-1.2-4.3     c-0.8-2.8-1.7-5.5-2.5-8c-0.9-2.5-1.7-4.9-2.5-7.1c-1.6-4.4-3.2-8-4.3-10.5c-0.5-1.3-1-2.3-1.3-2.9c-0.3-0.7-0.5-1-0.5-1     S188.3,63.1,188.4,63.3z M177.9,90.1l2,4.1c0.1,5.5,6.8,14.6,7.6,22.3c1.2,11,1.5,21.4,0.5,32.3c-0.8,8.4,1.8,23.7-6.2,29.4     c-10.9,7.8-3.8-12.3-2.9-16.6C183.4,138.6,185.9,113,177.9,90.1z"
   id="path95" />
			<path
   class="st5"
   d="M162.6,219.6c0,0,0.2-0.1,0.3-0.1c0.3-0.1,0.7-0.3,1.2-0.6s1.1-0.6,1.8-1.1s1.5-1,2.3-1.6s1.7-1.3,2.6-2.1     c0.5-0.4,0.9-0.8,1.4-1.2c0.2-0.2,0.5-0.4,0.7-0.7c0.2-0.2,0.5-0.4,0.7-0.7c0.5-0.5,0.9-0.9,1.4-1.5c0.2-0.3,0.5-0.5,0.7-0.8     s0.4-0.5,0.7-0.8l0.3-0.4l0.3-0.4c0.2-0.3,0.4-0.5,0.6-0.8c0.4-0.6,0.8-1.1,1.2-1.7c0.4-0.6,0.8-1.2,1.2-1.7     c0.2-0.3,0.4-0.6,0.6-0.9c0.2-0.3,0.4-0.6,0.5-0.9c0.2-0.3,0.4-0.6,0.5-0.9l0,0c-10.6-0.9-22.2-1.5-34.5-1.7l0.7,21.7     c0.3,0,0.6,0,0.9,0l0,0c5.6,0,10.3-0.2,14-0.5l-0.3-0.6C162.4,219.6,162.5,219.6,162.6,219.6z"
   id="path97" />
			
				<linearGradient
   id="SVGID_2_"
   gradientUnits="userSpaceOnUse"
   x1="127.8397"
   y1="-435.0348"
   x2="52.388"
   y2="-370.2172"
   gradientTransform="matrix(1 0 0 -1 0 -256)">
				<stop
   offset="0"
   style="stop-color:#CE6E28"
   id="stop99" />
				<stop
   offset="1"
   style="stop-color:#C8872E"
   id="stop101" />
			</linearGradient>
			<path
   class="st7"
   d="M162.6,219.6c0,0,0.2-0.1,0.3-0.1c0.3-0.1,0.7-0.3,1.2-0.6s1.1-0.6,1.8-1.1s1.5-1,2.3-1.6s1.7-1.3,2.6-2.1     c0.5-0.4,0.9-0.8,1.4-1.2c0.2-0.2,0.5-0.4,0.7-0.7c0.2-0.2,0.5-0.4,0.7-0.7c0.5-0.5,0.9-0.9,1.4-1.5c0.2-0.3,0.5-0.5,0.7-0.8     s0.4-0.5,0.7-0.8l0.3-0.4l0.3-0.4c0.2-0.3,0.4-0.5,0.6-0.8c0.4-0.6,0.8-1.1,1.2-1.7c0.4-0.6,0.8-1.2,1.2-1.7     c0.2-0.3,0.4-0.6,0.6-0.9c0.2-0.3,0.4-0.6,0.5-0.9c0.2-0.3,0.4-0.6,0.5-0.9l0,0c-10.6-0.9-22.2-1.5-34.5-1.7l0.7,21.7     c0.3,0,0.6,0,0.9,0l0,0c5.6,0,10.3-0.2,14-0.5l-0.3-0.6C162.4,219.6,162.5,219.6,162.6,219.6z"
   id="path104" />
			<path
   class="st5"
   d="M112.5,199.7L112.5,199.7c0.1,0.2,0.2,0.4,0.3,0.6c0.2,0.4,0.4,0.9,0.6,1.3c0.2,0.4,0.4,0.8,0.6,1.2     s0.4,0.8,0.6,1.2s0.4,0.8,0.6,1.2s0.4,0.8,0.6,1.2c0.4,0.8,0.9,1.5,1.3,2.2c0.9,1.4,1.7,2.7,2.5,3.9c0.4,0.6,0.8,1.2,1.2,1.7     c0.4,0.5,0.8,1,1.1,1.5c0.7,0.9,1.3,1.7,1.9,2.3c0.5,0.6,1,1.1,1.3,1.4l0,0c1.2,0.2,2.5,0.4,3.8,0.6c0.8,0,7.5,0.4,15.5,0.5     l0.7-21.7c-1.7,0-3.4,0-5.1,0C130.4,199,121.2,199.2,112.5,199.7z"
   id="path106" />
			
				<linearGradient
   id="SVGID_3_"
   gradientUnits="userSpaceOnUse"
   x1="116.0616"
   y1="-448.7449"
   x2="40.61"
   y2="-383.9274"
   gradientTransform="matrix(1 0 0 -1 0 -256)">
				<stop
   offset="0"
   style="stop-color:#CE6E28"
   id="stop108" />
				<stop
   offset="1"
   style="stop-color:#C8872E"
   id="stop110" />
			</linearGradient>
			<path
   class="st8"
   d="M112.5,199.7L112.5,199.7c0.1,0.2,0.2,0.4,0.3,0.6c0.2,0.4,0.4,0.9,0.6,1.3c0.2,0.4,0.4,0.8,0.6,1.2     s0.4,0.8,0.6,1.2s0.4,0.8,0.6,1.2s0.4,0.8,0.6,1.2c0.4,0.8,0.9,1.5,1.3,2.2c0.9,1.4,1.7,2.7,2.5,3.9c0.4,0.6,0.8,1.2,1.2,1.7     c0.4,0.5,0.8,1,1.1,1.5c0.7,0.9,1.3,1.7,1.9,2.3c0.5,0.6,1,1.1,1.3,1.4l0,0c1.2,0.2,2.5,0.4,3.8,0.6c0.8,0,7.5,0.4,15.5,0.5     l0.7-21.7c-1.7,0-3.4,0-5.1,0C130.4,199,121.2,199.2,112.5,199.7z"
   id="path113" />
			<path
   class="st5"
   d="M113.3,216.2c1.2,0.5,2.5,1,3.7,1.5c1,0.3,1.9,0.5,2.9,0.8c-0.2-0.3-0.4-0.5-0.6-0.8     c-0.3-0.5-0.7-1.1-1.1-1.6c-0.4-0.6-0.8-1.2-1.1-1.8c-0.8-1.3-1.6-2.7-2.4-4.2c-0.4-0.8-0.8-1.5-1.2-2.4     c-0.2-0.4-0.4-0.8-0.6-1.2s-0.4-0.8-0.6-1.3c-0.2-0.4-0.4-0.9-0.6-1.3c-0.2-0.4-0.4-0.9-0.6-1.3c-0.2-0.4-0.4-0.9-0.5-1.3     c-0.1-0.2-0.2-0.5-0.3-0.7c-0.1-0.2-0.2-0.5-0.3-0.7l0,0c-6.2,0.4-12.2,0.8-17.8,1.4C98.2,207.8,105.2,212.7,113.3,216.2z"
   id="path115" />
			
				<linearGradient
   id="SVGID_4_"
   gradientUnits="userSpaceOnUse"
   x1="105.689"
   y1="-460.8195"
   x2="30.2372"
   y2="-396.0018"
   gradientTransform="matrix(1 0 0 -1 0 -256)">
				<stop
   offset="0"
   style="stop-color:#CE6E28"
   id="stop117" />
				<stop
   offset="1"
   style="stop-color:#C8872E"
   id="stop119" />
			</linearGradient>
			<path
   class="st9"
   d="M113.3,216.2c1.2,0.5,2.5,1,3.7,1.5c1,0.3,1.9,0.5,2.9,0.8c-0.2-0.3-0.4-0.5-0.6-0.8     c-0.3-0.5-0.7-1.1-1.1-1.6c-0.4-0.6-0.8-1.2-1.1-1.8c-0.8-1.3-1.6-2.7-2.4-4.2c-0.4-0.8-0.8-1.5-1.2-2.4     c-0.2-0.4-0.4-0.8-0.6-1.2s-0.4-0.8-0.6-1.3c-0.2-0.4-0.4-0.9-0.6-1.3c-0.2-0.4-0.4-0.9-0.6-1.3c-0.2-0.4-0.4-0.9-0.5-1.3     c-0.1-0.2-0.2-0.5-0.3-0.7c-0.1-0.2-0.2-0.5-0.3-0.7l0,0c-6.2,0.4-12.2,0.8-17.8,1.4C98.2,207.8,105.2,212.7,113.3,216.2z"
   id="path122" />
			<path
   class="st5"
   d="M182.8,201.3c-0.2,0.3-0.3,0.6-0.5,1c-0.2,0.3-0.3,0.6-0.5,1c-0.2,0.3-0.3,0.6-0.5,1     c-0.3,0.6-0.7,1.3-1.1,1.9c-0.4,0.6-0.8,1.2-1.2,1.8c-0.2,0.3-0.4,0.6-0.6,0.9l-0.3,0.4l-0.3,0.4c-0.2,0.3-0.4,0.6-0.6,0.9     c-0.2,0.3-0.4,0.6-0.6,0.8c-0.4,0.6-0.9,1.1-1.3,1.6c-0.2,0.3-0.4,0.5-0.7,0.8c-0.2,0.3-0.4,0.5-0.7,0.8c-0.4,0.5-0.9,1-1.3,1.4     c-0.9,0.9-1.8,1.7-2.6,2.5c-0.3,0.3-0.6,0.6-1,0.8c9.9-2,18.3-5.4,25.5-10.4c2.5-1.8,4.9-3.7,7.1-5.8c-5.7-0.9-12-1.6-18.7-2.2     C183,201,182.9,201.2,182.8,201.3z"
   id="path124" />
			
				<linearGradient
   id="SVGID_5_"
   gradientUnits="userSpaceOnUse"
   x1="136.3398"
   y1="-425.1401"
   x2="60.8882"
   y2="-360.3224"
   gradientTransform="matrix(1 0 0 -1 0 -256)">
				<stop
   offset="0"
   style="stop-color:#CE6E28"
   id="stop126" />
				<stop
   offset="1"
   style="stop-color:#C8872E"
   id="stop128" />
			</linearGradient>
			<path
   class="st10"
   d="M182.8,201.3c-0.2,0.3-0.3,0.6-0.5,1c-0.2,0.3-0.3,0.6-0.5,1c-0.2,0.3-0.3,0.6-0.5,1     c-0.3,0.6-0.7,1.3-1.1,1.9c-0.4,0.6-0.8,1.2-1.2,1.8c-0.2,0.3-0.4,0.6-0.6,0.9l-0.3,0.4l-0.3,0.4c-0.2,0.3-0.4,0.6-0.6,0.9     c-0.2,0.3-0.4,0.6-0.6,0.8c-0.4,0.6-0.9,1.1-1.3,1.6c-0.2,0.3-0.4,0.5-0.7,0.8c-0.2,0.3-0.4,0.5-0.7,0.8c-0.4,0.5-0.9,1-1.3,1.4     c-0.9,0.9-1.8,1.7-2.6,2.5c-0.3,0.3-0.6,0.6-1,0.8c9.9-2,18.3-5.4,25.5-10.4c2.5-1.8,4.9-3.7,7.1-5.8c-5.7-0.9-12-1.6-18.7-2.2     C183,201,182.9,201.2,182.8,201.3z"
   id="path131" />
			<path
   class="st4"
   d="M139.7,6.7c-0.3,0.1-0.6,0.2-0.9,0.3c-0.1,0.2-0.2,0.3-0.3,0.5s-0.3,0.4-0.4,0.6c1.2-0.7,2.5-1.4,3.9-2     C141.1,6.3,140.4,6.5,139.7,6.7z"
   id="path133" />
			<path
   class="st4"
   d="M108.3,214.6c2.8,1.2,5.7,2.2,8.7,3.1c-1.3-0.5-2.5-1-3.7-1.5c-8-3.5-15-8.4-20.8-15     c-0.5-0.5-0.9-1.1-1.4-1.6c-5.6-6.9-9.4-14.7-11.9-23.2c-2.2-7.5-3.4-15.2-3.9-23c-0.1-1.4-0.2-2.8-0.3-4.3c0-3.4,0-6.9,0-10.3     c0-0.2,0.1-0.4,0.1-0.6c0.2-2.4,0.2-4.8,0.6-7.2c0.8-5.8,1.5-11.6,2.6-17.3c2-10.3,5-20.4,8.7-30.3c6.7-18.1,15.2-35.2,26.5-50.9     c5.3-7.3,11.1-14.1,18.1-19.8c0.1-0.2,0.3-0.5,0.4-0.7c0.4-0.8,0.9-1.6,1.3-2.3c-1.9,1.2-3.9,2.6-6.1,4.3     c-6.2,5-11.9,11.2-17.9,19.6C98.7,48.1,90.1,64.6,83,84c-3.9,10.7-6.8,20.5-8.6,30c-1,4.9-1.6,10-2.3,15     c-0.1,0.7-0.2,1.5-0.3,2.2c-0.2,1.5-0.3,3.1-0.4,4.7c0,0.8-0.1,1.6-0.1,2.4c0,0.3-0.1,0.5-0.1,0.7v10c0,0.4,0.1,0.9,0.1,1.3     c0.1,1,0.2,2,0.2,2.9c0.5,8.3,1.8,15.7,3.8,22.6c2.6,8.9,6.4,16.3,11.6,22.6C92.4,205.4,99.7,210.8,108.3,214.6z"
   id="path135" />
			<path
   class="st11"
   d="M145,11.3c0.1,1.1,0.2,2.3,0.3,3.6s0.2,2.6,0.3,4s0.2,2.8,0.3,4.3c0,0.7,0.1,1.5,0.1,2.2s0.1,1.5,0.1,2.2     s0.1,1.5,0.1,2.2s0.1,1.5,0.1,2.2c0.1,1.5,0.1,2.9,0.1,4.3c0,1.4,0,2.7,0.1,4c0,0.3,0,0.6,0,0.9c0,0.3,0,0.6,0,0.9     c0,0.6,0,1.2,0,1.7c0,1.1-0.1,2.1-0.1,3c0,0.5,0,0.9,0,1.3c0,0.4-0.1,0.8-0.1,1.1c-0.1,1.3-0.1,2-0.1,2s0.1-0.7,0.3-2     c0-0.3,0.1-0.7,0.2-1.1c0-0.4,0.1-0.8,0.1-1.3c0.1-0.9,0.2-1.9,0.3-3c0-0.6,0.1-1.1,0.1-1.7c0-0.3,0-0.6,0.1-0.9     c0-0.3,0-0.6,0.1-0.9c0.1-1.3,0.2-2.6,0.2-4c0.1-1.4,0.1-2.8,0.2-4.3c0-0.7,0.1-1.5,0.1-2.2s0-1.5,0.1-2.2c0-0.7,0-1.5,0.1-2.2     c0-0.7,0-1.5,0-2.2c0-1.5,0-2.9,0-4.3s0-2.8,0-4c0-1.3,0-2.5,0-3.6c0-2.2,0-4.1-0.1-5.4c0-0.1,0-0.1,0-0.2h-3.1     c-0.1,0-0.2,0-0.3,0.1c0,0.1,0,0.2,0,0.3C144.6,7.2,144.8,9,145,11.3z"
   id="path137" />
			<path
   class="st11"
   d="M172.7,216c0.4-0.4,0.9-0.9,1.3-1.4c0.2-0.2,0.4-0.5,0.7-0.8c0.2-0.3,0.4-0.5,0.7-0.8     c0.4-0.5,0.9-1.1,1.3-1.6c0.2-0.3,0.4-0.6,0.6-0.8c0.2-0.3,0.4-0.6,0.6-0.9l0.3-0.4l0.3-0.4c0.2-0.3,0.4-0.6,0.6-0.9     c0.4-0.6,0.8-1.2,1.2-1.8s0.7-1.3,1.1-1.9c0.2-0.3,0.3-0.6,0.5-1c0.2-0.3,0.3-0.6,0.5-1c0.2-0.3,0.3-0.6,0.5-1     c0.1-0.2,0.2-0.4,0.3-0.5s0.1-0.3,0.2-0.4c0.3-0.6,0.6-1.3,0.8-1.9c0.3-0.6,0.5-1.2,0.7-1.8s0.4-1.2,0.6-1.8     c0.1-0.1,0.1-0.3,0.2-0.4c0-0.1,0.1-0.3,0.1-0.4c0.1-0.3,0.2-0.6,0.3-0.8c0.2-0.6,0.4-1.1,0.5-1.6s0.3-1,0.4-1.5     c0.1-0.2,0.1-0.5,0.2-0.7c0.1-0.2,0.1-0.4,0.2-0.7c0.2-0.8,0.4-1.6,0.5-2.2c0.3-1.2,0.4-1.9,0.4-1.9s-0.2,0.7-0.6,1.9     c-0.2,0.6-0.4,1.3-0.7,2.1c-0.1,0.2-0.1,0.4-0.2,0.6c-0.1,0.2-0.1,0.4-0.2,0.7c-0.2,0.5-0.3,0.9-0.5,1.4s-0.4,1-0.6,1.5     c-0.1,0.3-0.2,0.5-0.3,0.8c-0.1,0.1-0.1,0.3-0.2,0.4c-0.1,0.1-0.1,0.3-0.2,0.4c-0.3,0.6-0.5,1.1-0.8,1.7     c-0.3,0.6-0.6,1.2-0.9,1.8c-0.3,0.6-0.6,1.2-1,1.8c-0.2,0.3-0.3,0.6-0.5,0.9l0,0c-0.2,0.3-0.3,0.6-0.5,0.9     c-0.2,0.3-0.4,0.6-0.5,0.9c-0.2,0.3-0.4,0.6-0.6,0.9c-0.4,0.6-0.8,1.2-1.2,1.7c-0.4,0.6-0.8,1.1-1.2,1.7     c-0.2,0.3-0.4,0.5-0.6,0.8l-0.3,0.4l-0.3,0.4c-0.2,0.3-0.4,0.5-0.7,0.8c-0.2,0.3-0.5,0.5-0.7,0.8c-0.4,0.5-0.9,1-1.4,1.5     c-0.2,0.2-0.5,0.5-0.7,0.7s-0.5,0.5-0.7,0.7c-0.5,0.4-0.9,0.8-1.4,1.2c-0.9,0.8-1.8,1.5-2.6,2.1s-1.6,1.1-2.3,1.6     c-0.7,0.4-1.3,0.8-1.8,1.1s-0.9,0.5-1.2,0.6c-0.1,0.1-0.2,0.1-0.3,0.1s-0.1,0-0.1,0l0.3,0.6c0.8-0.1,1.5-0.1,2.1-0.2     c1.4-0.2,2.9-0.5,4.2-0.8c0.3-0.3,0.6-0.5,1-0.8C170.9,217.7,171.8,216.9,172.7,216z"
   id="path139" />
			<path
   class="st11"
   d="M190,67c1.1,2.5,2.6,6.1,4.3,10.5c0.8,2.2,1.7,4.6,2.5,7.1c0.9,2.5,1.7,5.2,2.5,8c0.4,1.4,0.8,2.8,1.2,4.3     c0.2,0.7,0.4,1.5,0.6,2.2c0.1,0.4,0.2,0.7,0.3,1.1s0.2,0.7,0.3,1.1c0.7,3,1.3,6,1.9,9.1c0.5,3,1,6.1,1.3,9.1     c0.1,1.5,0.3,3,0.4,4.5c0.1,1.5,0.2,3,0.2,4.4c0.1,2.9,0.1,5.7-0.1,8.4c-0.1,1.3-0.2,2.6-0.3,3.9c-0.1,0.6-0.1,1.2-0.2,1.8     c-0.1,0.6-0.1,1.2-0.2,1.8c-0.1,0.6-0.2,1.1-0.2,1.7c0,0.3-0.1,0.6-0.1,0.8c0,0.3-0.1,0.5-0.1,0.8c-0.1,0.5-0.2,1-0.3,1.5     s-0.2,1-0.3,1.4c-0.1,0.5-0.2,0.9-0.3,1.4c-0.1,0.4-0.2,0.9-0.3,1.3c-0.2,0.8-0.4,1.5-0.5,2.2c-0.2,0.7-0.3,1.3-0.5,1.8     c-0.1,0.5-0.3,0.9-0.4,1.3c-0.2,0.7-0.3,1.1-0.3,1.1s0.2-0.4,0.5-1c0.2-0.3,0.4-0.7,0.6-1.2c0.2-0.5,0.5-1.1,0.7-1.7     c0.3-0.6,0.5-1.4,0.8-2.1c0.1-0.4,0.3-0.8,0.4-1.2c0.1-0.4,0.3-0.9,0.5-1.3c0.6-1.8,1.2-3.9,1.7-6.3c0.5-2.3,1-4.9,1.3-7.6     c0.3-2.7,0.5-5.6,0.6-8.6c0-1.5,0-3,0-4.6c0-0.8-0.1-1.5-0.1-2.3s-0.1-1.6-0.2-2.3c-0.3-3.1-0.7-6.3-1.2-9.4     c-0.3-1.6-0.6-3.1-0.9-4.7c-0.3-1.5-0.7-3.1-1.1-4.6c-0.4-1.5-0.8-3-1.3-4.5c-0.2-0.7-0.4-1.5-0.7-2.2c-0.2-0.7-0.5-1.4-0.7-2.1     c-1-2.8-2-5.5-3-8c-0.3-0.6-0.5-1.2-0.8-1.9c-0.3-0.6-0.5-1.2-0.8-1.8c-0.5-1.2-1-2.3-1.6-3.4c-0.5-1.1-1-2.1-1.5-3     c-0.5-1-1-1.9-1.5-2.7c-0.9-1.7-1.8-3.1-2.5-4.3c-0.7-1.2-1.3-2.1-1.7-2.7c-0.2-0.3-0.4-0.5-0.5-0.7s-0.2-0.2-0.2-0.2     s0.2,0.4,0.5,1C189,64.8,189.4,65.8,190,67z"
   id="path141" />
			<path
   class="st11"
   d="M106.9,217.8c6.6,2.9,13.9,4.9,21.6,5.9h0.1c0.4,0,9.9,0.6,20.1,0.6l0,0c6.9,0,12.5-0.2,16.6-0.7h0.1     c12.3-1.9,22.6-5.8,31.3-11.8c3.4-2.4,6.5-5.1,9.4-8.1c4.4-4.8,8.1-10.3,11-16.7c3.1-6.7,5.2-14,6.4-21.6c0.4-2.8,0.7-5.6,1-8.4     c0.1-1.3,0.3-2.6,0.4-3.9c0,0,0-0.1,0-0.2c0-0.1,0-0.2,0.1-0.3v-0.2V136v-0.1c-0.1-0.5-0.1-1-0.2-1.5c-0.1-1.1-0.2-2.3-0.3-3.4     c-0.5-5.8-1.5-11.9-2.8-18.4c-3.1-14.7-7.9-29.5-14.4-44.2c-6.4-14.5-13.4-26.8-21.4-37.6c-2.3-3.2-4.9-6.3-7.5-9.4     c-4.8-5.6-9.7-10-14.8-13.4c-4.2-2.8-7.9-4.5-11.8-5.4c-0.8-0.2-1.5-0.3-2.3-0.5c-0.3-0.1-0.7-0.1-1-0.2h-0.2h-3.9h-0.2     c-0.6,0.1-1.1,0.2-1.7,0.4c-1.3,0.3-2.6,0.5-3.9,1c-0.3,0.1-0.6,0.2-1,0.3l-0.5-0.4c0,0-0.1,0.2-0.4,0.6c0,0.1-0.1,0.1-0.1,0.2     c-3.8,1.5-7.6,3.8-11.7,7.2c-6.4,5.2-12.3,11.6-18.5,20.3C95.6,46.3,86.9,63.1,79.6,82.8c-4,10.9-6.9,20.9-8.7,30.6     c-1,5-1.7,10.2-2.4,15.2c-0.1,0.7-0.2,1.5-0.3,2.2c-0.2,1.7-0.3,3.4-0.4,5c0,0.7-0.1,1.5-0.1,2.3c0,0,0,0,0,0.1s0,0.2-0.1,0.3     l-0.1,0.2v10.5v0.1c0,0.5,0.1,0.9,0.1,1.4c0.1,0.9,0.2,1.9,0.2,2.9c0.5,8.5,1.8,16.2,4,23.4c2.8,9.4,6.8,17.2,12.2,23.8     c0.4,0.5,0.7,0.9,1.1,1.3C91,208.8,98.3,214.1,106.9,217.8z M75.2,175.9c-2.1-6.9-3.3-14.4-3.8-22.6c-0.1-1-0.1-2-0.2-2.9     c0-0.4-0.1-0.9-0.1-1.3v-10c0-0.2,0.1-0.4,0.1-0.7c0.1-0.8,0.1-1.6,0.1-2.4c0.1-1.6,0.2-3.2,0.4-4.7c0.1-0.7,0.2-1.5,0.3-2.2     c0.7-4.9,1.4-10,2.3-15c1.8-9.5,4.6-19.3,8.6-30c7.2-19.4,15.7-35.9,26.2-50.5c6-8.4,11.7-14.6,17.9-19.6     c2.1-1.7,4.1-3.1,6.1-4.3c-0.4,0.7-0.8,1.5-1.3,2.3c-0.1,0.2-0.3,0.5-0.4,0.7c-0.6,1.1-1.2,2.3-1.9,3.6c-0.4,0.8-0.8,1.6-1.2,2.4     c-0.4,0.8-0.8,1.7-1.2,2.5c-0.2,0.4-0.4,0.9-0.6,1.3s-0.4,0.9-0.6,1.3c-0.4,0.9-0.8,1.8-1.2,2.7c-0.4,0.9-0.7,1.8-1.1,2.8     c-0.4,0.9-0.7,1.9-1.1,2.8c-0.7,1.9-1.4,3.8-2,5.6c-0.3,0.9-0.6,1.9-0.9,2.8c-0.3,0.9-0.6,1.8-0.8,2.7c-0.5,1.8-1,3.6-1.4,5.2     c-0.2,0.8-0.4,1.6-0.6,2.4c-0.2,0.8-0.3,1.6-0.5,2.3s-0.3,1.4-0.4,2.1c-0.1,0.7-0.3,1.3-0.4,1.9c-0.1,0.6-0.2,1.2-0.3,1.7     c-0.1,0.5-0.2,1-0.2,1.4c-0.2,1.7-0.4,2.7-0.4,2.7s0.2-1,0.5-2.7c0.1-0.4,0.2-0.9,0.3-1.4c0.1-0.5,0.2-1.1,0.4-1.7     c0.1-0.6,0.3-1.2,0.5-1.9s0.3-1.4,0.5-2.1c0.2-0.7,0.4-1.5,0.6-2.2c0.2-0.8,0.5-1.6,0.7-2.4c0.5-1.6,1.1-3.3,1.7-5.1     c0.3-0.9,0.6-1.8,1-2.7c0.3-0.9,0.7-1.8,1-2.7c0.7-1.8,1.5-3.6,2.3-5.5c0.4-0.9,0.8-1.8,1.2-2.7c0.4-0.9,0.8-1.8,1.3-2.7     c0.4-0.9,0.9-1.7,1.3-2.6c0.2-0.4,0.4-0.9,0.6-1.3c0.2-0.4,0.4-0.8,0.7-1.2c0.4-0.8,0.9-1.6,1.3-2.4c0.4-0.8,0.9-1.5,1.3-2.3     c0.8-1.5,1.7-2.8,2.5-4.1s1.5-2.4,2.2-3.4c0.5-0.7,0.9-1.4,1.3-1.9c0.2-0.2,0.3-0.4,0.4-0.6c0.1-0.2,0.2-0.3,0.3-0.5     c0.3-0.1,0.6-0.2,0.9-0.3c0.7-0.2,1.4-0.4,2.2-0.6c0.5-0.1,0.9-0.2,1.4-0.3c0.4-0.1,0.8-0.2,1.3-0.3c0.1,0,0.2,0,0.3-0.1h3.1h0.1     c0.3,0.1,0.6,0.1,0.8,0.2c0.7,0.1,1.4,0.3,2.1,0.4c0.5,0.1,0.9,0.2,1.4,0.4c0.2,0.3,0.5,0.8,1,1.3c0.4,0.6,0.9,1.3,1.5,2.2     c0.6,0.8,1.2,1.8,1.9,2.8c0.7,1.1,1.4,2.2,2.1,3.4c0.4,0.6,0.7,1.2,1.1,1.9c0.4,0.7,0.8,1.3,1.1,2c0.4,0.7,0.8,1.4,1.1,2.1     c0.2,0.4,0.4,0.7,0.6,1.1c0.2,0.4,0.4,0.7,0.6,1.1c0.8,1.5,1.5,3,2.2,4.5c0.3,0.8,0.7,1.5,1,2.3c0.2,0.4,0.3,0.8,0.5,1.1     c0.2,0.4,0.3,0.8,0.5,1.1c0.3,0.8,0.6,1.5,0.9,2.3c0.3,0.8,0.6,1.5,0.8,2.2c0.1,0.4,0.3,0.7,0.4,1.1c0.1,0.4,0.2,0.7,0.4,1.1     c0.1,0.4,0.2,0.7,0.3,1.1c0.1,0.4,0.2,0.7,0.3,1c0.2,0.7,0.4,1.4,0.6,2c0.1,0.3,0.2,0.7,0.2,1c0,0.2,0.1,0.3,0.1,0.5     s0.1,0.3,0.1,0.5c0.1,0.6,0.3,1.2,0.4,1.8c0.1,0.6,0.2,1.1,0.3,1.6s0.2,1,0.2,1.4c0.1,0.4,0.1,0.8,0.2,1.2     c0.1,0.7,0.1,1.3,0.2,1.7c0,0.4,0.1,0.6,0.1,0.6s0-0.2,0-0.6c0-0.4,0-1-0.1-1.7c0-0.4-0.1-0.8-0.1-1.2s-0.1-0.9-0.1-1.4     c-0.1-0.5-0.1-1.1-0.2-1.6c-0.1-0.6-0.2-1.2-0.3-1.8c0-0.2,0-0.3-0.1-0.5c0-0.2-0.1-0.3-0.1-0.5c-0.1-0.3-0.1-0.7-0.2-1     c-0.1-0.7-0.3-1.4-0.4-2.1c-0.1-0.4-0.2-0.7-0.2-1.1c-0.1-0.4-0.2-0.7-0.3-1.1c-0.1-0.4-0.2-0.7-0.3-1.1     c-0.1-0.4-0.2-0.8-0.3-1.1c-0.2-0.8-0.4-1.5-0.7-2.3c-0.2-0.8-0.5-1.6-0.8-2.4c-0.1-0.4-0.3-0.8-0.4-1.2     c-0.1-0.4-0.3-0.8-0.4-1.2c-0.3-0.8-0.6-1.6-0.9-2.4c-0.6-1.6-1.3-3.1-1.9-4.7c-0.2-0.4-0.3-0.8-0.5-1.1     c-0.2-0.4-0.3-0.8-0.5-1.1c-0.3-0.7-0.7-1.5-1-2.2s-0.7-1.4-1-2.1c-0.3-0.7-0.7-1.4-1-2c-0.7-1.3-1.3-2.5-1.9-3.6     c-0.5-0.9-1-1.8-1.4-2.6c1.2,0.6,2.5,1.4,3.8,2.3c4.9,3.2,9.5,7.4,14.1,12.7c2.6,3,5.1,6.1,7.4,9.2c7.8,10.6,14.7,22.7,21,36.9     c6.4,14.4,11.2,29.1,14.2,43.5c1.3,6.4,2.3,12.3,2.8,18c0.1,1.1,0.2,2.3,0.3,3.4c0,0.5,0.1,1,0.1,1.4v15.9c0,0.2-0.1,0.4-0.1,0.7     c-0.1,1.3-0.3,2.6-0.4,3.9c-0.3,2.7-0.6,5.5-1,8.2c-1.1,7.3-3.1,14.3-6.1,20.7c-3.1,6.8-7.1,12.6-12.1,17.4     c-2.2,2.1-4.6,4.1-7.1,5.8c-7.3,5-15.6,8.4-25.5,10.4c-1.4,0.3-2.8,0.5-4.2,0.8c-0.7,0.1-1.4,0.2-2.1,0.2     c-3.7,0.3-8.4,0.5-14,0.5l0,0c-0.3,0-0.6,0-0.9,0l-0.7-21.7l-1-33.2l-1,33.2l-0.7,21.7c-8-0.1-14.6-0.5-15.5-0.5     c-1.3-0.2-2.5-0.4-3.8-0.6l0,0c-0.3-0.3-0.7-0.8-1.3-1.4c-0.5-0.6-1.2-1.4-1.9-2.3c-0.4-0.5-0.7-1-1.1-1.5s-0.8-1.1-1.2-1.7     c-0.8-1.2-1.7-2.5-2.5-3.9c-0.4-0.7-0.9-1.4-1.3-2.2c-0.2-0.4-0.4-0.8-0.6-1.2s-0.4-0.8-0.6-1.2s-0.4-0.8-0.6-1.2     s-0.4-0.8-0.6-1.2s-0.4-0.9-0.6-1.3c-0.1-0.2-0.2-0.4-0.3-0.6l0,0c-0.1-0.2-0.2-0.4-0.3-0.7c-0.2-0.4-0.4-0.9-0.6-1.3     c-0.2-0.4-0.4-0.9-0.5-1.3c-0.2-0.4-0.4-0.9-0.5-1.4c-0.2-0.5-0.3-0.9-0.5-1.4c-0.7-1.8-1.3-3.7-1.8-5.5     c-0.1-0.5-0.3-0.9-0.4-1.4s-0.2-0.9-0.4-1.4c-0.1-0.5-0.2-0.9-0.3-1.4c-0.1-0.5-0.2-0.9-0.3-1.3c-0.1-0.4-0.2-0.9-0.3-1.3     c-0.1-0.4-0.2-0.9-0.3-1.3c-0.2-0.9-0.3-1.7-0.5-2.5c-0.1-0.4-0.1-0.8-0.2-1.2s-0.1-0.8-0.2-1.2c-0.1-0.8-0.2-1.5-0.3-2.3     c-0.1-0.7-0.1-1.4-0.2-2.1c0-0.3-0.1-0.7-0.1-1s0-0.6-0.1-0.9c0-0.6-0.1-1.2-0.1-1.7c0-0.3,0-0.5,0-0.7s0-0.5,0-0.7     c-0.1-1.7-0.1-2.7-0.1-2.7s0,1-0.1,2.7c0,0.2,0,0.4,0,0.7c0,0.2,0,0.5,0,0.7c0,0.5,0,1.1,0,1.7c0,0.3,0,0.6,0,0.9     c0,0.3,0,0.6,0,1c0,0.7,0.1,1.4,0.1,2.1c0,0.7,0.1,1.5,0.2,2.3c0,0.4,0.1,0.8,0.1,1.2s0.1,0.8,0.1,1.2c0.1,0.8,0.2,1.7,0.3,2.6     c0.1,0.4,0.1,0.9,0.2,1.3c0.1,0.4,0.1,0.9,0.2,1.4s0.2,0.9,0.2,1.4c0.1,0.5,0.2,0.9,0.3,1.4c0.1,0.5,0.2,0.9,0.3,1.4     c0.1,0.5,0.2,0.9,0.3,1.4c0.4,1.9,0.9,3.8,1.5,5.7c0.1,0.5,0.3,0.9,0.4,1.4s0.3,0.9,0.5,1.4s0.3,0.9,0.5,1.4s0.3,0.9,0.5,1.4l0,0     c0.1,0.2,0.2,0.5,0.3,0.7c0.1,0.2,0.2,0.5,0.3,0.7c0.2,0.5,0.4,0.9,0.5,1.3c0.2,0.4,0.4,0.9,0.6,1.3c0.2,0.4,0.4,0.9,0.6,1.3     c0.2,0.4,0.4,0.8,0.6,1.3c0.2,0.4,0.4,0.8,0.6,1.2c0.4,0.8,0.8,1.6,1.2,2.4c0.8,1.5,1.6,2.9,2.4,4.2c0.4,0.6,0.8,1.3,1.1,1.8     c0.4,0.6,0.7,1.1,1.1,1.6c0.2,0.3,0.4,0.5,0.6,0.8c-1-0.2-1.9-0.5-2.9-0.8c-3-0.9-5.9-1.9-8.7-3.1c-8.7-3.8-15.9-9.2-21.5-16.1     C81.7,192.2,77.9,184.8,75.2,175.9z"
   id="path143" />
			<path
   class="st12"
   d="M98.6,75.7c-4.6,21.1-13,40.3-12.2,62.2c0.3,8.7,1.4,16.9,2.6,25.4c0.7,5.4-0.4,15.3,6.1,17.8     c4.3-6,3.1-18.6,2-25.9c-1.5-9.9-1.5-19.5-2-29.9c-0.4-8.1-0.3-16.2,0.5-24.3L98.6,75.7z"
   id="path145" />
			<path
   class="st13"
   d="M181.8,178.1c7.9-5.7,5.4-21,6.2-29.4c1-10.9,0.7-21.3-0.5-32.3c-0.8-7.7-7.5-16.8-7.6-22.3l-2-4.1     c8,22.8,5.5,48.5,1,71.4C178,165.8,170.9,185.9,181.8,178.1z"
   id="path147" />
		</g>
		<g
   id="g293">
			<g
   id="g161">
				<g
   id="g153">
					<path
   class="st4"
   d="M132.8,101.3c-0.2,9.5-6.5,17.1-13.9,16.9s-13.3-8.1-13-17.6c0.2-9.5,6.5-17.1,13.9-16.9       C127.3,83.9,133.1,91.8,132.8,101.3z"
   id="path151" />
				</g>
				<g
   id="g159">
					<g
   id="g157">
						<path
   class="st2"
   d="M114,116.4c0,0-0.2-0.1-0.6-0.2c-0.2-0.1-0.4-0.2-0.7-0.3c-0.3-0.1-0.6-0.3-0.9-0.5        c-0.7-0.4-1.5-1-2.3-1.8s-1.6-1.8-2.3-3c-0.7-1.2-1.4-2.6-1.9-4.2s-0.8-3.3-0.9-5.1v-0.7v-0.3v-0.4c0-0.4,0-0.9,0-1.3        c0.1-0.9,0.2-1.9,0.4-2.8c0.2-0.9,0.5-1.9,0.7-2.8l0.5-1.3c0.2-0.4,0.4-0.9,0.6-1.3c0.9-1.7,2.1-3.3,3.5-4.6        c1.4-1.3,3.1-2.4,4.9-3c0.5-0.1,0.9-0.2,1.4-0.4c0.5-0.1,0.9-0.1,1.4-0.2s0.9,0,1.3,0h0.3h0.1l0,0h0.1l0,0h0.1        c0.2,0,0.4,0,0.6,0.1c1.8,0.3,3.2,0.9,4.5,1.7c1.2,0.8,2.2,1.7,2.9,2.6c0.7,0.9,1.3,1.7,1.6,2.4c0.2,0.4,0.4,0.7,0.5,1        s0.2,0.5,0.3,0.7c0.1,0.4,0.2,0.6,0.2,0.6s-0.1-0.2-0.4-0.5c-0.2-0.3-0.6-0.8-1.1-1.4c-1-1.1-2.7-2.7-4.9-3.7        c-0.6-0.2-1.2-0.5-1.8-0.6c-0.3-0.1-0.6-0.1-1-0.2c-0.3,0-0.6-0.1-1-0.1c-0.2,0-0.4,0-0.6,0h-0.1l0,0c0.1,0,0,0,0,0l0,0h-0.1        H119c-0.3,0-0.7,0-1,0.1s-0.7,0.1-1,0.2s-0.7,0.2-1,0.4c-1.3,0.6-2.6,1.4-3.7,2.5s-2.1,2.4-2.8,3.8c-0.8,1.4-1.3,3-1.7,4.5        l-0.1,0.6c0,0.2-0.1,0.4-0.1,0.6c-0.1,0.4-0.1,0.7-0.2,1.2c0,0.4-0.1,0.9-0.1,1.3v0.2v0.1l0,0l0,0c0-0.1,0,0,0,0v0.3v0.6        c0,1.6,0.1,3.1,0.4,4.5s0.6,2.7,1.1,3.9c0.5,1.2,1,2.2,1.6,3.1s1.2,1.6,1.7,2.1s1,1,1.3,1.2C113.8,116.2,114,116.4,114,116.4z        "
   id="path155" />
					</g>
				</g>
			</g>
			<g
   id="g171">
				<g
   id="g165">
					<path
   class="st2"
   d="M130.6,101.2c-0.2,6.1-3.8,10.9-8.1,10.8c-4.3-0.1-7.7-5.1-7.5-11.2s3.8-10.9,8.1-10.8       C127.3,90.1,130.7,95.1,130.6,101.2z"
   id="path163" />
				</g>
				<g
   id="g169">
					<path
   class="st4"
   d="M127.7,96.3c0,1.3-1.1,2.4-2.5,2.4c-1.3,0-2.4-1.1-2.4-2.5c0-1.3,1.1-2.4,2.5-2.4       C126.7,93.9,127.7,95,127.7,96.3z"
   id="path167" />
				</g>
			</g>
			<g
   id="g183">
				<g
   id="g175">
					<path
   class="st4"
   d="M190.3,101.5c-0.2,9.5-6.5,17.1-13.9,16.9s-13.3-8.1-13-17.6c0.2-9.5,6.5-17.1,13.9-16.9       S190.5,92,190.3,101.5z"
   id="path173" />
				</g>
				<g
   id="g181">
					<g
   id="g179">
						<path
   class="st2"
   d="M163.4,101.4c0,0,0-0.3,0-0.7c0-0.2,0-0.5,0-0.9c0-0.3,0-0.8,0-1.2c0-0.5,0.1-1,0.2-1.5        c0-0.6,0.2-1.1,0.3-1.8c0.1-0.6,0.4-1.3,0.6-2c0.1-0.3,0.3-0.7,0.4-1c0.1-0.2,0.2-0.4,0.2-0.5c0.1-0.2,0.2-0.3,0.3-0.5        c0.4-0.7,0.9-1.4,1.4-2.1c0.3-0.3,0.6-0.7,0.9-1c0.3-0.3,0.7-0.7,1-1c1.4-1.3,3.2-2.4,5.3-3c0.5-0.2,1.1-0.2,1.6-0.3        c0.5-0.1,1.1-0.1,1.7-0.1l0.8,0.1c0.3,0,0.5,0,0.8,0.1c0.6,0.1,1.2,0.2,1.8,0.4c2.2,0.6,4.2,1.9,5.8,3.5s2.8,3.5,3.7,5.6        c0.8,2,1.3,4.1,1.4,6.2c0,0.5,0.1,1,0,1.5c0,0.5,0,1-0.1,1.5c-0.1,0.9-0.2,1.9-0.4,2.8c-0.4,1.8-1,3.5-1.8,4.9        s-1.7,2.6-2.6,3.5c-0.9,1-1.8,1.6-2.6,2.1c-0.4,0.2-0.7,0.5-1.1,0.6c-0.3,0.2-0.6,0.3-0.8,0.4c-0.5,0.2-0.7,0.3-0.7,0.3        s0.2-0.2,0.6-0.4c0.4-0.3,0.9-0.7,1.5-1.3c0.6-0.6,1.3-1.4,2-2.4s1.3-2.2,1.8-3.5c0.5-1.4,0.9-2.9,1.1-4.5        c0.1-0.8,0.1-1.6,0.1-2.5c0-0.8,0-1.7-0.2-2.6c-0.2-1.7-0.7-3.5-1.5-5.2s-1.8-3.2-3-4.5c-1.3-1.3-2.8-2.2-4.4-2.8        c-0.4-0.1-0.8-0.2-1.1-0.3c-0.2,0-0.5-0.1-0.7-0.1h-0.4h-0.2H177l0,0l0,0c0.2,0,0,0,0.1,0c-0.4,0-0.8,0-1.3,0        c-0.4,0.1-0.8,0.1-1.2,0.2c-1.6,0.3-3.1,1.1-4.4,2c-1.3,0.9-2.4,2.1-3.2,3.2c-0.1,0.1-0.2,0.3-0.3,0.4s-0.2,0.3-0.3,0.4        c-0.2,0.3-0.4,0.6-0.5,0.9c-0.3,0.6-0.6,1.1-0.9,1.7c-0.2,0.6-0.5,1.1-0.6,1.6c-0.2,0.5-0.3,1-0.4,1.4        c-0.1,0.4-0.2,0.8-0.3,1.1c-0.1,0.3-0.1,0.6-0.2,0.9C163.4,101.1,163.4,101.4,163.4,101.4z"
   id="path177" />
					</g>
				</g>
			</g>
			<g
   id="g193">
				<g
   id="g187">
					<path
   class="st2"
   d="M184.6,101.3c-0.2,6.1-3.8,10.9-8.1,10.8s-7.7-5.1-7.5-11.2s3.8-10.9,8.1-10.8       C181.4,90.2,184.8,95.3,184.6,101.3z"
   id="path185" />
				</g>
				<g
   id="g191">
					<circle
   class="st4"
   cx="179.3"
   cy="96.4"
   id="ellipse189"
   ry="2.4"
   rx="2.4" />
				</g>
			</g>
			<g
   id="g199">
				<path
   class="st0"
   d="M105.9,74.8c0,0,5.6-10.9,10-10.8c8.4,0.2,17.1,10.1,17.1,10.1S118.1,65.3,105.9,74.8z"
   id="path195" />
				<path
   class="st2"
   d="M102.8,78.4l2.1-4.1c0.6-1.2,6-11.4,11-11.3c8.7,0.2,17.4,10.1,17.8,10.5l4.2,4.8l-5.5-3.3      c-0.1,0-5.8-3.4-12.9-3.6c-4.9-0.1-9.3,1.3-13,4.2L102.8,78.4z M115.9,65c-2-0.1-4.8,3.3-7,6.6c3.2-1.6,6.8-2.4,10.7-2.3      c3.3,0.1,6.2,0.8,8.6,1.6C124.9,68.2,120.3,65.1,115.9,65z"
   id="path197" />
			</g>
			<g
   id="g205">
				<path
   class="st0"
   d="M193.3,74.4c0,0-6-11.2-10.5-11.3c-11.1-0.3-16.5,9.3-16.5,9.3S181.6,64.3,193.3,74.4z"
   id="path201" />
				<path
   class="st2"
   d="M196.9,78.8l-4.2-3.6c-3.6-3.1-7.9-4.7-12.8-4.8c-7.1-0.2-13.1,2.9-13.1,2.9l-3.1,1.6l1.7-3      c0.2-0.4,5.9-10.1,17.5-9.8c4.9,0.1,10.7,10.6,11.3,11.8L196.9,78.8z M180,68.3c3.7,0.1,7,1,10,2.6c-2.3-3.4-5.2-6.7-7.1-6.7      c-6.5-0.2-10.9,3.2-13.4,5.8C172.1,69.1,175.8,68.2,180,68.3z"
   id="path203" />
			</g>
			<g
   id="g211">
				<g
   id="g209">
					<path
   class="st2"
   d="M144.2,105.7c0,1-0.1,2-0.2,3.1c-0.2,1-0.3,2-0.6,3c-0.1,0.5-0.3,1-0.4,1.5l-0.2,0.7l-0.3,0.7       c-0.2,0.5-0.4,1-0.6,1.4c-0.2,0.5-0.4,1-0.7,1.4l-0.8,1.4c-0.2,0.5-0.6,0.9-0.9,1.3l-0.4,0.7c-0.2,0.2-0.3,0.4-0.5,0.6       c-0.4,0.4-0.7,0.8-1,1.2l-1.2,1.1c-0.4,0.4-0.8,0.7-1.3,1c-0.4,0.3-0.9,0.7-1.4,0.9l-1.4,0.8l0.5-1.9c0.3,0.4,0.5,0.9,0.8,1.3       s0.5,0.9,0.8,1.3l0.8,1.3l0.9,1.2c0.3,0.4,0.6,0.8,0.9,1.2l0.4,0.6c0.1,0.2,0.3,0.4,0.5,0.6l0.5,0.6c0.2,0.2,0.3,0.4,0.5,0.6       l1,1l-0.6-0.1c0.9-0.2,1.8-0.3,2.7-0.5s1.8-0.3,2.7-0.4c-0.8,0.4-1.6,0.8-2.5,1.2c-0.8,0.4-1.7,0.7-2.5,1.1l-0.3,0.1l-0.3-0.2       l-1.4-1c-0.2-0.2-0.4-0.3-0.6-0.5l-0.6-0.5c-0.2-0.2-0.4-0.4-0.6-0.6l-0.6-0.6c-0.4-0.4-0.7-0.8-1.1-1.2l-1-1.2l-1-1.3       c-0.6-0.8-1.2-1.7-1.8-2.6l-0.7-1.1l1.3-0.8c0.4-0.2,0.8-0.5,1.2-0.7s0.8-0.5,1.1-0.8c0.4-0.3,0.8-0.5,1.1-0.9l1-1       c0.3-0.3,0.6-0.7,1-1l0.5-0.5l0.4-0.6c0.3-0.4,0.6-0.7,0.9-1.1l0.8-1.2l0.8-1.2c0.3-0.4,0.5-0.8,0.7-1.3       c0.2-0.4,0.5-0.9,0.7-1.3s0.4-0.9,0.6-1.3c0.2-0.5,0.4-0.9,0.6-1.4c0.2-0.5,0.4-0.9,0.6-1.4       C143.5,107.6,143.9,106.7,144.2,105.7z"
   id="path207" />
				</g>
			</g>
			<g
   id="g217">
				<path
   class="st2"
   d="M188.7,130.7c-0.6,1.8-1.3,3.6-2.1,5.3c-1.1,2.6-2.4,5-3.7,7.3c-0.6,1-1.1,1.9-1.7,2.8      c-2.7,4.2-5.6,7.5-8.2,9.9c-2,1.8-3.8,3-5.2,3.6c-3.9,1.5-24.1-0.2-34.3-1.2c-1.7-0.2-3.1-0.3-4.1-0.4c-1.2-0.1-1.8-0.2-1.8-0.2      s2.8-10.9,0.5-19c0,0,0.2,0,0.7,0.1c0.4,0,1.1,0.1,1.9,0.2l0,0c0,0,0.8,0.1,1.3,0.1c8.3,0.6,28.8,1.1,48.5-5.1      C183.2,133,186,131.9,188.7,130.7z"
   id="path213" />
				<path
   class="st2"
   d="M158.3,161.1c-7.6-0.2-17.7-1.1-24.9-1.8l-1.1-0.1c-1.2-0.1-2.3-0.2-3.1-0.3c-1.2-0.1-1.8-0.2-1.8-0.2      l-1.2-0.1l0.3-1.1c0-0.1,2.7-10.7,0.5-18.5l-0.4-1.5l1.5,0.2c0,0,0.2,0,0.7,0.1h0.2c0.4,0,1,0.1,1.7,0.1c0,0,0.8,0.1,1.3,0.1      c1.9,0.1,3.9,0.2,5.9,0.3c10.7,0.3,26.7-0.4,42.3-5.4c2.8-0.9,5.6-1.9,8.2-3.1l2.1-0.9l-0.7,2.2c-0.6,1.8-1.3,3.6-2.1,5.3      c-1.1,2.6-2.4,5-3.8,7.4c-0.5,0.9-1.1,1.8-1.8,2.8c-2.6,4-5.5,7.4-8.4,10.1c-2,1.8-4,3.1-5.5,3.8      C166.7,161,163.4,161.2,158.3,161.1z M128.7,156.8c0.2,0,0.4,0,0.7,0.1c0.8,0.1,1.8,0.2,3.1,0.3l1.1,0.1      c7.1,0.7,17.2,1.6,24.8,1.8c6,0.2,8.2-0.2,9-0.5c1.3-0.5,3.1-1.7,4.9-3.4c1.9-1.8,4.9-4.9,8.1-9.7c0.6-1,1.2-1.9,1.7-2.7      c1.4-2.3,2.6-4.7,3.7-7.2c0.4-1,0.9-2,1.2-3c-2,0.8-4.2,1.6-6.3,2.2c-15.9,5-32.1,5.7-42.9,5.5l0,0c-2-0.1-4.1-0.1-6-0.3      c-0.5,0-1.3-0.1-1.3-0.1c-0.4,0-0.8-0.1-1.2-0.1C130.7,146.3,129.3,153.9,128.7,156.8z"
   id="path215" />
			</g>
			<g
   id="g223">
				<g
   id="g221">
					<path
   class="st2"
   d="M183.4,125c0,0,0.2-0.2,0.7-0.5c0.4-0.3,1.1-0.7,1.9-1.2c0.8-0.4,1.8-0.9,2.9-1.3c0.3-0.1,0.6-0.2,0.9-0.2       c0.3-0.1,0.6-0.1,0.9-0.2c0.2,0,0.3,0,0.5,0s0.3,0,0.5,0h0.3h0.1h0.1l0,0h0.1l0,0l0,0c0.1,0,0.1,0,0.2,0.1       c0.1,0.1,0.3,0.1,0.4,0.2c0.8,0.5,1.2,1,1.5,1.6c0.4,0.5,0.6,1.1,0.8,1.6c0.4,1.1,0.7,2.1,0.9,3c0.2,0.9,0.3,1.6,0.3,2.2       c0,0.5,0,0.8,0,0.8s-0.2-0.3-0.4-0.7c-0.3-0.5-0.6-1.1-1-1.9c-0.4-0.8-0.9-1.7-1.4-2.6c-0.3-0.5-0.6-0.9-0.9-1.3       c-0.3-0.4-0.7-0.8-0.9-0.9l0,0c0,0-0.1,0-0.2-0.1l0,0l0,0c0,0,0.2,0,0.1,0l0,0l0,0h-0.1h-0.1c-0.2,0-0.4,0-0.7,0       c-0.5,0-1,0.1-1.5,0.2c-1,0.2-2,0.4-2.9,0.6s-1.6,0.4-2.1,0.5C183.7,125,183.4,125,183.4,125z"
   id="path219" />
				</g>
			</g>
			<g
   id="g229">
				<path
   class="st4"
   d="M181.2,146.1c-2.7,4.2-5.6,7.5-8.2,9.9c-2,1.8-3.8,3-5.2,3.6c-3.9,1.5-24.1-0.2-34.3-1.2      c-1.7-0.2-3.1-0.3-4.1-0.4c0.3-2.1,2.3-7.2,3-10.4c-1.3-4.2-1.3-8-0.7-8c8.3,0.6,29.1,0.6,48.8-5.6c-0.1,2.2-0.3,5.9-0.5,9.4      C180.4,144.4,180.8,145.3,181.2,146.1z"
   id="path225" />
				<path
   class="st2"
   d="M158.3,161.1c-7.6-0.2-17.7-1.1-24.9-1.8l-1.1-0.1c-1.2-0.1-2.3-0.2-3.1-0.3l-1.1-0.1l0.2-1.1      c0.2-1.1,0.7-2.8,1.4-4.8c0.6-1.9,1.2-3.8,1.5-5.3c-1-3.3-1.5-7.4-0.6-8.6c0.2-0.3,0.6-0.5,1-0.5l0,0l0,0      c1.3,0.1,2.8,0.2,4.3,0.2c7.2,0.2,25.9,0,44.1-5.8l1.4-0.4l-0.6,10.6c0.5,1,0.9,1.9,1.2,2.5l0.3,0.5l-0.3,0.5      c-2.6,4-5.5,7.4-8.4,10.1c-2,1.8-4,3.1-5.5,3.8C166.7,161,163.4,161.2,158.3,161.1z M130.5,157c0.6,0.1,1.2,0.1,1.9,0.2l1.1,0.1      c7.1,0.7,17.2,1.6,24.8,1.8c6,0.2,8.2-0.2,9-0.5c1.3-0.5,3.1-1.7,4.9-3.4c1.9-1.7,4.7-4.6,7.8-9.2c-0.3-0.6-0.7-1.4-1.1-2.3      l-0.1-0.2l0.5-8.2c-18.1,5.4-36.3,5.6-43.4,5.4c-1.3,0-2.5-0.1-3.7-0.2c-0.1,1.1,0.1,3.6,1,6.7l0.1,0.3l-0.1,0.3      c-0.4,1.7-1,3.8-1.7,5.8C131.2,154.8,130.8,156,130.5,157z"
   id="path227" />
			</g>
			<g
   id="g233">
				<path
   class="st2"
   d="M131.8,147.3c0,0,22.1,4.3,35.9,1.8c-9.5,4.2-35.7,1.4-35.7,1.4L131.8,147.3z"
   id="path231" />
			</g>
			<g
   id="g291">
				<g
   id="g261">
					<g
   id="g259">
						<path
   class="st14"
   d="M231.8,99.6c-0.7-1.9-13.6-7.7-25-12.6c1.1-1.5,2.1-3.7,0.3-5.8c-1.6-1.8-14.5-5-26.2-5.3        c-13.1-0.3-21.9,2.7-25.8,9L139,84.5c-4.1-5.3-12.3-8.2-24.1-8.5c-11.7-0.3-24.8,2.2-26.4,3.9c-1.9,2-1,4.2,0,5.8        c-6.5,2.1-6.7,3-6.9,3.4c-0.3,1.1-0.3,5.7-0.3,6.6v0.6l7,3.5c0,3.6,0.3,7.3,0.7,10.5c1.3,8.4,17.5,10.7,18.7,10.9h0.1        c1,0.3,2.1,0.5,3.2,0.7l0,0h0.1c1.6,0.3,3.3,0.5,5.1,0.6c0.4,0,0.7,0,1.1,0l0,0c8.2,0.2,14.4-1.7,18.5-5.7        c3.2-3.1,4.9-7.3,5.7-11.5c0.8-1.2,2.8-3.8,5.7-3.7c1.8,0,3.7,1.1,5.7,3.2c0.7,4,2.1,7.8,4.9,10.8c3.9,4.2,10,6.5,18.2,6.7        l0,0c0.4,0,0.7,0,1.1,0c1.8,0,3.5-0.1,5.2-0.3h0.1l0,0c1.1-0.1,2.2-0.3,3.2-0.5h0.1c1.3-0.1,17.6-1.6,19.3-9.9        c0.5-2.4,0.8-5,1.1-7.7l24.5,1.5l0.3-0.5C231,104.7,232.7,102,231.8,99.6z M108.1,119.3c-0.1,0-0.2-0.1-0.4-0.1        c-12.7-3.6-15.1-9-15-19.8c0-0.5,0-1,0-1.5c0.1-2.8,0.5-5.8,2-8.4c2.2-3.8,6.7-6.6,15.9-7c2,0,3.9,0,5.6,0        c14.8,0.4,19.4,3.8,21.7,7c0.5,1.4,1,3.2,1.4,5.5c0.2,2.7,0.3,6-0.4,8.9c-1.8,8.5-6.6,18-27.6,16.2        C110.3,119.8,109.2,119.6,108.1,119.3L108.1,119.3z M182.1,120.1c-21.1,0.7-25.4-9-26.7-17.6c-0.2-1.2-0.3-2.4-0.3-3.5        c0.6-4.9,2-9.6,2.7-11.6c2.7-2.8,7.8-5.4,21.4-5.1c1.8,0,3.7,0.1,5.6,0.3c9.2,0.9,13.5,4,15.5,7.9c1.3,2.7,1.6,5.7,1.5,8.5        c0,0.5,0,1-0.1,1.5c-0.4,10.8-3.1,16-16,19c-0.1,0-0.2,0.1-0.4,0.1h-0.1C184.2,119.8,183.2,119.9,182.1,120.1z"
   id="path235" />
						<g
   id="g247">
							<path
   class="st15"
   d="M95.2,111.6c-2-3.1-2.5-7-2.5-12.3c0-0.5,0-1,0-1.5c0.1-2.8,0.5-5.8,2-8.4c2.2-3.8,6.7-6.6,15.9-7         c2,0,3.9,0,5.6,0c12.4,0.3,17.6,2.7,20.4,5.4c0-0.1-0.1-0.2-0.1-0.3c-2.3-3.2-6.9-6.6-21.7-7c-1.8,0-3.6,0-5.6,0         c-9.2,0.4-13.7,3.3-15.9,7c-1.5,2.6-1.9,5.6-2,8.4c0,0.5,0,1,0,1.5C91.2,103.9,92,108.3,95.2,111.6z"
   id="path237" />
							<path
   class="st15"
   d="M205.3,85.2c0.7,0.3,1.4,0.6,2.1,0.9c0.8-1.4,1.2-3.2-0.3-4.8c-0.1-0.2-0.4-0.3-0.7-0.5         C206.9,82.4,206.1,84,205.3,85.2z"
   id="path239" />
							<path
   class="st15"
   d="M86.8,98.1l-5.5-2.8c0,0.2,0,0.4,0,0.5v0.6l5.5,2.8C86.8,98.8,86.8,98.4,86.8,98.1z"
   id="path241" />
							<path
   class="st15"
   d="M231.8,99.6c-0.1-0.3-0.6-0.7-1.3-1.2c0.7,2.3,0.6,5.1,0.4,5.3l-1.9-0.1l-25-2.2         c-0.2,2.7-0.1,6-0.6,8.3c-1.6,7.6-15.5,9.5-18.7,9.8c-0.7,0.1-1.5,0.3-2.2,0.4c-0.1,0-0.2,0-0.2,0c-0.1,0-0.1,0-0.2,0l0,0         c-0.4,0.1-0.8,0.1-1.2,0.2l0,0h-0.1c-1.6,0.2-3.4,0.3-5.2,0.3c-0.4,0-0.7,0-1.1,0l0,0c-8.2-0.2-14.3-2.5-18.2-6.7         c0.4,0.6,0.9,1.2,1.4,1.8c3.9,4.2,10,6.5,18.2,6.7l0,0c0.4,0,0.7,0,1.1,0c1.8,0,3.5-0.1,5.2-0.3h0.1l0,0         c1.1-0.1,2.2-0.3,3.2-0.5h0.1c1.3-0.1,17.6-1.6,19.3-9.9c0.5-2.4,0.8-5,1.1-7.7l24.5,1.5l0.3-0.5         C231,104.7,232.7,102,231.8,99.6z"
   id="path243" />
							<path
   class="st16"
   d="M151.4,103c-2-2.1-3.9-3.2-5.7-3.2c-2.9-0.1-4.9,2.6-5.7,3.7c-0.9,4.3-2.5,8.4-5.7,11.5         c-4.1,4-10.3,6-18.5,5.7l0,0c-0.4,0-0.7,0-1.1,0c-1.8-0.1-3.5-0.3-5.1-0.6h-0.1l0,0c-1.1-0.2-2.2-0.4-3.2-0.7h-0.1         c-1-0.1-11.5-1.7-16.3-6.5c3.7,6.3,16.7,8.2,17.8,8.3h0.1c1,0.3,2.1,0.5,3.2,0.7l0,0h0.1c1.6,0.3,3.3,0.5,5.1,0.6         c0.4,0,0.7,0,1.1,0l0,0c8.2,0.2,14.4-1.7,18.5-5.7c3.2-3.1,4.9-7.3,5.7-11.5c0.8-1.2,2.8-3.8,5.7-3.7c1.4,0,2.8,0.7,4.3,1.9         C151.5,103.4,151.4,103.2,151.4,103z"
   id="path245" />
						</g>
						<g
   id="g255">
							<path
   class="st17"
   d="M206.7,90.4c11.4,4.9,24.3,10.7,25,12.6v0.1c0.3-1,0.5-2.3,0.1-3.5c-0.7-1.8-12.7-7.3-23.9-12.1         C207.8,88.6,207.2,89.6,206.7,90.4z"
   id="path249" />
							<path
   class="st17"
   d="M88.4,83.3c1.7-1.7,14.7-4.2,26.4-3.9c11.8,0.3,19.9,3.2,24.1,8.5l16.1,0.4c4-6.2,12.7-9.3,25.8-9         c11.7,0.3,24.6,3.5,26.2,5.3c0.3,0.3,0.5,0.6,0.7,1c0.6-1.3,0.7-2.9-0.6-4.3c-1.6-1.8-14.5-5-26.2-5.3         c-13.1-0.3-21.9,2.7-25.8,9L139,84.5c-4.1-5.3-12.3-8.2-24.1-8.5c-11.7-0.3-24.8,2.2-26.4,3.9c-1.4,1.4-1.3,2.9-0.8,4.3         C87.8,83.9,88.1,83.6,88.4,83.3z"
   id="path251" />
							<path
   class="st17"
   d="M81.5,92.5c0.1-0.5,0.4-1.4,6.9-3.4c2.9-1.3,1.3-2.4,1.2-3.5c-5.4,1.8-7.9,3.1-8,3.6         c-0.2,0.8-0.3,3.4-0.3,5.1C81.3,93.5,81.4,92.9,81.5,92.5z"
   id="path253" />
						</g>
						<path
   class="st18"
   d="M117.3,123.6L117.3,123.6c-0.4,0-0.7,0-1.1,0c-1.7-0.1-3.5-0.3-5.2-0.6l-1.1-0.1v-0.1        c-0.9-0.2-1.6-0.3-2.4-0.5c-2.2-0.3-18.2-2.8-19.6-11.7c-0.4-2.8-0.7-6.3-0.8-10l-7-3.5v-1.2c0-1.7,0-5.7,0.3-6.9        c0.3-1,0.9-2,6.4-3.8c-1.1-2.3-0.8-4.3,0.8-5.9c2.1-2.1,15.6-4.5,27.2-4.2c11.8,0.3,20.1,3.2,24.6,8.5l15,0.4        c4.3-6.3,13.2-9.3,26.4-8.9c11.5,0.3,25,3.4,26.9,5.6c1.5,1.7,1.7,3.7,0.5,6c23.5,10.1,24.2,11.9,24.5,12.7        c1.1,2.8-0.7,5.7-1,6.3l-0.6,1l-24.1-1.5c-0.3,2.5-0.6,4.8-1,6.8c-1.8,8.8-18,10.5-20.1,10.7c-0.7,0.2-1.5,0.3-2.4,0.4v0.1        l-1.1,0.1c-1.7,0.2-3.5,0.3-5.2,0.3c-0.4,0-0.7,0-1.1,0c-8.5-0.2-14.8-2.6-18.9-7c-2.6-2.8-4.3-6.5-5.1-11        c-1.7-1.8-3.3-2.7-4.7-2.7c-2.2-0.1-4,2-4.7,3.1c-1,5.1-3,9-6,11.9C132.2,121.8,125.8,123.9,117.3,123.6z M111.4,121        c1.6,0.3,3.2,0.4,4.9,0.5c0.4,0,0.7,0,1,0l0,0c7.9,0.2,13.9-1.6,17.8-5.4c2.7-2.6,4.5-6.2,5.4-11v-0.2l0.1-0.2        c0.8-1.3,3.2-4.3,6.5-4.2c2.1,0.1,4.2,1.3,6.4,3.6l0.2,0.2l0.1,0.3c0.8,4.3,2.3,7.7,4.7,10.3c3.9,4.2,10.1,6.3,18.5,6.4        c1.7,0,3.4-0.1,5-0.3h0.1H182c-1.3,0-2.5,0-3.7,0c-19.1-0.5-22.9-10.8-24.1-18.5c-0.2-1.1-0.3-2.4-0.3-3.7v-0.1v-0.1        c0.6-5.1,2.1-10,2.7-11.8l0.1-0.2l0.2-0.2c2.6-2.7,7.4-5.8,22.2-5.4c1.8,0,3.7,0.1,5.7,0.3c8.5,0.8,13.9,3.6,16.3,8.4        c1.6,3.2,1.7,6.7,1.6,9c0,0.5,0,1-0.1,1.5c-0.5,11-3.1,16.8-16.8,20l-0.5,0.1c-0.3,0.1-0.7,0.2-1.1,0.2c0.4-0.1,0.7-0.1,1-0.2        h0.2c0.7-0.1,16.8-1.5,18.4-9.1c0.5-2.2,0.8-4.7,1.1-7.6l0.1-1l24.9,1.6c0.1-0.1,1.6-2.5,0.8-4.4c-0.3-0.5-2.9-2.8-24.4-12        l-1.1-0.5l0.7-1c1.3-2,1.4-3.3,0.3-4.5c-1.1-1.3-13.2-4.6-25.5-5c-12.6-0.3-21.2,2.6-24.9,8.5l-0.3,0.5l-17.1-0.4l-0.3-0.4        c-4-5.1-11.8-7.8-23.3-8.1c-12.2-0.3-24.5,2.4-25.7,3.6S88,83,89.2,85.1l0.7,1.1l-1.2,0.4c-5.6,1.8-6.1,2.6-6.2,2.7        c-0.2,0.8-0.3,3.9-0.3,6.4l0,0l7,3.5v0.6c0,3.9,0.3,7.4,0.7,10.3c1.2,7.7,17.2,9.9,17.9,10h0.1c0.1,0,0.2,0.1,0.3,0.1        c-0.1,0-0.2-0.1-0.3-0.1l-0.5-0.1c-13.6-3.9-15.9-9.8-15.8-20.8c0-0.5,0-1,0-1.5c0.1-2.4,0.4-5.8,2.1-8.9        c2.7-4.7,8.2-7.2,16.7-7.6c2,0,3.9,0,5.7,0c15.5,0.4,20.2,4.2,22.5,7.4l0.1,0.1v0.1c0.6,1.7,1.1,3.7,1.4,5.7        c0.3,3.6,0.2,6.7-0.4,9.3c-1.6,7.6-6,17.7-25,17.2c-1.2,0-2.4-0.1-3.6-0.2l0,0L111.4,121z M111.5,119c1.2,0.1,2.4,0.2,3.5,0.2        c17.4,0.5,21.4-8.1,23-15.6c0.5-2.4,0.6-5.3,0.3-8.6c-0.3-1.8-0.7-3.6-1.2-5.1c-2.1-2.8-6.4-6.1-20.9-6.5c-1.7,0-3.6,0-5.6,0        c-7.8,0.3-12.7,2.5-15,6.5c-1.1,2-1.7,4.6-1.8,8c0,0.5,0,1,0,1.5c-0.1,10.4,1.8,15.3,14.3,18.8l0.4,0.1        C109.4,118.6,110.3,118.8,111.5,119z M156.1,99c0,1.2,0.1,2.3,0.3,3.3c1.3,8,4.9,16.3,22.1,16.8c1.1,0,2.3,0,3.5,0        c1.2-0.1,2.1-0.3,3-0.5l0.4-0.1c12.6-2.9,14.8-7.7,15.2-18.1c0-0.5,0-1,0-1.5c0.1-3.4-0.4-6-1.4-8.1        c-2.1-4.2-6.9-6.6-14.7-7.3c-1.9-0.1-3.8-0.2-5.5-0.3c-13.8-0.4-18.3,2.4-20.5,4.6C158,89.8,156.6,94.3,156.1,99z"
   id="path257" />
					</g>
				</g>
				<g
   id="g275">
					<g
   id="g271">
						<path
   class="st19"
   d="M200.8,98.8c0,0.5,0,0.9,0,1.4v0.1c-0.4,10.2-2.7,15.2-15.3,18.1l-0.4,0.1c-0.5,0.1-1.1,0.2-1.6,0.3l0,0        c-0.4,0.1-0.9,0.1-1.3,0.2c-1.2,0-2.4,0-3.5,0c-0.3,0-0.7,0-1,0c-3.1-0.1-5.7-0.6-8-1.2c-3.4-1-5.9-2.4-7.8-4.2        c-1.1-1-2-2.2-2.7-3.4c-1.5-2.6-2.2-5.4-2.7-8c-0.2-1-0.2-2.2-0.3-3.4c0.2-1.7,0.5-3.4,0.8-4.9c0.6-2.7,1.3-5.1,1.7-6.3        c1.3-1.3,3.3-2.8,7.6-3.8c3-0.7,7.1-1.1,12.9-0.9c1.6,0,3.3,0.1,5,0.3l0,0c0.2,0,0.3,0,0.4,0c1.7,0.2,3.3,0.4,4.7,0.7        c3.5,0.8,6.2,2.1,8,3.9c0.8,0.8,1.5,1.7,2,2.7c0.5,1.1,0.9,2.3,1.1,3.6C200.7,95.7,200.8,97.1,200.8,98.8z"
   id="path263" />
						<path
   class="st20"
   d="M200.8,98.8c0,0.5,0,0.9,0,1.4l-17.4,18.6l0,0c-0.4,0.1-0.9,0.1-1.3,0.2c-1.2,0-2.4,0-3.5,0        c-0.3,0-0.7,0-1,0l23-24.7C200.7,95.7,200.8,97.1,200.8,98.8z"
   id="path265" />
						<path
   class="st20"
   d="M197.3,88l-27.9,29.8c-3.4-1-5.9-2.4-7.8-4.2L189.3,84C192.8,84.8,195.5,86.1,197.3,88z"
   id="path267" />
						<path
   class="st20"
   d="M184.2,83.3l-25.2,27c-1.5-2.6-2.2-5.4-2.7-8c-0.2-1-0.2-2.2-0.3-3.4c0.2-1.7,0.5-3.4,0.8-4.9l9.4-10        c3-0.7,7.1-1.1,12.9-0.9C180.7,83.1,182.4,83.1,184.2,83.3z"
   id="path269" />
					</g>
					<path
   class="st21"
   d="M162.3,112.1c-1.4-2.5-2.1-5.2-2.5-7.7c-0.1-1-0.2-2.1-0.2-3.2c0.2-1.6,0.5-3.2,0.8-4.7       c0.6-2.6,1.2-4.9,1.6-6c1.2-1.2,3.1-2.7,7.1-3.6c2.8-0.7,6.7-1,12-0.9c1.5,0,3.1,0.1,4.7,0.2l0,0c0.1,0,0.3,0,0.4,0       c1.6,0.2,3.1,0.4,4.4,0.7c3.2,0.8,5.6,2,7.3,3.7c-0.5-0.9-1.1-1.8-1.8-2.5c-1.7-1.8-4.2-3-7.5-3.8c-1.3-0.3-2.8-0.6-4.4-0.7       c-0.1,0-0.3,0-0.4,0l0,0c-1.6-0.1-3.2-0.2-4.7-0.2c-5.3-0.1-9.2,0.2-12,0.9c-4,0.9-5.9,2.4-7.1,3.6c-0.4,1.2-1,3.4-1.6,6       c-0.3,1.5-0.6,3.1-0.8,4.7c0,1.2,0.1,2.2,0.2,3.2c0.4,2.6,1.1,5.3,2.5,7.7C160.9,110.4,161.5,111.3,162.3,112.1L162.3,112.1z"
   id="path273" />
				</g>
				<g
   id="g289">
					<g
   id="g285">
						<path
   class="st19"
   d="M93.8,97.8c0,0.5,0,0.9,0,1.4v0.1c-0.1,10.1,1.9,15.3,14.3,18.8l0.4,0.1c0.5,0.1,1,0.3,1.6,0.4l0,0        c0.4,0.1,0.9,0.2,1.3,0.3c1.2,0.1,2.4,0.2,3.5,0.2c0.3,0,0.7,0,1,0c3.1,0,5.7-0.3,8-0.8c3.4-0.8,6-2.1,8-3.7        c1.2-1,2.1-2.1,2.9-3.2c1.6-2.5,2.5-5.2,3.1-7.8c0.2-1,0.4-2.1,0.4-3.3c-0.1-1.7,0.2-3.5-0.1-5.1c-0.5-2.8-1-5.1-1.9-6.1        c-1.2-1.3-3.2-3-7.4-4.1c-3-0.8-7.1-1.4-12.8-1.6c-1.6,0-3.3,0-5,0l0,0c-0.2,0-0.3,0-0.5,0c-1.7,0.1-3.3,0.2-4.7,0.5        c-3.5,0.6-6.3,1.8-8.2,3.5c-0.9,0.7-1.6,1.6-2.1,2.6c-0.6,1-1,2.2-1.3,3.5C94,94.7,93.8,96.2,93.8,97.8z"
   id="path277" />
						<path
   class="st20"
   d="M138.5,99c0,0.5,0,0.9,0,1.4L121,118.9l0,0c-0.4,0.1-0.9,0.1-1.3,0.2c-1.2,0-2.4,0-3.5,0        c-0.3,0-0.7,0-1,0l23-24.5C138.4,95.9,138.5,97.3,138.5,99z"
   id="path279" />
						<path
   class="st20"
   d="M135,88.3l-27.9,29.6c-3.4-1-6.2-2.3-8.1-4l28-29.5C130.5,85.1,133.2,86.4,135,88.3z"
   id="path281" />
						<path
   class="st20"
   d="M121.8,83.6L96.1,111c-1.5-2.5-2.2-5.7-2.3-8.4c-0.1-1,0-2.3-0.1-3.5c0.2-1.7,0-3.4,0.4-4.9l9.8-9.9        c3-0.7,7.2-1.1,12.9-0.9C118.4,83.4,120.1,83.5,121.8,83.6z"
   id="path283" />
					</g>
					<path
   class="st21"
   d="M99,112.7c-1.4-2.4-2.1-5.1-2.5-7.7c-0.1-1-0.2-2.1-0.2-3.2c0.2-1.6,0.5-3.2,0.8-4.7       c0.6-2.6,1.2-4.8,1.6-6c1.2-1.2,3.1-2.7,7.1-3.6c2.8-0.6,6.7-1,12-0.9c1.5,0,3.1,0.1,4.7,0.2l0,0c0.1,0,0.3,0,0.4,0       c1.6,0.2,3.1,0.4,4.4,0.7c3.2,0.7,5.6,2,7.3,3.6c-0.5-0.9-1.1-1.8-1.8-2.5c-1.7-1.7-4.2-3-7.5-3.8c-1.3-0.3-2.8-0.6-4.4-0.7       c-0.1,0-0.3,0-0.4,0l0,0c-1.6-0.1-3.2-0.2-4.7-0.2c-5.3-0.1-9.2,0.2-12,0.9c-4,0.9-5.9,2.4-7.1,3.6c-0.4,1.2-1,3.4-1.6,6       c-0.3,1.5-0.6,3.1-0.8,4.7c0,1.1,0.1,2.2,0.2,3.2c0.4,2.6,1.1,5.2,2.5,7.7C97.6,111,98.2,111.9,99,112.7L99,112.7z"
   id="path287" />
				</g>
			</g>
		</g>
		<g
   id="g307">
			<g
   id="g297">
				<path
   class="st4"
   d="M242.4,190.6c0,0,7.8-4.2,2.3-13.4c-5.6-9.2-20.9-17.8-29.6-0.9C219.9,182.8,242.4,190.6,242.4,190.6z"
   id="path295" />
			</g>
			<g
   id="g301">
				<path
   class="st3"
   d="M244.7,177.2c-5-8.3-18-16.1-26.9-5.1c8.4-5.2,18.6,1.6,22.9,8.7c2.6,4.3,2.3,7.4,1.2,9.6      c0.3,0.1,0.5,0.2,0.5,0.2S250.2,186.3,244.7,177.2z"
   id="path299" />
			</g>
			<g
   id="g305">
				<path
   class="st2"
   d="M242.5,192.1l-0.6-0.2c-0.9-0.3-22.9-8-28-14.8l-0.5-0.7l0.4-0.8c4.4-8.6,10.3-10.4,14.4-10.4      c7.5,0,14.5,5.8,17.7,11.2c2,3.3,2.7,6.5,1.9,9.4c-1.1,4-4.6,5.9-4.7,6L242.5,192.1z M216.7,176c4.5,4.8,19.2,10.7,25.4,12.9      c0.8-0.6,2.3-1.9,2.8-3.9c0.6-2.1,0-4.5-1.6-7.1c-3-4.9-9.2-9.9-15.3-9.9C223.6,168,219.7,170.7,216.7,176z"
   id="path303" />
			</g>
		</g>
		<g
   id="g319">
			<path
   class="st4"
   d="M241.4,186.2L224,174.5c0,0-7.1-1.8-10.4,4.1c-1.3,2.4-8.9,13-12.5,21.4c-2.9,7.3-4.6,12.2,2.3,15.4     c-0.5,3.1,1.1,5.4,11.6,5.9c1.4,4.7,2.8,5.5,11.7,4.3c8.8-1.2,12.4-7.1,10-11.9C236.7,213.6,248.6,205.4,241.4,186.2z"
   id="path309" />
			<g
   id="g313">
				<path
   class="st3"
   d="M241.4,186.2l-0.6-0.4c0.4,15.8-8.4,30.3-8.4,30.3c2.2,4.8-1.6,4.5-5.5,5c-8,1.1-7.8,0.7-9.1-4      c-9.5-0.5-12.4-3-12-6.2c-6.3-3.1-4.7-8.1-2.1-15.4c0.5-1.3,1.1-2.6,1.7-4c-1.6,2.8-3.2,5.7-4.3,8.4c-2.9,7.3-4.6,12.2,2.3,15.4      c-0.5,3.1,1.1,5.4,11.6,5.9c1.4,4.7,2.8,5.5,11.7,4.3c8.8-1.2,12.4-7.1,10-11.9C236.7,213.6,248.6,205.4,241.4,186.2z"
   id="path311" />
			</g>
			<g
   id="g317">
				<path
   class="st2"
   d="M241.3,185.5c0,0,2,11.5,0.7,16.1l0,0c-1.2,7.4-5.8,10.8-6.1,11l-1,0.7l0.6,1.1c0.8,1.6,0.8,3.3-0.1,4.9      c-1.4,2.6-4.6,4.4-8.9,5c-8.7,1.2-9,0.3-10.1-3.3l-0.3-1h-1c-5.5-0.3-8.9-1.1-9.9-2.3c-0.3-0.3-0.5-0.8-0.3-1.9l0.2-1.1l-1-0.4      c-5.4-2.4-4.7-5.5-1.6-13.5c2.6-6,7.3-13.3,10.2-17.6c0.6-0.9,1.1-1.7,1.5-2.3c0,0,3.1-6.9,9.9-7.6c-3-0.6-8.8-0.4-11.7,4.9      c-0.3,0.6-1.1,1.8-2.2,3.4c-2.9,4.4-7.7,11.8-10.4,18.1c-2.6,6.6-5.1,12.9,2.2,16.8c0,1.2,0.3,2.2,1,3.1c1.6,1.9,4.9,2.9,11,3.3      c1.3,3.6,3.1,4.9,7.1,4.9c1.6,0,3.5-0.2,5.8-0.5c5.2-0.7,9.2-3,11-6.5c1.1-2.1,1.3-4.3,0.5-6.5      C241.2,211.5,250.7,200.1,241.3,185.5z"
   id="path315" />
			</g>
		</g>
		<g
   id="g329">
			<path
   class="st4"
   d="M236.8,205.4l-5.2,11.7C239.1,213.4,236.8,205.4,236.8,205.4z"
   id="path321" />
			<g
   id="g327">
				<g
   id="g325">
					<path
   class="st2"
   d="M236.8,205.4c0,0,0.2,0.2,0.3,0.5c0.2,0.4,0.4,0.9,0.6,1.6c0.1,0.3,0.2,0.7,0.2,1.1c0.1,0.4,0,0.8,0,1.3       c0,0.2,0,0.4-0.1,0.7c0,0.2,0,0.5-0.1,0.7c-0.1,0.5-0.2,0.9-0.4,1.4c-0.1,0.2-0.2,0.5-0.3,0.7s-0.3,0.4-0.4,0.6       c-0.2,0.4-0.6,0.7-0.9,1.1c-0.3,0.3-0.7,0.6-1,0.8c-0.3,0.3-0.7,0.4-1,0.6c-0.3,0.1-0.6,0.3-0.9,0.4c-0.3,0.1-0.5,0.1-0.7,0.2       c-0.4,0.1-0.6,0.1-0.6,0.1s0.2-0.2,0.4-0.5c0.1-0.1,0.3-0.3,0.5-0.5s0.4-0.4,0.6-0.7c0.2-0.2,0.4-0.5,0.6-0.8       c0.2-0.3,0.4-0.5,0.6-0.9c0.2-0.3,0.4-0.6,0.6-1c0.2-0.3,0.4-0.7,0.5-1c0.2-0.3,0.3-0.7,0.4-1.1c0.1-0.4,0.2-0.7,0.3-1.1       c0.1-0.4,0.2-0.7,0.2-1.1c0.1-0.3,0.1-0.7,0.2-1c0.1-0.6,0.2-1.2,0.2-1.6C236.7,205.7,236.8,205.4,236.8,205.4z"
   id="path323" />
				</g>
			</g>
		</g>
		<g
   id="g409">
			<g
   id="g377">
				<g
   id="g333">
					<path
   class="st22"
   d="M141.9,192.2l-11,43.3c0,0,3.9,10.8,17.6,20.5c5.7-5.6,14.6-19.3,14.6-19.3s-6.9-30.7-7.6-43.3       C154.9,180.9,141.9,192.2,141.9,192.2z"
   id="path331" />
				</g>
				<path
   class="st23"
   d="M155.6,193.4c-0.4-7-4.5-6.6-8.2-4.9c0.4,0.9,0.7,2.1,0.8,3.6c0.7,12.6,7.6,43.3,7.6,43.3      s-4,11.9-8.4,19.7c0.4,0.3,0.8,0.6,1.2,0.9c5.7-5.6,14.6-19.3,14.6-19.3S156.3,206,155.6,193.4z"
   id="path335" />
				<g
   id="g341">
					<g
   id="g339">
						<path
   class="st24"
   d="M157.2,208.4c-12-5.5-17.3-11.1-17.5-11.4l2-1.8c0,0.1,5.1,5.5,16.6,10.7L157.2,208.4z"
   id="path337" />
					</g>
				</g>
				<g
   id="g347">
					<g
   id="g345">
						<path
   class="st24"
   d="M159.4,218.9c-14.1-3.2-22.2-12.2-22.6-12.6l2-1.8c0.1,0.1,8,8.7,21.2,11.7L159.4,218.9z"
   id="path343" />
					</g>
				</g>
				<g
   id="g353">
					<g
   id="g351">
						<path
   class="st24"
   d="M160.5,228.2c-15.1-1.7-25.4-10.4-25.8-10.8l1.7-2c0.1,0.1,10.1,8.5,24.4,10.2L160.5,228.2z"
   id="path349" />
					</g>
				</g>
				<g
   id="g359">
					<g
   id="g357">
						<path
   class="st24"
   d="M162.2,236.5c-17.8-1.2-29-9.9-29.4-10.2l1.6-2.1c0.1,0.1,11,8.5,28,9.7L162.2,236.5z"
   id="path355" />
					</g>
				</g>
				<g
   id="g365">
					<g
   id="g363">
						<path
   class="st24"
   d="M155.7,244.6c-15.5,0-24.4-8.4-24.7-8.8l1.8-1.9c0.1,0.1,9.5,9,25.6,8l0.2,2.6        C157.6,244.6,156.6,244.6,155.7,244.6z"
   id="path361" />
					</g>
				</g>
				<g
   id="g371">
					<g
   id="g369">
						<path
   class="st24"
   d="M151,252.6c-7.2,0-11.5-3.7-11.7-3.9l1.7-2c0,0,4.2,3.6,11.1,3.2l0.2,2.6        C151.8,252.6,151.4,252.6,151,252.6z"
   id="path367" />
					</g>
				</g>
				<g
   id="g375">
					<path
   class="st2"
   d="M148.8,258.3l-1.2-0.8c-14-9.8-18.1-20.8-18.3-21.3l-0.2-0.5l11.3-44.4l0.4-0.4c0.6-0.5,6-5.1,10.5-5.1       c2.1,0,5.7,1,6.1,7.6c0.7,12.3,7.5,42.7,7.6,43l0.2,0.7l-0.4,0.6c-0.4,0.6-9.1,14-14.9,19.6L148.8,258.3z M132.8,235.4       c0.9,2.1,5,10.5,15.6,18.3c4.8-5.1,11.3-14.8,12.9-17.3c-1.1-4.8-6.8-31.2-7.5-42.8c-0.2-4.3-1.9-4.3-2.6-4.3       c-2.5,0-6.2,2.6-7.8,3.9L132.8,235.4z"
   id="path373" />
				</g>
			</g>
			<g
   id="g401">
				<g
   id="g381">
					<path
   class="st22"
   d="M138,178.1c0,0,11.9-7.2,23.9,0.6c0,9.4-6.3,14.8-6.3,14.8s-10.5-0.6-14.8,0.4       C139.6,190.4,137.5,183.9,138,178.1z"
   id="path379" />
				</g>
				<path
   class="st23"
   d="M143.8,175.8c3.7,0,7.8,0.9,12,3.6c0,7.1-3.6,11.9-5.3,13.8c2.8,0,5.1,0.2,5.1,0.2s6.3-5.3,6.3-14.8      C155.1,174.3,148.4,174.6,143.8,175.8z"
   id="path383" />
				<g
   id="g389">
					<g
   id="g387">
						<path
   class="st24"
   d="M157.5,192.9c-11.5-2-19.8-5.8-20.1-6l1.1-2.4c0.1,0,8.4,3.9,19.5,5.8L157.5,192.9z"
   id="path385" />
					</g>
				</g>
				<g
   id="g395">
					<g
   id="g393">
						<path
   class="st24"
   d="M160,187c-12.7-1.3-20.7-6.6-21-6.8l1.5-2.2c0.1,0,7.8,5.1,19.8,6.4L160,187z"
   id="path391" />
					</g>
				</g>
				<g
   id="g399">
					<path
   class="st2"
   d="M139.7,195.9l-0.5-1.5c-2.4-6.6-3.3-12-2.9-16.5l0.1-0.9l0.8-0.5c0.2-0.1,5.5-3.3,12.7-3.3       c4.7,0,9,1.3,13,3.9l0.8,0.5v0.9c0,10.1-6.6,15.9-6.9,16.1l-0.5,0.5h-0.7c0,0-3.1-0.2-6.6-0.2c-3.6,0-6.2,0.2-7.8,0.5       L139.7,195.9z M139.7,179.2c-0.2,3.5,0.6,7.7,2.3,12.7c1.7-0.2,4.1-0.3,7-0.3c2.5,0,4.8,0.1,6,0.1c1.3-1.3,4.8-5.6,5.2-12       c-3.2-1.9-6.6-2.8-10.3-2.8C145.1,176.8,141.3,178.4,139.7,179.2z"
   id="path397" />
				</g>
			</g>
			<g
   id="g407">
				<g
   id="g405">
					<path
   class="st2"
   d="M141.1,192c0,0,0.1,0,0.2,0c0.1,0,0.3,0,0.5-0.1c0.4-0.1,1.1-0.2,1.8-0.4s1.6-0.5,2.5-0.8       c0.5-0.2,0.9-0.4,1.4-0.6c0.5-0.2,0.9-0.5,1.4-0.7c0.5-0.3,0.9-0.5,1.3-0.8c0.4-0.3,0.9-0.6,1.2-0.9c0.4-0.3,0.8-0.6,1.1-0.9       c0.3-0.3,0.6-0.6,0.9-0.9c0.2-0.3,0.5-0.6,0.7-0.9c0.2-0.3,0.3-0.5,0.5-0.7c0.2-0.4,0.4-0.6,0.4-0.6s-0.1,0.3-0.2,0.7       c-0.1,0.2-0.2,0.5-0.3,0.8c-0.2,0.3-0.3,0.6-0.5,1s-0.5,0.7-0.7,1.1c-0.2,0.4-0.6,0.8-0.9,1.2c-0.3,0.4-0.7,0.8-1.1,1.2       c-0.4,0.4-0.8,0.8-1.2,1.1s-0.9,0.7-1.3,1c-0.5,0.3-0.9,0.6-1.4,0.9c-0.9,0.6-1.8,1-2.5,1.4c-0.8,0.4-1.4,0.7-1.9,0.9       c-0.2,0.1-0.4,0.2-0.6,0.2c-0.1,0-0.2,0.1-0.2,0.1L141.1,192z"
   id="path403" />
				</g>
			</g>
		</g>
		<g
   id="g419">
			<g
   id="g413">
				<path
   class="st25"
   d="M646.3,128.7l-9.5,0.2c-3.8,2.2-3.6,1.5-3.8,2.2c-10.9,32.9-28.4,42.7-47,29.3      c-8.8-6.2-13.2-20.8-15.7-25.6c-0.6-1.1,0-2.5,1.1-2.9l44.8-14.1l46.9-14.8c4.7-16.7-0.5-42.1-13.3-62.1s-33-34.7-58.1-29.8      s-39.2,21.3-46.9,36.6c-0.2,0.4-0.4,0.8-0.6,1.1c-5.7,11.7-8.6,24.9-8.6,38.3V108v16.1c0,16.9,4.2,33.5,12.3,47.7      c6.5,11.3,14,18.7,20.8,23.5l0.4,0.2c8.1,5.6,17.4,8.5,26.9,8.5h7.2c9.6,0,19.1-2.9,27.4-8.4c17.9-12,26.3-26.6,30.1-39.2      c4.8-15.6,2.4-28,2.4-28L646.3,128.7z M578,75.1c5.4-16.8,25.7-21.9,39-12.1c4.1,3,7.7,11.5,9.7,18.1l-53.2,15.4      C573.5,96.6,573.4,89.1,578,75.1z"
   id="path411" />
			</g>
			<g
   id="g417">
				<path
   class="st26"
   d="M646.3,128.7l-9.5,0.2c-3.8,2.2-3.6,1.5-3.8,2.2c-10.9,32.9-28.4,42.7-47,29.3      c-8.8-6.2-13.2-20.8-15.7-25.6c-0.6-1.1,0-2.5,1.1-2.9l44.8-14.1l46.9-14.8c4.7-16.7-0.5-42.1-13.3-62.1s-33-34.7-58.1-29.8      s-39.2,21.3-46.9,36.6c-0.2,0.4-0.4,0.8-0.6,1.1c-5.7,11.7-8.6,24.9-8.6,38.3V108v16.1c0,16.9,4.2,33.5,12.3,47.7      c6.5,11.3,14,18.7,20.8,23.5l0.4,0.2c8.1,5.6,17.4,8.5,26.9,8.5h7.2c9.6,0,19.1-2.9,27.4-8.4c17.9-12,26.3-26.6,30.1-39.2      c4.8-15.6,2.4-28,2.4-28L646.3,128.7z M578,75.1c5.4-16.8,25.7-21.9,39-12.1c4.1,3,7.7,11.5,9.7,18.1l-53.2,15.4      C573.5,96.6,573.4,89.1,578,75.1z"
   id="path415" />
			</g>
		</g>
		<path
   class="st25"
   d="M367.7,27.6C355.6,19.9,344.4,16,334.1,16h-8.7c-27.1,0-49.6,16.5-67.5,49.4c-4.5,13.4-6.7,25.6-6.7,36.7    c0,35.1,14.1,65.6,42.3,91.4c12.1,9,25.2,13.6,39.5,13.6h4.8c28,0,49.8-17.8,65.5-53.5c3.2-11,4.8-21.1,4.8-30.5V118    C408.2,81,394.7,50.8,367.7,27.6z M329.3,149.1h-2c-15.4,0-24.3-13.3-26.9-40v-7.4c1.9-20.1,8.9-30.2,21.2-30.2    c13,0,24.3,12.5,33.8,37.5l0.9,11C356.2,135.3,347.2,144.9,329.3,149.1z"
   id="path421" />
		<path
   class="st25"
   d="M480.8,28.3c0-0.6-2.9-1-8.7-1h-7.8c-18.1,0-35,5-50.8,15c4.2,55.2,6.3,94.8,6.3,118.7v20    c0,3.5-0.3,9.1-0.9,16.9c18.3,2,32.4,4.3,42.3,6.9c-2.6-29.2-3.9-50.2-3.9-62.8c1-0.6,1.8-1,2.3-1c2.2,0,4.3,0.3,6.3,1    c27.5,0,45.7-13.6,54.7-40.9c2.1-10.5,3.2-18.8,3.2-24.8C523.8,49.2,509.5,33.2,480.8,28.3z M483.9,84.2c0,13-7.5,21-22.6,24h-3.2    c-1,0-1.5-1-1.5-3c0-6-0.8-18.3-2.4-36.9c0.9-0.6,4-1.3,9.4-1.9c13.6,1.6,20.3,7.3,20.3,16.9L483.9,84.2L483.9,84.2z"
   id="path423" />
		<path
   class="st25"
   d="M809.2,3.9l-39.5,97.8c27.5,35.5,45.2,59,53,70.3l-47.5,19.1c-2.6-1-10.7-14.5-24.3-40.6    c-1.3,0.5-7,16-17,46.6c-3.1,1.4-21.1,4.1-53.9,8.3l41.3-91.9c-37.5-48.2-56.4-72.8-56.5-73.8l39.4-23.9    c1.1,0.6,12.5,18,34.2,52.4c1.6,0,9.4-20.3,23.3-60.8L809.2,3.9z"
   id="path425" />
		<path
   class="st27"
   d="M950.9,24.8c-9.7-9.9-19.3-15.9-28.8-17.8L914,5.4c-25.1-5.1-49.2,7-72.5,36.5    c-6.9,12.4-11.4,24.2-13.6,35.3c-7.1,35-0.3,68,20.6,99.1c9.3,11.3,20.6,18.3,33.8,21l4.5,0.9c25.9,5.3,49.7-8.3,71.5-41    c5.2-10.3,8.8-20.1,10.7-29.5l1-4.9C977.5,85.8,971.1,53.1,950.9,24.8z M892.7,137.7l-1.8-0.4c-14.2-2.9-19.8-17.9-16.8-44.9    l1.5-7.3c5.8-19.7,14.4-28.4,25.7-26.1c12,2.4,19.9,17,23.6,43.8l-1.4,11.1C920.4,129,910.1,137,892.7,137.7z"
   id="path427" />
		<g
   id="g435">
			<circle
   class="st28"
   cx="1308.6"
   cy="23.3"
   r="20.4"
   id="circle429" />
			<g
   id="g433">
				<path
   class="st27"
   d="M1301.6,35V9.7h9.5c1.9,0,3.4,0.2,4.3,0.7c1,0.5,1.8,1.3,2.4,2.4s0.9,2.4,0.9,3.8c0,1.8-0.5,3.3-1.5,4.5      s-2.5,2-4.6,2.3c0.7,0.4,1.3,0.8,1.7,1.3c0.8,0.9,1.6,2,2.3,3.4l3.7,6.9h-3.6l-2.8-5.3c-0.8-1.5-1.5-2.7-2-3.5s-1-1.4-1.4-1.7      c-0.4-0.3-0.9-0.5-1.3-0.7c-0.3-0.1-0.8-0.1-1.6-0.1h-3.3V35H1301.6z M1304.5,20.9h6.1c1.3,0,2.3-0.2,3-0.5s1.3-0.8,1.7-1.5      c0.4-0.7,0.6-1.4,0.6-2.3c0-1.2-0.4-2.2-1.1-2.9c-0.7-0.8-1.9-1.2-3.5-1.2h-6.8L1304.5,20.9L1304.5,20.9z"
   id="path431" />
			</g>
		</g>
		<g
   id="g491">
			
			
			
			
			
			
			
			
			
			
			
			
			
			
			
			
			
			
			
			
			
			
			
			
			
			
			
		</g>
	</g>
	<path
   class="st27"
   d="M1128,77.7c-3.7-61.1-41.7-70.5-41.7-70.5c-15.2-2.9-45.4-2.8-58.6-2.6c-7,0.1-13.9,2.2-20.1,6.3   c-27.6,18.3-25.3,60.8-25.3,60.8c0,63.2,54.1,73.3,54.1,73.3c0.8,22.2-5.1,70.6-5.1,70.6c17.5-8.7,49.1-6.9,49.1-6.9   c-4.2-13-4.3-63.4-4.3-63.4C1133.4,144.1,1128,77.7,1128,77.7z M1039.3,97.1c-26.8-1.5-25.6-28.4-25.6-28.4   c3.7-22.1,27.1-14.2,27.1-14.2L1039.3,97.1z M1073.5,96.5l-2.6-41.2c1.9-3.9,28.5-4,28.4,19.1C1099.2,97.5,1073.5,96.5,1073.5,96.5   z"
   id="path495" />
	<path
   class="st27"
   d="M1285.1,86.1c1.4-61.2-35.7-73.7-35.7-73.7c-14.9-4.1-45-6.5-58.2-7.4c-7-0.5-14,1-20.6,4.6   c-29,16-30.2,58.5-30.2,58.5c-5.2,63,47.9,77.5,47.9,77.5c-1,22.2-10.9,69.9-10.9,69.9c18.2-7.2,49.5-2.8,49.5-2.8   c-3.1-13.3,0.9-63.5,0.9-63.5C1285,152.7,1285.1,86.1,1285.1,86.1z M1195.1,98.1c-26.6-3.7-23.2-30.4-23.2-30.4   c5.5-21.7,28.2-11.9,28.2-11.9L1195.1,98.1z M1229.2,100.4l0.8-41.3c2.2-3.7,28.7-1.6,26.7,21.4   C1254.8,103.5,1229.2,100.4,1229.2,100.4z"
   id="path497" />
</g>
</svg>