<?xml version="1.0" encoding="utf-8"?>
<!-- Generator: Adobe Illustrator 21.0.2, SVG Export Plug-In . SVG Version: 6.00 Build 0)  -->
<svg version="1.1" id="Layer_2" xmlns="http://www.w3.org/2000/svg" xmlns:xlink="http://www.w3.org/1999/xlink" x="0px" y="0px"
	 viewBox="0 0 123.2 123.2" style="enable-background:new 0 0 123.2 123.2;" xml:space="preserve">
<style type="text/css">
	.st0{fill:#C3D962;}
	.st1{fill:#FFBF4C;}
	.st2{fill:#E65C69;}
</style>
<g>
	<g>
		<path d="M61.6,115C32.1,115,8.1,91,8.1,61.6c0-29.5,24-53.4,53.4-53.4c29.5,0,53.4,24,53.4,53.4C115,91,91,115,61.6,115z
			 M61.6,9.6C32.9,9.6,9.6,32.9,9.6,61.6c0,28.6,23.3,51.9,51.9,51.9c28.6,0,51.9-23.3,51.9-51.9C113.5,32.9,90.2,9.6,61.6,9.6z"/>
	</g>
	<path d="M51.1,116.5C51.1,116.5,51.1,116.5,51.1,116.5c-0.4,0-0.8-0.4-0.8-0.8c0-0.9,0.1-1.7,0.2-2.6c0.6-6.5,2.5-10.5,4.4-14.3
		c2.3-4.8,4.4-9.3,4.4-18.5s-2.1-13.7-4.4-18.5c-2.2-4.7-4.6-9.6-4.6-19.1c0-9.6,2.3-14.4,4.6-19.1l0.1-0.2c0.3-0.7,0.4-1.5,0.1-2.2
		s-0.8-1.3-1.5-1.6c-0.7-0.3-1.5,0-1.8,0.7c-0.2,0.3-0.2,0.7-0.1,1.1c0.1,0.4,0.4,0.7,0.7,0.8c0.4,0.2,0.5,0.6,0.4,1
		c-0.2,0.4-0.6,0.5-1,0.4c-0.7-0.3-1.3-0.9-1.5-1.7c-0.3-0.7-0.2-1.6,0.1-2.3c0.7-1.4,2.4-2,3.8-1.3c1,0.5,1.9,1.4,2.3,2.4
		c0.4,1.1,0.3,2.3-0.2,3.3l-0.1,0.2c-2.3,4.8-4.4,9.3-4.4,18.5c0,9.2,2.2,13.7,4.4,18.5c2.2,4.7,4.6,9.6,4.6,19.1
		s-2.3,14.4-4.6,19.1c-1.9,3.9-3.6,7.6-4.2,13.8c-0.1,0.8-0.1,1.7-0.2,2.5C51.9,116.2,51.5,116.5,51.1,116.5z"/>
	<g>
		<path class="st0" d="M77.6,92.8c-5.4,2.6-11.5,3.3-17.3,2c2.7-5.3,7.1-9.6,12.5-12.2c5.4-2.6,11.5-3.3,17.3-2
			C87.4,86,83.1,90.3,77.6,92.8z"/>
		<path d="M66.1,98.4c-3.1,0-6.2-0.5-9.2-1.4c-0.2-0.1-0.4-0.2-0.4-0.4s-0.1-0.4,0-0.6c2.8-7.1,8.2-12.8,15-16.1
			c6.9-3.3,14.7-3.8,22-1.5c0.2,0.1,0.4,0.2,0.4,0.4s0.1,0.4,0,0.6c-2.8,7.1-8.2,12.8-15,16.1C74.9,97.5,70.5,98.4,66.1,98.4z
			 M58.2,95.8c6.7,1.9,13.8,1.4,20.1-1.6c6.3-3,11.2-8.1,14-14.5c-6.7-1.9-13.8-1.4-20.1,1.6C65.9,84.3,60.9,89.4,58.2,95.8z"/>
		<path d="M57.2,97c-0.3,0-0.6-0.2-0.7-0.4c-0.2-0.4,0-0.8,0.4-1l18-8.5c0.4-0.2,0.8,0,1,0.4c0.2,0.4,0,0.8-0.4,1l-18,8.5
			C57.4,97,57.3,97,57.2,97z"/>
	</g>
	<g>
		<path class="st0" d="M71.5,43.4c-4.9,3.6-10.7,5.4-16.6,5.2c1.6-5.7,5.1-10.8,10-14.3c4.8-3.6,10.7-5.4,16.6-5.2
			C79.8,34.8,76.3,39.9,71.5,43.4z"/>
		<path d="M55.5,51.7c-1.2,0-2.4-0.1-3.6-0.2c-0.2,0-0.4-0.1-0.5-0.3c-0.1-0.2-0.2-0.4-0.1-0.6c1.4-7.5,5.6-14.1,11.7-18.6
			c6.2-4.5,13.7-6.5,21.3-5.6c0.2,0,0.4,0.1,0.5,0.3c0.1,0.2,0.2,0.4,0.1,0.6c-1.4,7.5-5.6,14.1-11.7,18.6
			C68.1,49.6,61.9,51.7,55.5,51.7z M52.9,50c6.9,0.6,13.8-1.3,19.4-5.4c5.6-4.1,9.5-10.1,11-16.9c-6.9-0.6-13.8,1.3-19.4,5.4
			C58.3,37.3,54.4,43.2,52.9,50z"/>
		<path d="M52,51.4c-0.2,0-0.5-0.1-0.6-0.3c-0.2-0.3-0.2-0.8,0.2-1l16.1-11.8c0.3-0.2,0.8-0.2,1,0.2c0.2,0.3,0.2,0.8-0.2,1
			L52.5,51.3C52.3,51.4,52.2,51.4,52,51.4z"/>
	</g>
	<g>
		<path class="st1" d="M38.4,73.7c5.9,1,12-0.1,17.2-2.9c-4.1-4.4-9.4-7.2-15.4-8.2c-5.9-1-12,0.1-17.2,2.9
			C27,69.8,32.4,72.7,38.4,73.7z"/>
		<path d="M42.7,77c-1.6,0-3.2-0.1-4.8-0.4c-7.5-1.2-14.3-5.2-18.9-11.3c-0.1-0.2-0.2-0.4-0.1-0.6s0.1-0.4,0.3-0.5
			c6.3-4.3,14-5.9,21.5-4.7c7.5,1.2,14.3,5.2,18.9,11.3c0.1,0.2,0.2,0.4,0.1,0.6s-0.1,0.4-0.3,0.5C54.4,75.3,48.6,77,42.7,77z
			 M20.6,65.1c4.4,5.4,10.6,8.9,17.5,10.1c6.9,1.1,13.9-0.3,19.8-4c-4.4-5.4-10.6-8.9-17.5-10.1C33.5,60,26.5,61.4,20.6,65.1z"/>
		<path d="M59,72.1c0,0-0.1,0-0.1,0l-19.7-3.2c-0.4-0.1-0.7-0.5-0.6-0.9c0.1-0.4,0.5-0.7,0.9-0.6l19.7,3.2c0.4,0.1,0.7,0.5,0.6,0.9
			C59.7,71.8,59.3,72.1,59,72.1z"/>
	</g>
	<g>
		<path d="M97.8,52.8c-0.4,0-0.8-0.3-0.8-0.8v-6.1c0-0.4,0.3-0.8,0.8-0.8s0.8,0.3,0.8,0.8V52C98.6,52.4,98.2,52.8,97.8,52.8z"/>
		<path d="M100.9,49.7h-6.1c-0.4,0-0.8-0.3-0.8-0.8s0.3-0.8,0.8-0.8h6.1c0.4,0,0.8,0.3,0.8,0.8S101.3,49.7,100.9,49.7z"/>
	</g>
	<path d="M41.1,95.8c-2.1,0-3.8-1.7-3.8-3.8s1.7-3.8,3.8-3.8S45,89.9,45,92S43.2,95.8,41.1,95.8z M41.1,89.7c-1.3,0-2.3,1-2.3,2.3
		s1,2.3,2.3,2.3s2.3-1,2.3-2.3S42.4,89.7,41.1,89.7z"/>
	<circle cx="35.8" cy="46.4" r="1.4"/>
	<g>
		<g>
			<path class="st2" d="M63.5,72.1c-0.4,2.1,0.6,4.2,2.6,5.2c2,0.9,4.3,0.4,5.6-1.3c0.4-2.1-0.6-4.2-2.6-5.2
				C67.2,69.9,64.9,70.5,63.5,72.1z"/>
			<path d="M68.1,78.5c-0.8,0-1.6-0.2-2.3-0.5c-2.7-1.3-3.9-4.5-2.6-7.2c1.3-2.7,4.5-3.9,7.2-2.6l0,0c2.7,1.3,3.9,4.5,2.6,7.2
				c-0.6,1.3-1.7,2.3-3.1,2.8C69.4,78.4,68.8,78.5,68.1,78.5z M68.1,69.1c-1.5,0-2.9,0.8-3.6,2.3c-0.9,2-0.1,4.3,1.9,5.2
				c1,0.4,2,0.5,3,0.1c1-0.4,1.8-1.1,2.2-2c0.9-2,0.1-4.3-1.9-5.2c0,0,0,0,0,0C69.3,69.2,68.7,69.1,68.1,69.1z"/>
		</g>
		<g>
			<path class="st2" d="M72.5,64.3c-0.4,2.1,0.6,4.2,2.6,5.2c2,0.9,4.3,0.4,5.6-1.3c0.4-2.1-0.6-4.2-2.6-5.2
				C76.1,62.1,73.8,62.7,72.5,64.3z"/>
			<path d="M77.1,70.7c-3,0-5.4-2.4-5.4-5.4c0-3,2.4-5.4,5.4-5.4c3,0,5.4,2.4,5.4,5.4C82.5,68.2,80.1,70.7,77.1,70.7z M77.1,61.3
				c-2.2,0-3.9,1.8-3.9,3.9s1.8,3.9,3.9,3.9c2.2,0,3.9-1.8,3.9-3.9S79.2,61.3,77.1,61.3z"/>
		</g>
		<g>
			<path class="st2" d="M61.3,60.5c-0.4,2.1,0.6,4.2,2.6,5.2c2,0.9,4.3,0.3,5.6-1.3c0.4-2.1-0.6-4.2-2.6-5.2
				C64.9,58.2,62.6,58.8,61.3,60.5z"/>
			<path d="M65.8,66.8c-0.8,0-1.6-0.2-2.3-0.5c-2.7-1.3-3.9-4.5-2.6-7.2c1.3-2.7,4.5-3.9,7.2-2.6c0,0,0,0,0,0
				c2.7,1.3,3.9,4.5,2.6,7.2c-0.6,1.3-1.7,2.3-3.1,2.8C67.1,66.7,66.5,66.8,65.8,66.8z M65.9,57.5c-1.5,0-2.9,0.8-3.6,2.3
				c-0.9,2-0.1,4.3,1.9,5.2c1,0.5,2,0.5,3,0.1s1.8-1.1,2.2-2c0.9-2,0.1-4.3-1.9-5.2C67,57.6,66.4,57.5,65.9,57.5z"/>
		</g>
	</g>
</g>
</svg>
