<?xml version="1.0" encoding="utf-8"?>
<!-- Generator: Adobe Illustrator 21.0.2, SVG Export Plug-In . SVG Version: 6.00 Build 0)  -->
<svg version="1.1" id="Layer_2" xmlns="http://www.w3.org/2000/svg" xmlns:xlink="http://www.w3.org/1999/xlink" x="0px" y="0px"
	 viewBox="0 0 123.2 123.2" style="enable-background:new 0 0 123.2 123.2;" xml:space="preserve">
<style type="text/css">
	.st0{fill:#FFBF4C;}
	.st1{fill:#6EBF4C;}
	.st2{fill:#C3D962;}
</style>
<g>
	<g>
		<path class="st0" d="M81.6,23.3c0,4.7,3.8,8.5,8.5,8.5c4.4,0,8.1-3.4,8.5-7.7c-3.5-3.4-7.4-6.4-11.8-8.8
			C83.8,16.6,81.6,19.7,81.6,23.3z"/>
	</g>
	<g>
		<path d="M27.5,79.2c-0.4,0-0.8-0.3-0.8-0.8v-6.1c0-0.4,0.3-0.8,0.8-0.8s0.8,0.3,0.8,0.8v6.1C28.2,78.8,27.9,79.2,27.5,79.2z"/>
		<path d="M30.6,76.1h-6.1c-0.4,0-0.8-0.3-0.8-0.8s0.3-0.8,0.8-0.8h6.1c0.4,0,0.8,0.3,0.8,0.8S31,76.1,30.6,76.1z"/>
	</g>
	<path d="M61.6,63.8c-2.2,0-4.2-1.5-4.8-3.6c-0.7-2.6-1.1-5.3-1.2-8c0-0.4,0.3-0.8,0.7-0.8c0.4,0,0.8,0.3,0.8,0.7
		c0.1,2.6,0.5,5.2,1.1,7.6c0.4,1.5,1.8,2.5,3.3,2.5c1.5,0,2.9-1,3.3-2.5c0.8-2.8,1.2-5.7,1.2-8.6c0-2.1-0.2-4.1-0.6-6.1
		c-0.1-0.4,0.2-0.8,0.6-0.9c0.4-0.1,0.8,0.2,0.9,0.6c0.4,2.1,0.6,4.2,0.6,6.4c0,3.1-0.4,6.1-1.2,9C65.7,62.3,63.8,63.8,61.6,63.8z"
		/>
	<path d="M57.1,45.1c-0.1,0-0.1,0-0.2,0c-0.4-0.1-0.7-0.5-0.6-0.9c0.8-4,2.4-7.9,4.6-11.4c0.1-0.2,0.4-0.3,0.6-0.3l0,0
		c0.3,0,0.5,0.1,0.6,0.3c1.1,1.8,2.1,3.7,2.9,5.6c0.2,0.4,0,0.8-0.4,1c-0.4,0.2-0.8,0-1-0.4c-0.6-1.5-1.3-3-2.1-4.4
		c-1.8,3.1-3.1,6.4-3.8,9.8C57.7,44.9,57.4,45.1,57.1,45.1z"/>
	<path class="st1" d="M61.6,60.8c-0.9,0-1.6-0.6-1.9-1.4c-0.7-2.7-1.1-5.4-1.1-8.2c0-4.6,1-9.1,3-13.3c1.9,4.1,3,8.6,3,13.3
		c0,2.8-0.4,5.6-1.1,8.2C63.2,60.2,62.4,60.8,61.6,60.8L61.6,60.8z"/>
	<path d="M61.6,115C32.1,115,8.1,91,8.1,61.6c0-2.3,0.1-4.6,0.4-6.9C8.6,54.3,9,54,9.4,54c0.4,0.1,0.7,0.4,0.6,0.8
		c-0.3,2.2-0.4,4.5-0.4,6.7c0,28.6,23.3,51.9,51.9,51.9c28.6,0,51.9-23.3,51.9-51.9S90.2,9.6,61.6,9.6c-17.4,0-33.5,8.6-43.2,23.1
		c-0.2,0.3-0.7,0.4-1,0.2c-0.3-0.2-0.4-0.7-0.2-1C27.1,17,43.7,8.1,61.6,8.1c29.5,0,53.4,24,53.4,53.4S91,115,61.6,115z"/>
	<path d="M9.3,55.6C9.3,55.6,9.3,55.6,9.3,55.6c-0.5-0.1-0.8-0.4-0.7-0.8c0.1-0.8,0.2-1.7,0.4-2.5c0.1-0.4,0.5-0.7,0.9-0.6
		c0.4,0.1,0.7,0.5,0.6,0.9c-0.1,0.8-0.3,1.6-0.4,2.4C10,55.3,9.7,55.6,9.3,55.6z"/>
	<g>
		<path d="M57.8,90.8H13.7c-0.4,0-0.8-0.3-0.8-0.8s0.3-0.8,0.8-0.8h44.2c0.4,0,0.8,0.3,0.8,0.8S58.2,90.8,57.8,90.8z"/>
		<path d="M109.5,90.8H65.3c-0.4,0-0.8-0.3-0.8-0.8s0.3-0.8,0.8-0.8h44.1c0.4,0,0.8,0.3,0.8,0.8S109.9,90.8,109.5,90.8z"/>
	</g>
	<path class="st2" d="M21.6,92.3c9.5,12.4,24.2,19.7,40,19.7c15.8,0,30.4-7.3,40-19.7H21.6z M61.6,106c-2.9,0-5.3-2.4-5.3-5.3
		s2.4-5.3,5.3-5.3c2.9,0,5.3,2.4,5.3,5.3C66.9,103.6,64.5,106,61.6,106z"/>
	<path d="M61.6,104.5c-2.1,0-3.8-1.7-3.8-3.8s1.7-3.8,3.8-3.8s3.8,1.7,3.8,3.8S63.7,104.5,61.6,104.5z M61.6,98.4
		c-1.3,0-2.3,1-2.3,2.3s1,2.3,2.3,2.3s2.3-1,2.3-2.3S62.9,98.4,61.6,98.4z"/>
	<path d="M61.6,98.1c-0.4,0-0.8-0.3-0.8-0.8V50.5c0-0.4,0.3-0.8,0.8-0.8s0.8,0.3,0.8,0.8v46.8C62.3,97.7,62,98.1,61.6,98.1z"/>
	<g>
		<path class="st1" d="M68.4,71c-0.6-0.6-0.7-1.6-0.3-2.3c1.4-2.4,3.1-4.6,5-6.6c3.3-3.3,7.2-5.7,11.5-7.3c-1.5,4.3-4,8.2-7.3,11.5
			c-2,2-4.2,3.7-6.6,5C70,71.7,69,71.6,68.4,71L68.4,71z"/>
		<path d="M69.8,74.5c-1.3,0-2.5-0.5-3.5-1.4c-1.6-1.6-1.9-4-0.8-5.9c1.5-2.6,3.4-5.1,5.5-7.2c4.6-4.6,10.4-7.8,16.7-9.2
			c0.2-0.1,0.5,0,0.7,0.2c0.2,0.2,0.3,0.4,0.2,0.7c-1.4,6.3-4.6,12.1-9.2,16.7c-2.2,2.2-4.6,4-7.2,5.5
			C71.5,74.3,70.6,74.5,69.8,74.5z M86.9,52.5C81.3,54,76.2,56.9,72.1,61c-2.1,2.1-3.9,4.4-5.3,6.9c-0.8,1.3-0.5,3,0.6,4.1
			c1.1,1.1,2.8,1.3,4.1,0.5c2.5-1.4,4.8-3.2,6.9-5.3C82.5,63.2,85.4,58.1,86.9,52.5z"/>
		<path d="M61.6,78.6c-0.2,0-0.4-0.1-0.5-0.2c-0.3-0.3-0.3-0.8,0-1.1l14.1-14.1c0.3-0.3,0.8-0.3,1.1,0s0.3,0.8,0,1.1L62.1,78.3
			C62,78.5,61.8,78.6,61.6,78.6z"/>
	</g>
	<g>
		<path class="st1" d="M54.7,77.7c0.6-0.6,0.7-1.6,0.3-2.3c-1.4-2.4-3.1-4.6-5-6.6c-3.3-3.3-7.2-5.7-11.5-7.3
			c1.5,4.3,4,8.2,7.3,11.5c2,2,4.2,3.7,6.6,5C53.2,78.5,54.1,78.3,54.7,77.7L54.7,77.7z"/>
		<path d="M53.4,81.3c-0.8,0-1.7-0.2-2.4-0.6c-2.6-1.5-5.1-3.4-7.2-5.5c-4.6-4.6-7.8-10.4-9.2-16.7c-0.1-0.3,0-0.5,0.2-0.7
			c0.2-0.2,0.4-0.3,0.7-0.2c6.3,1.4,12.1,4.6,16.7,9.2c2.2,2.2,4,4.6,5.5,7.2c1.1,1.9,0.8,4.4-0.8,5.9
			C55.9,80.8,54.6,81.3,53.4,81.3z M36.3,59.3c1.5,5.6,4.4,10.7,8.5,14.8c2.1,2.1,4.4,3.8,6.9,5.3c1.3,0.8,3,0.5,4.1-0.5
			c1.1-1.1,1.3-2.8,0.6-4.1c-1.4-2.5-3.2-4.8-5.3-6.9C46.9,63.6,41.9,60.7,36.3,59.3z"/>
		<path d="M61.6,85.3c-0.2,0-0.4-0.1-0.5-0.2L47,71c-0.3-0.3-0.3-0.8,0-1.1s0.8-0.3,1.1,0L62.1,84c0.3,0.3,0.3,0.8,0,1.1
			C62,85.2,61.8,85.3,61.6,85.3z"/>
	</g>
	<path d="M90.1,34.8c-6.3,0-11.5-5.1-11.5-11.5c0-4.1,2.1-7.7,5.6-9.8c0.4-0.2,0.8-0.1,1,0.3c0.2,0.4,0.1,0.8-0.3,1
		c-3,1.8-4.9,5-4.9,8.5c0,5.5,4.5,10,10,10c4.6,0,8.5-3.1,9.6-7.5c0.1-0.4,0.5-0.6,0.9-0.5c0.4,0.1,0.6,0.5,0.5,0.9
		C99.9,31.3,95.3,34.8,90.1,34.8z"/>
	<g>
		<path d="M81.5,47.2c-0.1,0-0.2,0-0.3,0c-0.4-0.1-0.6-0.6-0.4-1l2.9-7.7c0.1-0.4,0.6-0.6,1-0.4c0.4,0.1,0.6,0.6,0.4,1l-2.9,7.7
			C82.1,47,81.8,47.2,81.5,47.2z"/>
		<path d="M99.5,68.2c-0.3,0-0.7-0.2-0.7-0.6L92.9,40c-0.1-0.4,0.2-0.8,0.6-0.9c0.4-0.1,0.8,0.2,0.9,0.6l5.9,27.6
			c0.1,0.4-0.2,0.8-0.6,0.9C99.6,68.2,99.6,68.2,99.5,68.2z"/>
		<path d="M45.1,27.4c-0.4,0-0.7-0.3-0.7-0.7c0-0.4,0.3-0.8,0.7-0.8l28.2-2.1c0.4,0,0.8,0.3,0.8,0.7s-0.3,0.8-0.7,0.8L45.1,27.4
			C45.1,27.4,45.1,27.4,45.1,27.4z"/>
		<path d="M52.8,51.8c-0.2,0-0.5-0.1-0.6-0.3c-0.2-0.3-0.2-0.8,0.2-1l24.1-18c0.3-0.2,0.8-0.2,1,0.2c0.2,0.3,0.2,0.8-0.2,1l-24.1,18
			C53.2,51.8,53,51.8,52.8,51.8z"/>
	</g>
	<circle cx="80.8" cy="98.1" r="1.4"/>
	<g>
		<path d="M11.6,37v8.2c0,1.3-0.4,2.3-1.3,3s-2,1-3.3,1c-1.3,0-2.4-0.3-3.2-1c-0.8-0.7-1.2-1.7-1.2-3V37h1.6v8.1
			c0,0.9,0.3,1.6,0.8,2.1c0.5,0.5,1.2,0.7,2,0.7c0.9,0,1.6-0.2,2.2-0.7S10,46,10,45.1V37L11.6,37L11.6,37z"/>
		<path d="M20.8,46c0-0.5-0.2-1-0.6-1.4c-0.4-0.4-1.1-0.7-2.2-0.9c-1.3-0.3-2.3-0.8-3-1.3C14.3,41.7,14,41,14,40.1
			c0-0.9,0.4-1.7,1.2-2.4s1.8-0.9,3-0.9c1.3,0,2.4,0.4,3.1,1.1s1.2,1.6,1.1,2.5l0,0h-1.6c0-0.7-0.2-1.3-0.7-1.7
			c-0.5-0.4-1.1-0.7-2-0.7c-0.8,0-1.4,0.2-1.9,0.5c-0.4,0.4-0.6,0.8-0.6,1.4c0,0.5,0.2,1,0.7,1.3s1.2,0.7,2.3,0.9
			c1.3,0.3,2.2,0.8,2.9,1.4c0.7,0.6,1,1.4,1,2.3c0,1-0.4,1.7-1.2,2.3c-0.8,0.6-1.8,0.9-3.1,0.9c-1.2,0-2.3-0.3-3.2-1
			c-0.9-0.7-1.4-1.5-1.3-2.6l0,0h1.6c0,0.8,0.3,1.4,0.9,1.8c0.6,0.4,1.3,0.6,2.1,0.6c0.8,0,1.5-0.2,1.9-0.5
			C20.6,47,20.8,46.6,20.8,46z"/>
		<path d="M24.8,49V37h3.7c1.6,0,2.8,0.5,3.8,1.5c1,1,1.4,2.2,1.4,3.7v1.6c0,1.5-0.5,2.8-1.4,3.7c-1,1-2.2,1.4-3.8,1.4H24.8z
			 M26.4,38.3v9.5h2.1c1.1,0,2-0.4,2.6-1.1s1-1.7,1-2.8v-1.7c0-1.1-0.3-2.1-1-2.8c-0.6-0.7-1.5-1.1-2.6-1.1H26.4z"/>
		<path d="M42.3,45.9h-5L36.1,49h-1.7l4.7-12h1.4l4.6,12h-1.7L42.3,45.9z M37.8,44.5h4l-2-5.5h0L37.8,44.5z"/>
	</g>
	<path d="M45.1,53.1H2.6c-0.4,0-0.8-0.3-0.8-0.8s0.3-0.8,0.8-0.8h42.5c0.4,0,0.8,0.3,0.8,0.8S45.5,53.1,45.1,53.1z"/>
</g>
</svg>
