<?xml version="1.0" encoding="utf-8"?>
<!-- Generator: Adobe Illustrator 21.0.2, SVG Export Plug-In . SVG Version: 6.00 Build 0)  -->
<svg version="1.1" id="Layer_2" xmlns="http://www.w3.org/2000/svg" xmlns:xlink="http://www.w3.org/1999/xlink" x="0px" y="0px"
	 viewBox="0 0 123.2 123.2" style="enable-background:new 0 0 123.2 123.2;" xml:space="preserve">
<style type="text/css">
	.st0{fill:#C3D962;}
	.st1{fill:#FFBF4C;}
	.st2{fill:none;stroke:#000000;stroke-width:1.5;stroke-linecap:round;stroke-linejoin:round;stroke-miterlimit:10;}
	.st3{fill:#A62D39;}
	.st4{fill:#6EBF4C;}
	.st5{fill:#E65C69;}
</style>
<g>
	<path class="st0" d="M40.7,89.2c-2.6-1-4.8-2.7-6.4-5c-1.6-2.3-2.6-4.9-2.8-7.6c2.6,1,4.8,2.7,6.4,5C39.6,83.9,40.5,86.5,40.7,89.2
		z"/>
	<path class="st1" d="M71.5,94.6L71.5,94.6L71.5,94.6C71.6,94.6,71.3,94.6,71.5,94.6L71.5,94.6L71.5,94.6l0.2-0.1l0.3-0.1
		c0.1,0,0.1,0,0.2,0c0,0,0.1,0,0.1,0c0,0,0.1,0,0.2,0c0.1,0,0.3,0,0.4,0c0.5,0.1,1,0.4,1.4,0.8l0.1,0.2l0.1,0.1l0,0
		c0,0,0.1,0.1,0-0.1l0,0l0,0l0,0.1c0.1,0.2,0.2,0.3,0.3,0.5c0,0.2,0.1,0.4,0.1,0.6c0.1,0.2,0,0.5,0,0.7c-0.1,0.2-0.1,0.5-0.2,0.6
		c-0.1,0.2-0.2,0.4-0.3,0.5c-0.1,0.1-0.2,0.3-0.3,0.4c-0.1,0.1-0.2,0.2-0.3,0.3c-0.1,0.1-0.2,0.2-0.3,0.2c-0.3,0.2-0.7,0.5-0.6,1
		c0.1,0.5,0.6,0.7,1.1,0.5c0,0,0.1-0.1,0.3-0.1c0.1,0,0.2-0.1,0.4-0.2c0.2-0.1,0.3-0.2,0.6-0.3c0.2-0.1,0.4-0.3,0.6-0.5
		c0.2-0.2,0.4-0.5,0.6-0.8c0.2-0.3,0.3-0.7,0.5-1c0.1-0.4,0.2-0.8,0.2-1.3c0.1-0.4,0-1-0.2-1.5c-0.1-0.2-0.1-0.4-0.2-0.5l0-0.1l0,0
		l0,0l-0.1-0.1l0,0l-0.1-0.2l-0.2-0.3c-0.4-0.6-0.9-1.1-1.6-1.6l0,0c-0.1-0.1-0.3-0.2-0.4-0.3c-0.2-0.1-0.4-0.2-0.6-0.3
		c-0.2-0.1-0.4-0.1-0.6-0.2l0,0l-0.1,0l-0.1,0l0,0l-0.2,0l0,0l-0.3,0.1c-0.4,0.1-0.9,0.2-1.3,0.4l-0.3,0.1c-0.1,0-0.1,0-0.2,0
		c-0.1,0-0.1,0-0.2,0c0,0,0,0-0.1,0h0H70v0l-0.3,0l-0.2,0l-0.1,0c0.3,0,0.1,0,0.1,0h0l0,0l0,0l-0.7,0c-0.1,0-0.2,0-0.3,0l-0.1,0
		c-0.1,0-0.1,0-0.2,0c-0.1,0-0.1,0-0.2,0c0,0,0,0-0.1,0l-0.2,0l-0.4,0l-0.2,0l-0.1,0c0.3,0,0.1,0,0.1,0h0l0,0l0,0l-0.7,0
		c-0.3,0-0.4-0.1-0.5-0.1c-0.1,0-0.3,0-0.4-0.1c-0.5-0.2-0.9-0.5-1.2-0.9c-0.1-0.2-0.3-0.4-0.3-0.6c0-0.1-0.1-0.2-0.1-0.3
		c0-0.1,0-0.1,0-0.2c0,0,0-0.3,0-0.4l0-0.3l0-0.1l0-0.1l0,0l0,0v0c0-0.1,0,0.5,0,0.2c0-0.4,0.1-0.7,0.1-1.1c0.2-2.8,0.3-4.7,0.3-4.7
		H61c0,0,0.1,1.9,0.3,4.7c0,0.3,0.1,0.7,0.1,1.1l0,0.3l0,0l0,0l0,0l0,0.1l0,0.1l0.1,0.3c0,0.2,0,0.3,0.2,0.7c0.1,0.3,0.2,0.7,0.3,1
		c0.1,0.2,0.1,0.3,0.2,0.4l0.2,0.4c0.3,0.6,0.7,1,1.2,1.5c1,0.8,2.1,1.5,3.4,1.7c0.1,0,0.2,0,0.3,0.1l0.2,0l0.1,0l0.2,0l0.3-0.1
		c0.5-0.1,1.5-0.4,1.8-0.5c0.4-0.2,0.9-0.4,1.3-0.5L71.5,94.6z"/>
	<path d="M73.5,101.7c-0.2,0-0.5-0.1-0.7-0.2c-0.4-0.2-0.7-0.6-0.8-1c-0.2-1,0.6-1.5,0.9-1.7l0.3-0.2c0,0,0.1-0.1,0.1-0.1
		c0.1-0.1,0.1-0.1,0.2-0.2c0.1-0.1,0.1-0.1,0.1-0.2l0.1-0.1c0.1-0.1,0.1-0.2,0.1-0.2l0.1-0.2c0,0,0.1-0.2,0.1-0.2c0-0.1,0-0.1,0-0.2
		c0-0.1,0-0.1,0-0.2c0-0.1,0-0.2,0-0.3c0,0,0-0.1,0-0.1c0-0.1,0-0.1,0-0.2c0-0.1,0-0.1-0.1-0.2l-0.3-0.5c-0.2-0.3-0.6-0.5-0.9-0.5
		c-0.1,0-0.1,0-0.2,0c0,0-0.1,0-0.1,0c0,0-0.1,0-0.1,0c0,0,0,0-0.1,0l-0.3,0.1c0,0,0,0-0.1,0L70.2,96c-0.3,0.2-1.4,0.5-1.9,0.6
		l-0.5,0.1c0,0-0.1,0-0.2,0l-0.9,0.1c-0.2,0-0.5,0-0.9,0c-0.2,0-0.2,0-0.3,0c-0.3,0-0.6,0-0.9-0.1c-1.2-0.2-2.5-0.9-3.7-1.9
		l-0.1-0.1c-0.4-0.5-0.9-0.9-1.2-1.6l-0.2-0.4c-0.1-0.2-0.2-0.4-0.3-0.6c-0.1-0.3-0.2-0.7-0.3-1c-0.1-0.3-0.1-0.5-0.1-0.6l-0.1-0.6
		l0.7-0.2l-0.7,0.1c0,0,0-0.1,0-0.1l-0.1-1.3L58,83.5c0-0.4,0.3-0.8,0.7-0.8c0.4,0,0.8,0.3,0.8,0.7l0.4,6c0,0,0,0,0,0l0.1,0.7
		c0,0.1,0,0.2,0.1,0.4c0.1,0.3,0.2,0.6,0.3,1c0,0.1,0.1,0.2,0.1,0.3l0.2,0.4c0.2,0.5,0.6,0.8,1,1.3l0.1,0.1c0.9,0.8,2,1.3,3,1.5
		c0.2,0.1,0.4,0.1,0.6,0.1c0.1,0,0.2,0,0.3,0c0.2,0,0.6,0,0.7,0l1.5-0.2c0.4-0.1,1.3-0.3,1.5-0.4L71,94c0.1,0,0.1-0.1,0.2-0.1
		c0,0,0.1,0,0.1,0l0,0l0.5-0.2c0.1,0,0.2,0,0.3-0.1c0,0,0.1,0,0.1,0c0.1,0,0.2,0,0.3,0c0.2,0,0.4,0,0.7,0.1c0.6,0.1,1.3,0.5,1.7,1
		l0,0c0.1,0.1,0.2,0.2,0.3,0.3c0,0,0,0,0,0l0.3,0.6c0,0.1,0.1,0.1,0.1,0.2c0,0.1,0,0.1,0,0.1c0,0.1,0.1,0.3,0.1,0.6
		c0,0.3,0,0.5,0,0.7l0,0.2c0,0.1,0,0.1,0,0.2l0,0.2c0,0.2-0.1,0.4-0.2,0.6l-0.1,0.1c-0.1,0.2-0.2,0.4-0.4,0.6l0,0
		c-0.1,0.1-0.2,0.3-0.4,0.5l-0.1,0.1c-0.1,0.1-0.1,0.1-0.2,0.2l-0.4,0.3c-0.1,0.1-0.3,0.2-0.3,0.2l0.7-0.4c0.1,0,0.2-0.1,0.4-0.2
		l0.1-0.1c0.2-0.1,0.3-0.2,0.4-0.4l0.1-0.1c0.2-0.1,0.3-0.3,0.4-0.5l0.1-0.1c0.1-0.2,0.2-0.4,0.3-0.7l0.1-0.3
		c0.1-0.3,0.2-0.6,0.2-0.9c0,0,0-0.1,0-0.1c0-0.4-0.1-1-0.1-1.2L76,94.8c0,0,0,0,0-0.1l-0.3-0.6c-0.5-0.8-1.3-1.4-2.2-1.8
		c-0.2-0.1-0.5-0.1-0.7-0.2l-0.2,0c-0.1,0-0.1,0-0.2,0c-0.1,0-0.3,0-0.5,0c-0.2,0-0.3,0-0.4,0l-1.1,0.2l-1.7,0.5c-0.1,0-0.2,0-0.3,0
		c0,0,0,0,0,0c-0.1,0-0.2,0-0.2,0l-0.8,0c0,0,0,0,0,0c0,0,0,0,0,0v0c0,0-0.1,0-0.1,0l-0.6,0c-0.2,0-0.4-0.1-0.5-0.1c0,0-0.1,0-0.2,0
		c-0.1,0-0.3,0-0.5-0.1c-0.6-0.2-1.1-0.7-1.5-1.1c0,0-0.1-0.1-0.1-0.2c0-0.1-0.1-0.1-0.1-0.2c-0.1-0.2-0.2-0.4-0.3-0.7
		c0,0-0.1-0.2-0.1-0.4c0-0.2,0-0.3,0-0.5l0-0.6l0,0c0,0,0-0.1,0-0.1h0h0c0-0.1,0-0.2,0-0.2l0.4-5.4c0-0.4,0.4-0.7,0.8-0.7
		c0.4,0,0.7,0.4,0.7,0.8l-0.4,5.8c0,0,0,0,0,0l0,0.4c0,0,0,0.1,0,0.1c0,0.1,0,0.2,0.1,0.3c0,0.1,0.1,0.1,0.1,0.2
		c0,0,0.1,0.1,0.1,0.2c0,0.1,0.1,0.1,0.1,0.2c0.2,0.3,0.5,0.5,0.8,0.6c0,0,0.1,0,0.1,0c0.1,0,0.2,0,0.2,0c0,0,0.1,0,0.1,0
		c0.1,0,0.1,0,0.2,0l0.7,0.1c0,0,0.1,0,0.1,0l0.5,0c0,0,0,0,0,0c0.1,0,0.1,0,0.2,0c0,0,0.1,0,0.1,0l0,0l2.1-0.6c0,0,0.2,0,0.2,0
		l0.5-0.1c0.1,0,0.3,0,0.5,0c0.3,0,0.5,0,0.7,0c0.2,0,0.3,0,0.5,0.1l0.1,0c0.4,0.1,0.8,0.1,1.1,0.3c1.2,0.4,2.3,1.3,3,2.4l0.4,0.7
		c0,0.1,0,0.1,0.1,0.2l0.2,0.6c0.1,0.6,0.3,1.3,0.2,1.8c0,0.5-0.1,0.9-0.2,1.2l0,0.2c0,0,0,0.1,0,0.1l-0.1,0.2
		c-0.1,0.3-0.3,0.7-0.5,1l-0.1,0.1c-0.2,0.3-0.4,0.6-0.7,0.8l0,0c-0.2,0.2-0.4,0.4-0.7,0.6l-0.1,0c-0.2,0.1-0.4,0.2-0.5,0.3
		l-0.7,0.3C74,101.6,73.7,101.7,73.5,101.7z M72.1,95.1C72.1,95.1,72.1,95.1,72.1,95.1C72.1,95.1,72.1,95.1,72.1,95.1z M64.8,90.5
		C64.8,90.5,64.8,90.5,64.8,90.5C64.8,90.5,64.8,90.5,64.8,90.5z M64.8,90.5C64.8,90.5,64.8,90.5,64.8,90.5
		C64.8,90.5,64.8,90.5,64.8,90.5z M64.8,90.5C64.8,90.5,64.8,90.5,64.8,90.5S64.8,90.5,64.8,90.5z"/>
	<path d="M61.6,115C32.1,115,8.1,91,8.1,61.6c0-29.5,24-53.4,53.4-53.4c29.5,0,53.4,24,53.4,53.4C115,91,91,115,61.6,115z M61.6,9.6
		C32.9,9.6,9.6,32.9,9.6,61.6c0,28.6,23.3,51.9,51.9,51.9c28.6,0,51.9-23.3,51.9-51.9C113.5,32.9,90.2,9.6,61.6,9.6z"/>
	<g>
		<path d="M87.7,39.8c-0.4,0-0.8-0.3-0.8-0.8V33c0-0.4,0.3-0.8,0.8-0.8s0.8,0.3,0.8,0.8v6.1C88.5,39.5,88.1,39.8,87.7,39.8z"/>
		<path d="M90.8,36.8h-6.1c-0.4,0-0.8-0.3-0.8-0.8s0.3-0.8,0.8-0.8h6.1c0.4,0,0.8,0.3,0.8,0.8S91.2,36.8,90.8,36.8z"/>
	</g>
	<path d="M71.4,85.6c-0.3,0-0.5-0.1-0.6-0.4c-0.2-0.4-0.1-0.8,0.2-1c3.8-2.4,6.4-6.2,7.2-10.6c0.1-0.4,0.5-0.7,0.9-0.6
		c0.4,0.1,0.7,0.5,0.6,0.9c-0.9,4.8-3.7,9.1-7.9,11.6C71.7,85.6,71.5,85.6,71.4,85.6z"/>
	<path class="st2" d="M65.8,35.8"/>
	<path class="st3" d="M73.8,46.5c-1.2-1.6-2.8-2.8-4.6-3.6c0,0.2,0,0.5,0,0.7c0,0,0,0.1,0,0.1c0,0.1,0,0.2,0,0.3
		c0,0.2,0,0.5-0.1,0.7c0,0.4-0.1,0.8-0.2,1.2c-0.4,2.8-1.1,5.5-2.1,8.1c0,0.1-0.1,0.2-0.1,0.2L66.3,55L64,81.3c4.5-0.6,8.2-4,9-8.6
		l3-16.8C76.6,52.6,75.8,49.1,73.8,46.5z"/>
	<path d="M62.8,70.6C62.8,70.6,62.7,70.6,62.8,70.6c-0.5,0-0.8-0.4-0.7-0.8c0.6-7.7,3.1-14,3.2-14.2c1.4-3.1,2.3-6.4,2.8-9.8
		c1.1-7.2,0.1-14.5-2.8-21.2c-0.2-0.4,0-0.8,0.4-1c0.4-0.2,0.8,0,1,0.4c3.1,6.9,4.1,14.5,3,22c-0.5,3.5-1.5,6.9-3,10.2
		c0,0-2.5,6.3-3.1,13.7C63.5,70.3,63.2,70.6,62.8,70.6z"/>
	<path d="M57.7,40.5c-0.1,0-0.1,0-0.2,0c-0.4-0.1-0.6-0.5-0.5-0.9c1.6-5.9,4.4-11.2,8.4-15.8c0.3-0.3,0.7-0.3,1.1-0.1
		c0.3,0.3,0.3,0.7,0.1,1.1c-3.8,4.4-6.6,9.5-8.1,15.2C58.4,40.2,58.1,40.5,57.7,40.5z"/>
	<g>
		<path class="st4" d="M67,38.4c0-0.3,0-0.5,0-0.8c0,0,0,0,0,0c-0.2-3-0.7-6-1.7-8.9c-3.2,4.6-5.4,10-6.2,15.6
			c-0.2,1.4-0.4,4.3-0.4,4.3l1,13.3l0.8,7.7c0.6-7.9,3.2-14.4,3.4-14.7c0.2-0.5,0.4-1.1,0.7-1.6l0,0c0.1-0.1,0.1-0.3,0.1-0.4
			c0.1-0.2,0.2-0.5,0.2-0.7c0.2-0.5,0.3-1,0.5-1.5c0.1-0.2,0.1-0.5,0.2-0.7c0.1-0.5,0.3-1,0.4-1.5c0.1-0.2,0.1-0.5,0.2-0.7
			c0.2-0.7,0.3-1.5,0.4-2.2c0.1-0.7,0.2-1.4,0.2-2c0-0.2,0-0.5,0.1-0.7c0-0.4,0.1-0.9,0.1-1.3c0-0.3,0-0.6,0-0.9c0-0.4,0-0.8,0-1.2
			C67,39.1,67,38.8,67,38.4z"/>
		<path d="M41.2,57.7c-0.4,0-0.7-0.3-0.7-0.6c-0.9-5.2,0.4-10.6,3.6-14.7c0.3-0.3,0.7-0.4,1.1-0.1c0.3,0.3,0.4,0.7,0.1,1.1
			c-2.9,3.8-4.1,8.8-3.3,13.6c0.1,0.4-0.2,0.8-0.6,0.9C41.3,57.7,41.2,57.7,41.2,57.7z"/>
		<path d="M60.4,84.4c-6.5,0-12.1-4.6-13.3-11.1l-3-16.8c-0.7-4.2,0.3-8.5,2.9-11.8c0,0,0,0,0,0c2.6-3.3,6.4-5.5,10.6-5.8
			c0.2,0,0.4,0,0.5,0.2c0.2,0.1,0.2,0.3,0.3,0.5l3.9,44c0,0.4-0.3,0.8-0.7,0.8C61.2,84.3,60.8,84.4,60.4,84.4z M48.2,45.6
			c-2.3,3-3.2,6.9-2.6,10.6l3,16.8c1.1,5.9,6.2,10.1,12.1,9.9L57,40.4C53.6,40.9,50.4,42.7,48.2,45.6L48.2,45.6z"/>
		<path class="st5" d="M59.1,81.3c-4.5-0.6-8.2-4-9-8.6l-3-16.8c-0.6-3.3,0.2-6.8,2.3-9.4c1.6-2.1,3.8-3.6,6.3-4.3L59.1,81.3z"/>
	</g>
	<g>
		<path d="M42.8,92.9c0,0-0.1,0-0.1,0c-4.4-0.8-8.2-3.3-10.9-6.9c-2.6-3.6-3.8-8-3.2-12.4c0-0.2,0.1-0.4,0.3-0.5
			c0.2-0.1,0.4-0.2,0.6-0.1c4.4,0.8,8.2,3.3,10.9,6.9c2.6,3.6,3.8,8,3.2,12.4c0,0.2-0.1,0.4-0.3,0.5C43.2,92.9,43,92.9,42.8,92.9z
			 M30,74.6c-0.3,3.8,0.8,7.5,3,10.6c2.2,3.1,5.5,5.2,9.1,6.1c0.3-3.8-0.8-7.5-3-10.6C36.9,77.7,33.7,75.5,30,74.6z"/>
		<path d="M42.8,92.9c-0.2,0-0.5-0.1-0.6-0.3l-6.7-9.2c-0.2-0.3-0.2-0.8,0.2-1c0.3-0.2,0.8-0.2,1,0.2l6.7,9.2c0.2,0.3,0.2,0.8-0.2,1
			C43.2,92.9,43,92.9,42.8,92.9z"/>
	</g>
	<g>
		<path d="M91.4,68.7c-0.1,0-0.3,0-0.4-0.1c-0.2-0.1-0.3-0.3-0.4-0.5c-0.5-2.2-0.2-4.5,0.9-6.5c1.1-2,2.9-3.4,5.1-4.1
			c0.2-0.1,0.4,0,0.6,0.1s0.3,0.3,0.4,0.5c0.5,2.2,0.2,4.5-0.9,6.5c-1.1,2-2.9,3.4-5.1,4.1C91.6,68.7,91.5,68.7,91.4,68.7z
			 M96.3,59.3c-1.4,0.6-2.6,1.7-3.4,3.1s-1.1,3-0.9,4.5c1.4-0.6,2.6-1.7,3.4-3.1C96.2,62.5,96.5,60.9,96.3,59.3z"/>
	</g>
	<circle cx="28.5" cy="45.1" r="1.4"/>
	<path d="M62.7,84.4c-0.4,0-0.8,0-1.2-0.1c-0.4,0-0.7-0.4-0.7-0.8L62,69.8c0-0.4,0.4-0.7,0.8-0.7c0.4,0,0.7,0.4,0.7,0.8l-1.1,13
		c5.9,0.2,11.1-4,12.1-9.9l3-16.8c0.7-3.7-0.3-7.6-2.6-10.6c-1.5-2-3.6-3.5-5.9-4.4c-0.4-0.1-0.6-0.6-0.4-1c0.1-0.4,0.6-0.6,1-0.4
		c2.6,1,4.9,2.7,6.6,4.9c2.6,3.3,3.6,7.6,2.9,11.8l-3,16.8C74.8,79.8,69.2,84.4,62.7,84.4z"/>
</g>
</svg>
