<?xml version="1.0" encoding="utf-8"?>
<!-- Generator: Adobe Illustrator 21.0.2, SVG Export Plug-In . SVG Version: 6.00 Build 0)  -->
<svg version="1.1" id="Layer_2" xmlns="http://www.w3.org/2000/svg" xmlns:xlink="http://www.w3.org/1999/xlink" x="0px" y="0px"
	 viewBox="0 0 123.2 123.2" style="enable-background:new 0 0 123.2 123.2;" xml:space="preserve">
<style type="text/css">
	.st0{fill:#CCEEFF;}
	.st1{fill:#E65C69;}
	.st2{fill:#8FDBFF;}
</style>
<g>
	<g>
		<path class="st0" d="M61.6,112c-15.8,0-30.4-7.3-40-19.7h79.9C92,104.7,77.4,112,61.6,112z"/>
		<path d="M30.3,90.8H13.7c-0.4,0-0.8-0.3-0.8-0.8s0.3-0.8,0.8-0.8h16.6c0.4,0,0.8,0.3,0.8,0.8S30.7,90.8,30.3,90.8z"/>
		<path d="M109.5,90.8H77.2c-0.4,0-0.8-0.3-0.8-0.8s0.3-0.8,0.8-0.8h32.3c0.4,0,0.8,0.3,0.8,0.8S109.9,90.8,109.5,90.8z"/>
	</g>
	<g>
		<path d="M61.5,115c-13.5,0-26.3-5-36.3-14.2C14.8,91.1,8.7,77.9,8.2,63.6C7.1,34.2,30.1,9.3,59.5,8.2c14.3-0.5,27.9,4.5,38.4,14.2
			s16.5,22.9,17.1,37.2c0.5,14.3-4.5,27.9-14.2,38.4c-9.7,10.5-22.9,16.5-37.2,17.1C62.9,115,62.2,115,61.5,115z M61.6,9.6
			c-0.7,0-1.4,0-2,0C31,10.8,8.6,34.9,9.7,63.6c0.5,13.9,6.4,26.7,16.6,36.1c10.2,9.4,23.4,14.3,37.3,13.8
			c13.9-0.5,26.7-6.4,36.1-16.6c9.4-10.2,14.3-23.4,13.8-37.3c-0.5-13.9-6.4-26.7-16.6-36.1C87.2,14.5,74.7,9.6,61.6,9.6z"/>
	</g>
	<g>
		<g>
			<path class="st1" d="M53.8,82.1c-0.2-0.1-0.4-0.2-0.7-0.2c6.1,2.6,13.1-0.2,15.8-6.2l-21-8.9C45.6,72.6,48.2,79.3,53.8,82.1z"/>
			<g>
				<polyline class="st2" points="48.9,64.1 67.6,72.1 85.6,35.5 62.7,25.8 48.9,64.1 				"/>
			</g>
			<path d="M69,76.4c-0.1,0-0.2,0-0.3-0.1l-23.5-10c-0.4-0.2-0.5-0.6-0.4-0.9L48.9,54c0.1-0.4,0.6-0.6,1-0.5c0.4,0.1,0.6,0.6,0.5,1
				l-3.9,10.8l22.2,9.4l3.3-6.7c0.2-0.4,0.6-0.5,1-0.3c0.4,0.2,0.5,0.6,0.3,1L69.6,76C69.5,76.2,69.2,76.4,69,76.4z"/>
			<path d="M78.5,65.4c-0.1,0-0.2,0-0.3-0.1c-0.4-0.2-0.5-0.6-0.3-1l10.3-20.9c0.2-0.4,0.6-0.5,1-0.3c0.4,0.2,0.5,0.6,0.3,1L79.2,65
				C79.1,65.3,78.8,65.4,78.5,65.4z"/>
			<path d="M51.3,39.1c-0.1,0-0.2,0-0.3,0c-0.4-0.1-0.6-0.6-0.5-1l7.8-21.7c0.1-0.4,0.6-0.6,1-0.5c0.4,0.1,0.6,0.6,0.5,1L52,38.6
				C51.9,38.9,51.6,39.1,51.3,39.1z"/>
			<path d="M72.6,69c-0.1,0-0.2,0-0.3-0.1c-0.4-0.2-0.5-0.6-0.3-1l15.5-31.5c0.2-0.5,0.3-1.1,0.1-1.6c-0.2-0.5-0.6-0.9-1.1-1.1
				L63.5,24c-0.5-0.2-1.1-0.2-1.6,0c-0.5,0.2-0.9,0.6-1.1,1.2l-8.2,22.8c-0.1,0.4-0.6,0.6-1,0.5c-0.4-0.1-0.6-0.6-0.5-1l8.2-22.8
				c0.3-0.9,1-1.6,1.9-2c0.9-0.4,1.9-0.4,2.8,0L87,32.3c0.9,0.4,1.6,1.1,1.9,2c0.3,0.9,0.3,1.9-0.1,2.8L73.3,68.6
				C73.1,68.9,72.9,69,72.6,69z"/>
			<path d="M57.8,83.6c-1.7,0-3.4-0.3-5-1l-1.2-0.5c-6.4-2.7-9.5-10.2-6.9-16.7c0.2-0.4,0.6-0.6,1-0.4c0.4,0.2,0.6,0.6,0.4,1
				c-2.3,5.7,0.4,12.3,6.1,14.7l1.2,0.5c5.7,2.4,12.3-0.2,14.8-5.9c0.2-0.4,0.6-0.5,1-0.4c0.4,0.2,0.5,0.6,0.4,1
				C67.5,80.7,62.8,83.6,57.8,83.6z"/>
			<circle cx="54.9" cy="76.1" r="1.7"/>
			<circle cx="48.4" cy="77.3" r="1.7"/>
			<circle cx="58.5" cy="81.6" r="1.7"/>
		</g>
		<path d="M59.7,65.4c-0.1,0-0.2,0-0.3-0.1c-0.4-0.2-0.6-0.6-0.4-1l0.4-1c0.2-0.4,0.6-0.6,1-0.4c0.4,0.2,0.6,0.6,0.4,1l-0.4,1
			C60.3,65.2,60,65.4,59.7,65.4z"/>
		<path d="M62.5,58.8c-0.1,0-0.2,0-0.3-0.1c-0.4-0.2-0.6-0.6-0.4-1L72,33.8c0.2-0.4,0.6-0.6,1-0.4c0.4,0.2,0.6,0.6,0.4,1L63.2,58.3
			C63.1,58.6,62.8,58.8,62.5,58.8z"/>
		<path d="M53.5,62.8c-0.1,0-0.2,0-0.3-0.1c-0.4-0.2-0.6-0.6-0.4-1l1.2-3.1c0.2-0.4,0.6-0.6,1-0.4c0.4,0.2,0.6,0.6,0.4,1l-1.2,3.1
			C54.1,62.6,53.8,62.8,53.5,62.8z"/>
		<path d="M57.2,53.5c-0.1,0-0.2,0-0.3-0.1c-0.4-0.2-0.6-0.6-0.4-1l8.6-21.5c0.2-0.4,0.6-0.6,1-0.4c0.4,0.2,0.6,0.6,0.4,1L57.9,53
			C57.8,53.3,57.5,53.5,57.2,53.5z"/>
		<path d="M67.9,63.7c-0.1,0-0.2,0-0.3-0.1c-0.4-0.2-0.5-0.6-0.4-1l11.7-25.9c0.2-0.4,0.6-0.5,1-0.4c0.4,0.2,0.5,0.6,0.4,1
			L68.6,63.3C68.5,63.6,68.2,63.7,67.9,63.7z"/>
	</g>
	<path d="M98.8,99.6c-0.2,0-0.4-0.1-0.5-0.2L23.8,24.9c-0.3-0.3-0.3-0.8,0-1.1s0.8-0.3,1.1,0l74.5,74.5c0.3,0.3,0.3,0.8,0,1.1
		C99.2,99.5,99,99.6,98.8,99.6z"/>
	<path d="M46.2,103.1c-2.1,0-3.8-1.7-3.8-3.8s1.7-3.8,3.8-3.8s3.8,1.7,3.8,3.8S48.3,103.1,46.2,103.1z M46.2,97
		c-1.3,0-2.3,1-2.3,2.3s1,2.3,2.3,2.3s2.3-1,2.3-2.3S47.5,97,46.2,97z"/>
	<circle cx="50.6" cy="88.5" r="1.4"/>
	<circle cx="68.9" cy="86.7" r="1.4"/>
	<circle cx="58.2" cy="105" r="1.4"/>
	<circle cx="74.6" cy="100" r="1.4"/>
	<circle cx="37" cy="92.6" r="1.4"/>
	<g>
		<path d="M62.6,97.8c-0.4,0-0.8-0.3-0.8-0.8v-6.1c0-0.4,0.3-0.8,0.8-0.8s0.8,0.3,0.8,0.8V97C63.3,97.4,63,97.8,62.6,97.8z"/>
		<path d="M65.6,94.7h-6.1c-0.4,0-0.8-0.3-0.8-0.8s0.3-0.8,0.8-0.8h6.1c0.4,0,0.8,0.3,0.8,0.8S66.1,94.7,65.6,94.7z"/>
	</g>
</g>
</svg>
