<?xml version="1.0" encoding="utf-8"?>
<!-- Generator: Adobe Illustrator 21.0.2, SVG Export Plug-In . SVG Version: 6.00 Build 0)  -->
<svg version="1.1" id="Layer_2" xmlns="http://www.w3.org/2000/svg" xmlns:xlink="http://www.w3.org/1999/xlink" x="0px" y="0px"
	 viewBox="0 0 123.2 123.2" style="enable-background:new 0 0 123.2 123.2;" xml:space="preserve">
<style type="text/css">
	.st0{fill:#8FDBFF;}
	.st1{fill:#CCEEFF;}
	.st2{fill:#FFBF4C;}
	.st3{fill:#E65C69;}
</style>
<g>
	<g>
		<path d="M75,98.3c-0.1,0-0.3,0-0.4-0.1l-11.9-6.9c-0.2-0.1-0.4-0.4-0.4-0.6V76.9c0-0.3,0.1-0.5,0.4-0.6c0.2-0.1,0.5-0.1,0.8,0
			l11.9,6.9c0.2,0.1,0.4,0.4,0.4,0.6v13.7c0,0.3-0.1,0.5-0.4,0.6C75.3,98.2,75.1,98.3,75,98.3z M63.8,90.2l10.4,6v-12l-10.4-6V90.2z
			"/>
		<path class="st0" d="M65.3,89.3l7.4,4.3v-8.5l-5.2-3l-2.2-1.3L65.3,89.3L65.3,89.3z"/>
		<path d="M75,98.3c-0.3,0-0.5-0.1-0.7-0.4c-0.2-0.4-0.1-0.8,0.3-1L86.6,90c0.4-0.2,0.8-0.1,1,0.3c0.2,0.4,0.1,0.8-0.3,1l-11.9,6.9
			C75.3,98.2,75.1,98.3,75,98.3z"/>
		<path d="M75,84.5c-0.3,0-0.5-0.1-0.7-0.4c-0.2-0.4-0.1-0.8,0.3-1l11.9-6.9c0.2-0.1,0.5-0.1,0.8,0c0.2,0.1,0.4,0.4,0.4,0.6v5.7
			c0,0.4-0.3,0.8-0.8,0.8s-0.8-0.3-0.8-0.8v-4.4l-10.8,6.2C75.3,84.5,75.2,84.5,75,84.5z"/>
		<polygon class="st1" points="77.3,85.1 84.7,80.8 84.7,89.3 77.3,93.6 		"/>
		<path d="M63.1,77.7c-0.3,0-0.5-0.1-0.6-0.4c-0.2-0.4-0.1-0.8,0.3-1l6.1-3.5c0.4-0.2,0.8-0.1,1,0.3c0.2,0.4,0.1,0.8-0.3,1l-6.1,3.5
			C63.4,77.6,63.3,77.7,63.1,77.7z"/>
		<path d="M86.9,77.7c-0.1,0-0.3,0-0.4-0.1l-11.9-6.9c-0.4-0.2-0.5-0.7-0.3-1c0.2-0.4,0.7-0.5,1-0.3l11.9,6.9c0.4,0.2,0.5,0.7,0.3,1
			C87.4,77.5,87.2,77.7,86.9,77.7z"/>
	</g>
	<g>
		<g>
			<path class="st2" d="M45.9,47.5c-1.3,2.2-2.7,4.4-4.3,6.5c-1,1.3-2.7,1.6-4.1,0.8c-1.4-0.8-1.9-2.5-1.3-4c1-2.4,2.2-4.7,3.5-6.9
				c1.3-2.2,2.7-4.4,4.3-6.5c1-1.3,2.7-1.6,4.1-0.8c1.4,0.8,1.9,2.5,1.3,4C48.4,42.9,47.2,45.2,45.9,47.5z"/>
		</g>
		<g>
			<path d="M39.2,58.2c-1,0-2.1-0.3-3.1-0.8c-2.7-1.6-3.8-4.9-2.6-7.7c0,0,0,0,0,0c1.1-2.6,2.5-5.3,3.9-7.7c0.2-0.4,0.7-0.5,1-0.3
				c0.4,0.2,0.5,0.7,0.3,1c-1.4,2.4-2.7,5-3.8,7.5c0,0,0,0,0,0c-0.9,2.2-0.1,4.7,1.9,5.9c2,1.2,4.6,0.6,6-1.2c1.1-1.5,2.1-3,3.1-4.5
				c0.2-0.4,0.7-0.5,1-0.2c0.4,0.2,0.5,0.7,0.2,1c-1,1.6-2.1,3.1-3.2,4.6C42.9,57.3,41,58.2,39.2,58.2z"/>
			<path d="M49.6,46.2c-0.1,0-0.2,0-0.3-0.1c-0.4-0.2-0.5-0.6-0.3-1c0.7-1.3,1.3-2.6,1.9-4c0.9-2.2,0.1-4.7-1.9-5.9
				c-2-1.2-4.6-0.6-6,1.2c-0.2,0.3-0.5,0.6-0.7,1c-0.2,0.3-0.7,0.4-1,0.2c-0.3-0.2-0.4-0.7-0.2-1c0.2-0.3,0.5-0.7,0.7-1
				c1.9-2.5,5.3-3.2,8-1.6c2.7,1.6,3.8,4.9,2.6,7.7c-0.6,1.4-1.2,2.7-1.9,4.1C50.1,46,49.9,46.2,49.6,46.2z"/>
			<path d="M52.9,36.4c-1.4,0-2.7-0.3-4-1.1c-1.9-1.1-3.2-2.8-3.8-4.9c-0.6-2.1-0.3-4.3,0.8-6.1c0.1-0.2,0.4-0.4,0.7-0.4
				c0.3,0,0.5,0.2,0.6,0.4l1.8,3.4l3.8-0.1c0.3,0,0.5,0.1,0.7,0.4l1.8,3.4l3.8-0.1c0.3,0,0.5,0.1,0.7,0.4c0.1,0.2,0.1,0.5,0,0.8
				C58.4,34.9,55.6,36.4,52.9,36.4z M46.6,26.3c-0.4,1.2-0.4,2.4-0.1,3.7c0.5,1.7,1.5,3.1,3.1,4c2.7,1.6,6.1,1,8.1-1.2l-2.8,0.1
				c-0.3,0-0.5-0.1-0.7-0.4l-1.8-3.4l-3.8,0.1c-0.3,0-0.5-0.1-0.7-0.4L46.6,26.3z"/>
			<path d="M39.1,67.5C39.1,67.5,39.1,67.5,39.1,67.5c-0.3,0-0.5-0.2-0.7-0.4l-1.8-3.4l-3.8,0.1c-0.3,0-0.5-0.1-0.7-0.4L30.3,60
				l-3.8,0.1c-0.3,0-0.5-0.1-0.7-0.4c-0.1-0.2-0.1-0.5,0-0.8c1.1-1.9,2.8-3.2,4.9-3.8c2.1-0.6,4.3-0.3,6.1,0.8
				c1.9,1.1,3.2,2.8,3.8,4.9c0.6,2.1,0.3,4.3-0.8,6.1C39.7,67.3,39.4,67.5,39.1,67.5z M37.1,62.2c0.3,0,0.5,0.2,0.7,0.4l1.3,2.4
				c0.4-1.2,0.4-2.4,0.1-3.7c-0.5-1.7-1.5-3.1-3.1-4c-1.5-0.9-3.3-1.1-5-0.7c-1.2,0.3-2.3,1-3.1,1.9l2.8-0.1c0.3,0,0.5,0.1,0.7,0.4
				l1.8,3.4L37.1,62.2C37.1,62.2,37.1,62.2,37.1,62.2z"/>
		</g>
	</g>
	<g>
		<path d="M98,75.3c-0.4,0-0.8-0.3-0.8-0.8v-6.1c0-0.4,0.3-0.8,0.8-0.8s0.8,0.3,0.8,0.8v6.1C98.7,75,98.4,75.3,98,75.3z"/>
		<path d="M101.1,72.3h-6.1c-0.4,0-0.8-0.3-0.8-0.8s0.3-0.8,0.8-0.8h6.1c0.4,0,0.8,0.3,0.8,0.8S101.5,72.3,101.1,72.3z"/>
	</g>
	<g>
		<g>
			<path class="st3" d="M84.1,33.9c-2.1-0.8-4.2-1.2-6.4-1.2l2.5,9.4c0.5,0.2,1,0.4,1.5,0.7c3.7,2.2,5,7,2.9,10.7L83,56.1
				c-1.2,2.2-0.5,4.9,1.6,6.1s4.9,0.5,6.1-1.6l0.3-0.5L84.1,33.9z"/>
		</g>
		<path class="st3" d="M63.4,40.8l3.3,12.3l4.1-7.1l-2.7-10.2C66.3,37,64.6,38.7,63.4,40.8z"/>
		<g>
			<polygon class="st3" points="55.4,72.6 52.1,60.3 56.3,53.1 59.6,65.4 			"/>
		</g>
		<g>
			<polygon class="st3" points="44.2,92.1 40.9,79.8 45,72.6 48.3,84.9 			"/>
		</g>
		<path d="M39,97.3c-0.9,0-1.8-0.2-2.6-0.7c-2.5-1.4-3.4-4.7-1.9-7.2l28.1-48.7c2.3-4.1,6.1-7,10.7-8.2c4.5-1.2,9.3-0.6,13.3,1.7
			c4.1,2.3,7,6.1,8.2,10.7c1.2,4.5,0.6,9.3-1.7,13.3l-1.5,2.7c-0.7,1.2-1.8,2.1-3.2,2.4c-1.4,0.4-2.8,0.2-4-0.5
			c-1.2-0.7-2.1-1.8-2.4-3.2s-0.2-2.8,0.5-4l1.5-2.7c0.9-1.6,1.2-3.5,0.7-5.4c-0.5-1.8-1.7-3.4-3.3-4.3c-1.6-0.9-3.5-1.2-5.4-0.7
			c-1.8,0.5-3.4,1.7-4.3,3.3l-7.6,13.2c-0.2,0.4-0.7,0.5-1,0.3c-0.4-0.2-0.5-0.7-0.3-1l7.6-13.2c1.1-2,3-3.4,5.2-4
			c2.2-0.6,4.5-0.3,6.5,0.9c2,1.1,3.4,3,4,5.2s0.3,4.5-0.9,6.5l-1.5,2.7c-0.5,0.9-0.6,1.9-0.4,2.8c0.3,1,0.9,1.8,1.7,2.3
			c0.9,0.5,1.9,0.6,2.8,0.4c1-0.3,1.8-0.9,2.3-1.7l1.5-2.7c2.1-3.7,2.7-8,1.6-12.2c-1.1-4.2-3.8-7.6-7.5-9.8
			c-3.7-2.1-8-2.7-12.2-1.6c-4.2,1.1-7.6,3.8-9.8,7.5L35.8,90.1c-1,1.8-0.4,4.1,1.4,5.1c0.9,0.5,1.9,0.6,2.8,0.4
			c1-0.3,1.8-0.9,2.3-1.7l17.1-29.7c0.2-0.4,0.7-0.5,1-0.3c0.4,0.2,0.5,0.7,0.3,1L43.6,94.6c-0.7,1.2-1.8,2.1-3.2,2.4
			C39.9,97.2,39.5,97.3,39,97.3z"/>
		<path d="M44.2,92.8c-0.3,0-0.6-0.2-0.7-0.6L40.2,80c-0.1-0.4,0.1-0.8,0.5-0.9c0.4-0.1,0.8,0.1,0.9,0.5l3.3,12.3
			c0.1,0.4-0.1,0.8-0.5,0.9C44.3,92.8,44.2,92.8,44.2,92.8z"/>
		<path d="M49.8,83.1c-0.3,0-0.6-0.2-0.7-0.6l-3.3-12.3c-0.1-0.4,0.1-0.8,0.5-0.9c0.4-0.1,0.8,0.1,0.9,0.5l3.3,12.3
			c0.1,0.4-0.1,0.8-0.5,0.9C49.9,83.1,49.9,83.1,49.8,83.1z"/>
		<path d="M55.4,73.3c-0.3,0-0.6-0.2-0.7-0.6l-3.3-12.3c-0.1-0.4,0.1-0.8,0.5-0.9c0.4-0.1,0.8,0.1,0.9,0.5l3.3,12.3
			c0.1,0.4-0.1,0.8-0.5,0.9C55.6,73.3,55.5,73.3,55.4,73.3z"/>
		<path d="M58.9,55.6c-0.3,0-0.6-0.2-0.7-0.6l-1.2-4.3c-0.1-0.4,0.1-0.8,0.5-0.9c0.4-0.1,0.8,0.1,0.9,0.5l1.2,4.3
			c0.1,0.4-0.1,0.8-0.5,0.9C59.1,55.6,59,55.6,58.9,55.6z"/>
		<path d="M66.7,53.8c-0.3,0-0.6-0.2-0.7-0.6L62.7,41c-0.1-0.4,0.1-0.8,0.5-0.9c0.4-0.1,0.8,0.1,0.9,0.5l3.3,12.3
			c0.1,0.4-0.1,0.8-0.5,0.9C66.8,53.8,66.8,53.8,66.7,53.8z"/>
		<path d="M72.4,44.4c-0.3,0-0.6-0.2-0.7-0.6l-2.4-9.1c-0.1-0.4,0.1-0.8,0.5-0.9c0.4-0.1,0.8,0.1,0.9,0.5l2.4,9.1
			c0.1,0.4-0.1,0.8-0.5,0.9C72.6,44.4,72.5,44.4,72.4,44.4z"/>
		<path d="M80.2,42.5c-0.3,0-0.6-0.2-0.7-0.6L77,32.9c-0.1-0.4,0.1-0.8,0.5-0.9c0.4-0.1,0.8,0.1,0.9,0.5l2.4,9.1
			c0.1,0.4-0.1,0.8-0.5,0.9C80.3,42.5,80.2,42.5,80.2,42.5z"/>
		<path d="M80.2,42.5c-0.3,0-0.6-0.2-0.7-0.6L77,32.9c-0.1-0.4,0.1-0.8,0.5-0.9c0.4-0.1,0.8,0.1,0.9,0.5l2.4,9.1
			c0.1,0.4-0.1,0.8-0.5,0.9C80.3,42.5,80.2,42.5,80.2,42.5z"/>
		<path d="M92.6,58.2c-0.3,0-0.6-0.2-0.7-0.6l-6-22.4c-0.1-0.4,0.1-0.8,0.5-0.9c0.4-0.1,0.8,0.1,0.9,0.5l6,22.4
			c0.1,0.4-0.1,0.8-0.5,0.9C92.7,58.2,92.7,58.2,92.6,58.2z"/>
	</g>
	<g>
		<path d="M61.6,115C32.1,115,8.1,91,8.1,61.6c0-29.5,24-53.4,53.4-53.4c29.5,0,53.4,24,53.4,53.4C115,91,91,115,61.6,115z
			 M61.6,9.6C32.9,9.6,9.6,32.9,9.6,61.6c0,28.6,23.3,51.9,51.9,51.9c28.6,0,51.9-23.3,51.9-51.9C113.5,32.9,90.2,9.6,61.6,9.6z"/>
	</g>
	<path d="M101.1,101.8c-0.2,0-0.4-0.1-0.5-0.2l-79-79c-0.3-0.3-0.3-0.8,0-1.1s0.8-0.3,1.1,0l79,79c0.3,0.3,0.3,0.8,0,1.1
		C101.5,101.8,101.3,101.8,101.1,101.8z"/>
	<path d="M27.9,81.4c-2.1,0-3.8-1.7-3.8-3.8s1.7-3.8,3.8-3.8s3.8,1.7,3.8,3.8S30,81.4,27.9,81.4z M27.9,75.2c-1.3,0-2.3,1-2.3,2.3
		s1,2.3,2.3,2.3s2.3-1,2.3-2.3S29.2,75.2,27.9,75.2z"/>
	<circle cx="66.7" cy="22.7" r="1.4"/>
</g>
</svg>
