<?xml version="1.0" encoding="utf-8"?>
<!-- Generator: Adobe Illustrator 21.0.2, SVG Export Plug-In . SVG Version: 6.00 Build 0)  -->
<svg version="1.1" id="Layer_2" xmlns="http://www.w3.org/2000/svg" xmlns:xlink="http://www.w3.org/1999/xlink" x="0px" y="0px"
	 viewBox="0 0 123.2 123.2" style="enable-background:new 0 0 123.2 123.2;" xml:space="preserve">
<style type="text/css">
	.st0{fill:#8FDBFF;}
	.st1{fill:#FFBF4C;}
</style>
<g>
	<g>
		<path d="M55.7,90.8h-42c-0.4,0-0.8-0.3-0.8-0.8s0.3-0.8,0.8-0.8h42c0.4,0,0.8,0.3,0.8,0.8S56.1,90.8,55.7,90.8z"/>
		<path d="M109.5,90.8h-42c-0.4,0-0.8-0.3-0.8-0.8s0.3-0.8,0.8-0.8h42c0.4,0,0.8,0.3,0.8,0.8S109.9,90.8,109.5,90.8z"/>
	</g>
	<g>
		<path d="M61.6,115C32.1,115,8.1,91,8.1,61.6c0-29.5,24-53.4,53.4-53.4c29.5,0,53.4,24,53.4,53.4C115,91,91,115,61.6,115z
			 M61.6,9.6C32.9,9.6,9.6,32.9,9.6,61.6c0,28.6,23.3,51.9,51.9,51.9c28.6,0,51.9-23.3,51.9-51.9C113.5,32.9,90.2,9.6,61.6,9.6z"/>
	</g>
	<path class="st0" d="M63.7,92.3v2.3l9.6,4.8H49.9l9.6-4.8v-2.3H21.6c9.5,12.4,24.2,19.7,40,19.7c15.8,0,30.4-7.3,40-19.7H63.7z"/>
	<path class="st1" d="M61.6,79.6c-6.9,0-12.4-5.6-13.1-13.2L46,39.1h31.1l-2.5,27.2C73.9,74,68.4,79.6,61.6,79.6z"/>
	<path d="M73.1,42.1h-9.5c-0.4,0-0.8-0.3-0.8-0.8s0.3-0.8,0.8-0.8h9.5c0.4,0,0.8,0.3,0.8,0.8S73.6,42.1,73.1,42.1z"/>
	<path d="M50.5,63.6c-0.4,0-0.7-0.3-0.7-0.7l-0.3-3c0-0.4,0.3-0.8,0.7-0.8c0.4,0,0.8,0.3,0.8,0.7l0.3,3
		C51.2,63.2,50.9,63.5,50.5,63.6C50.5,63.6,50.5,63.6,50.5,63.6z"/>
	<path d="M61.6,78.1c-6.1,0-10.9-5-11.6-11.9c0-0.4,0.3-0.8,0.7-0.8c0.4,0,0.8,0.3,0.8,0.7c0.6,6.1,4.8,10.5,10.1,10.5
		c0.4,0,0.8,0.3,0.8,0.8S62,78.1,61.6,78.1z"/>
	<path d="M73.3,100.1H49.9c-0.3,0-0.7-0.2-0.7-0.6c-0.1-0.3,0.1-0.7,0.4-0.8l9.2-4.6V82.3c-7.1-1.3-12.4-7.7-13.1-15.7l-2.7-29.7
		c0-0.2,0.1-0.4,0.2-0.6c0.1-0.2,0.3-0.2,0.6-0.2h36c0.2,0,0.4,0.1,0.6,0.2c0.1,0.2,0.2,0.4,0.2,0.6l-2.7,29.7l0,0
		c-0.7,8-6.1,14.3-13.1,15.7v11.9l9.2,4.6c0.3,0.2,0.5,0.5,0.4,0.8C73.9,99.9,73.6,100.1,73.3,100.1z M53,98.6h17.1l-6.7-3.4
		c-0.3-0.1-0.4-0.4-0.4-0.7v-13c0-0.4,0.3-0.7,0.6-0.7c6.8-1,11.8-6.8,12.5-14.4l2.6-28.8H44.4L47,66.4c0.7,7.7,5.7,13.5,12.5,14.4
		c0.4,0.1,0.6,0.4,0.6,0.7v13c0,0.3-0.2,0.5-0.4,0.7L53,98.6z M76.9,66.5L76.9,66.5L76.9,66.5z"/>
	<path d="M65.1,68.5h-4.3c-0.4,0-0.8-0.3-0.8-0.8V52.2H55c-0.4,0-0.8-0.3-0.8-0.8v-2.8c0-0.4,0.3-0.7,0.6-0.7L65,46.4
		c0.2,0,0.4,0,0.6,0.2c0.2,0.1,0.3,0.3,0.3,0.6v6.1c0,0.4-0.3,0.8-0.8,0.8s-0.8-0.3-0.8-0.8V48l-8.6,1.3v1.4h5.1
		c0.3,0,0.6,0.2,0.7,0.6c0,0.1,0,0.2,0,0.2V67h2.8V56.8c0-0.4,0.3-0.8,0.8-0.8s0.8,0.3,0.8,0.8v11C65.9,68.1,65.5,68.5,65.1,68.5z"
		/>
	<g>
		<path d="M55.8,30.8c-0.2,0-0.4-0.1-0.5-0.2l-4.3-4.3c-0.3-0.3-0.3-0.8,0-1.1s0.8-0.3,1.1,0l4.3,4.3c0.3,0.3,0.3,0.8,0,1.1
			C56.2,30.7,56,30.8,55.8,30.8z"/>
		<path d="M67.4,30.8c-0.2,0-0.4-0.1-0.5-0.2c-0.3-0.3-0.3-0.8,0-1.1l4.3-4.3c0.3-0.3,0.8-0.3,1.1,0s0.3,0.8,0,1.1l-4.3,4.3
			C67.8,30.7,67.6,30.8,67.4,30.8z"/>
		<path d="M61.6,28.4c-0.4,0-0.8-0.3-0.8-0.8v-6.1c0-0.4,0.3-0.8,0.8-0.8s0.8,0.3,0.8,0.8v6.1C62.3,28.1,62,28.4,61.6,28.4z"/>
	</g>
	<g>
		<path d="M25.6,71.2c-0.4,0-0.8-0.3-0.8-0.8v-6.1c0-0.4,0.3-0.8,0.8-0.8s0.8,0.3,0.8,0.8v6.1C26.3,70.8,26,71.2,25.6,71.2z"/>
		<path d="M28.6,68.1h-6.1c-0.4,0-0.8-0.3-0.8-0.8s0.3-0.8,0.8-0.8h6.1c0.4,0,0.8,0.3,0.8,0.8S29.1,68.1,28.6,68.1z"/>
	</g>
	<circle cx="92.5" cy="80.6" r="1.4"/>
	<g>
		<g>
			<path d="M45,65.5c-6.4,0-12-4.9-12.6-11.4l-1.2-11.9c0-0.2,0-0.4,0.2-0.6s0.3-0.2,0.6-0.2h12c0.4,0,0.8,0.3,0.8,0.8
				s-0.3,0.8-0.8,0.8H32.9l1.1,11c0.6,6,6,10.5,12,10c0.4,0,0.8,0.3,0.8,0.7c0,0.4-0.3,0.8-0.7,0.8C45.8,65.5,45.4,65.5,45,65.5z"/>
			<path d="M45,61.7c-4.6,0-8.4-3.5-8.9-8l-0.8-7.7c0-0.2,0-0.4,0.2-0.6c0.1-0.2,0.3-0.2,0.6-0.2h8c0.4,0,0.8,0.3,0.8,0.8
				s-0.3,0.8-0.8,0.8H37l0.7,6.9c0.4,3.8,3.5,6.7,7.4,6.7c0.2,0,0.5,0,0.7,0c0.4,0,0.8,0.3,0.8,0.7c0,0.4-0.3,0.8-0.7,0.8
				C45.6,61.7,45.3,61.7,45,61.7z"/>
		</g>
		<g>
			<path d="M78.1,65.5c-0.4,0-0.7,0-1.1,0c-0.4,0-0.7-0.4-0.7-0.8s0.4-0.7,0.8-0.7c6.1,0.5,11.5-4,12-10l1.1-11H79.1
				c-0.4,0-0.8-0.3-0.8-0.8s0.3-0.8,0.8-0.8h12c0.2,0,0.4,0.1,0.6,0.2c0.1,0.2,0.2,0.4,0.2,0.6L90.7,54
				C90.1,60.5,84.5,65.5,78.1,65.5z"/>
			<path d="M78.1,61.7c-0.3,0-0.5,0-0.8,0c-0.4,0-0.7-0.4-0.7-0.8s0.4-0.7,0.8-0.7c0.2,0,0.5,0,0.7,0c3.8,0,7-2.9,7.4-6.7l0.7-6.9
				h-7.2c-0.4,0-0.8-0.3-0.8-0.8s0.3-0.8,0.8-0.8h8c0.2,0,0.4,0.1,0.6,0.2c0.1,0.2,0.2,0.4,0.2,0.6L87,53.7
				C86.5,58.3,82.7,61.7,78.1,61.7z"/>
		</g>
	</g>
</g>
</svg>
